<svg id="e9DJoYRqLAd1" xmlns="http://www.w3.org/2000/svg" xmlns:xlink="http://www.w3.org/1999/xlink" viewBox="1284 597 130 88" shape-rendering="geometricPrecision" text-rendering="geometricPrecision">
<style><![CDATA[
#e9DJoYRqLAd2_to {animation: e9DJoYRqLAd2_to__to 2000ms linear 1 normal forwards}@keyframes e9DJoYRqLAd2_to__to { 0% {transform: translate(1347.273804px,596px)} 100% {transform: translate(1347.273804px,635.733276px)}} #e9DJoYRqLAd2 {animation: e9DJoYRqLAd2_c_o 2000ms linear 1 normal forwards}@keyframes e9DJoYRqLAd2_c_o { 0% {opacity: 0} 100% {opacity: 1}} #e9DJoYRqLAd19 {animation: e9DJoYRqLAd19_c_o 2000ms linear 1 normal forwards}@keyframes e9DJoYRqLAd19_c_o { 0% {opacity: 0} 20% {opacity: 0.6} 100% {opacity: 1}}
]]></style>
<g id="e9DJoYRqLAd2_to" transform="translate(1347.273804,596)"><g id="e9DJoYRqLAd2" transform="translate(-1347.273804,-635.733276)" opacity="0" clip-path="url(#e9DJoYRqLAd17)"><g><g clip-path="url(#e9DJoYRqLAd15)"><g><g clip-path="url(#e9DJoYRqLAd13)"><g><g clip-path="url(#e9DJoYRqLAd11)"><g><path d="M1361.824219,630.101562L1348.792969,605.375l-14.882813,23.664062c-2.132812,3.222657-5.949218,11.09375-6.113281,15.328126-.441406,11.582031,7.921875,21.300781,18.679687,21.710937c10.761719.410156,19.839844-8.644531,20.285157-20.226563.160156-4.234374-3.054688-12.375-4.9375-15.75Zm0,0"/></g><clipPath id="e9DJoYRqLAd11"><path d="M1329.308594,604.628906l38.972656,1.488282-2.316406,60.703124-38.972656-1.484374Zm0,0"/></clipPath></g></g><clipPath id="e9DJoYRqLAd13"><path d="M1329.308594,604.628906l38.972656,1.488282-2.316406,60.703124-38.972656-1.484374Zm0,0"/></clipPath></g></g><clipPath id="e9DJoYRqLAd15"><path d="M1329.308594,604.628906l38.972656,1.488282-2.316406,60.703124-38.972656-1.484374Zm0,0"/></clipPath></g></g><clipPath id="e9DJoYRqLAd17"><path d="M1327,605h40v62h-40Zm0,0"/></clipPath></g></g><g id="e9DJoYRqLAd19" opacity="0" clip-path="url(#e9DJoYRqLAd26)"><g><g clip-path="url(#e9DJoYRqLAd24)"><g><path d="M1369.222656,602.027344l-50.890625,81.777344l1.011719.628906l53.46875-85.917969-1.011719-.628906-2.578125,4.140625"/></g><clipPath id="e9DJoYRqLAd24" transform="translate(.000001 0)"><path d="M1314.621094,681.523438l53.496094-85.960938l8.277343,5.152344-53.496093,85.960937Zm0,0" transform="translate(.000001 0)"/></clipPath></g></g><clipPath id="e9DJoYRqLAd26"><path d="M1318,597h55v88h-55Zm0,0"/></clipPath></g></svg>
