<svg id="coming-soon" xmlns="http://www.w3.org/2000/svg" xmlns:xlink="http://www.w3.org/1999/xlink" viewBox="0 0 1440 809.999993" shape-rendering="geometricPrecision" text-rendering="geometricPrecision">
<style><![CDATA[
#coming-soon-u-main-line_to {animation: coming-soon-u-main-line_to__to 2000ms linear 1 normal forwards}@keyframes coming-soon-u-main-line_to__to { 0% {transform: translate(586px,362.949219px)} 100% {transform: translate(646.041016px,362.949219px)}} #coming-soon-u-main-line {animation: coming-soon-u-main-line_c_o 2000ms linear 1 normal forwards}@keyframes coming-soon-u-main-line_c_o { 0% {opacity: 0} 100% {opacity: 1}} #coming-soon-u-drop_to {animation: coming-soon-u-drop_to__to 2000ms linear 1 normal forwards}@keyframes coming-soon-u-drop_to__to { 0% {transform: translate(1347.273804px,596px);animation-timing-function: cubic-bezier(0.42,0,0.58,1)} 100% {transform: translate(1347.273804px,635.731323px)}} #coming-soon-u-drop {animation: coming-soon-u-drop_c_o 2000ms linear 1 normal forwards}@keyframes coming-soon-u-drop_c_o { 0% {opacity: 0;animation-timing-function: cubic-bezier(0.42,0,0.58,1)} 100% {opacity: 1}} #coming-soon-u-drop-line {animation: coming-soon-u-drop-line_c_o 2000ms linear 1 normal forwards}@keyframes coming-soon-u-drop-line_c_o { 0% {opacity: 0} 20% {opacity: 0.6} 100% {opacity: 1}} #coming-soon-u-c {animation: coming-soon-u-c_c_o 2000ms linear 1 normal forwards}@keyframes coming-soon-u-c_c_o { 0% {opacity: 0;animation-timing-function: step-end} 10% {opacity: 1} 100% {opacity: 1}} #coming-soon-u-o {animation: coming-soon-u-o_c_o 2000ms linear 1 normal forwards}@keyframes coming-soon-u-o_c_o { 0% {opacity: 0;animation-timing-function: step-end} 20% {opacity: 1} 100% {opacity: 1}} #coming-soon-u-m {animation: coming-soon-u-m_c_o 2000ms linear 1 normal forwards}@keyframes coming-soon-u-m_c_o { 0% {opacity: 0;animation-timing-function: step-end} 30% {opacity: 1} 100% {opacity: 1}} #coming-soon-u-i {animation: coming-soon-u-i_c_o 2000ms linear 1 normal forwards}@keyframes coming-soon-u-i_c_o { 0% {opacity: 0;animation-timing-function: step-end} 40% {opacity: 1} 100% {opacity: 1}} #coming-soon-u-n {animation: coming-soon-u-n_c_o 2000ms linear 1 normal forwards}@keyframes coming-soon-u-n_c_o { 0% {opacity: 0;animation-timing-function: step-end} 50% {opacity: 1} 100% {opacity: 1}} #coming-soon-s-g103 {animation: coming-soon-s-g103_c_o 2000ms linear 1 normal forwards}@keyframes coming-soon-s-g103_c_o { 0% {opacity: 0;animation-timing-function: step-end} 60% {opacity: 1} 100% {opacity: 1}} #coming-soon-u-s {animation: coming-soon-u-s_c_o 2000ms linear 1 normal forwards}@keyframes coming-soon-u-s_c_o { 0% {opacity: 0;animation-timing-function: step-end} 70% {opacity: 1} 100% {opacity: 1}} #coming-soon-u-o2 {animation: coming-soon-u-o2_c_o 2000ms linear 1 normal forwards}@keyframes coming-soon-u-o2_c_o { 0% {opacity: 0;animation-timing-function: step-end} 80% {opacity: 1} 100% {opacity: 1}} #coming-soon-u-o3 {animation: coming-soon-u-o3_c_o 2000ms linear 1 normal forwards}@keyframes coming-soon-u-o3_c_o { 0% {opacity: 0;animation-timing-function: step-end} 90% {opacity: 1} 100% {opacity: 1}} #coming-soon-u-n2 {animation: coming-soon-u-n2_c_o 2000ms linear 1 normal forwards}@keyframes coming-soon-u-n2_c_o { 0% {opacity: 0;animation-timing-function: step-end} 100% {opacity: 1}}
]]></style>
<g id="coming-soon-s-g1"><g id="coming-soon-s-g2" transform="translate(573.937 390.542)"><g id="coming-soon-s-g3"><path id="coming-soon-s-path1" d="M29.800781,0.855469c14.523438,0,23.445313-9.207031,23.445313-24.109375v-43.183594h-7.023438v42.898438c0,11.390624-6.359375,18.035156-16.421875,18.035156-10.058593,0-16.324219-6.644532-16.324219-18.035156v-42.898438h-7.023437v43.183594c0,14.902344,8.921875,24.109375,23.347656,24.109375Zm0,0"/></g></g></g><g id="coming-soon-s-g4"><g id="coming-soon-s-g5" transform="translate(656.127 390.542)"><g id="coming-soon-s-g6"><path id="coming-soon-s-path2" d="M15.089844,0v-53.054688L49.925781,0h5.882813v-66.4375h-7.023438v52.582031L14.238281,-66.4375h-6.171875v66.4375Zm0,0"/></g></g></g><g id="coming-soon-s-g7"><g id="coming-soon-s-g8" transform="translate(742.494 390.542)"><g id="coming-soon-s-g9"><path id="coming-soon-s-path3" d="M53.152344,0L35.210938,-24.867188c11.296874-2.089843,17.464843-9.300781,17.464843-20.5c0-13.667968-9.109375-21.070312-24.296875-21.070312h-20.3125v66.4375h7.023438v-24.296875h12.054687L44.609375,0ZM28.1875,-60.078125c11.203125,0,17.371094,5.125,17.371094,14.710937c0,10.058594-6.359375,14.804688-17.464844,14.804688h-13.003906v-29.515625Zm0,0"/></g></g></g><g id="coming-soon-s-g10"><g id="coming-soon-s-g11" transform="translate(821.742 390.542)"><g id="coming-soon-s-g12"><path id="coming-soon-s-path4" d="M59.414062,0L34.453125,-66.4375h-7.496094L1.992188,0h7.308593l5.980469-15.945312h30.847656L52.011719,0ZM30.65625,-57.421875l13.097656,35.117187h-26.101562Zm0,0"/></g></g></g><g id="coming-soon-s-g13"><g id="coming-soon-s-g14" transform="translate(905.641 390.542)"><g id="coming-soon-s-g15"><path id="coming-soon-s-path5" d="M15.089844,0v-66.4375h-7.023438v66.4375Zm0,0"/></g></g></g><g id="coming-soon-s-g16"><g id="coming-soon-s-g17" transform="translate(951.293 390.542)"><g id="coming-soon-s-g18"><path id="coming-soon-s-path6" d="M15.089844,0v-53.054688L49.925781,0h5.882813v-66.4375h-7.023438v52.582031L14.238281,-66.4375h-6.171875v66.4375Zm0,0"/></g></g></g><g id="coming-soon-s-g19"><g id="coming-soon-s-g20" transform="translate(1037.66 390.542)"><g id="coming-soon-s-g21"><path id="coming-soon-s-path7" d="M45.082031,-66.4375l-17.9375,35.78125L9.113281,-66.4375h-7.59375l22.019531,43.753906v22.683594h7.117188v-22.683594L52.675781,-66.4375Zm0,0"/></g></g></g><g id="coming-soon-u-main-line_to" transform="translate(586,362.949219)"><g id="coming-soon-u-main-line" transform="translate(-646.041016,-362.949219)" opacity="0" clip-path="url(#coming-soon-u-2f92752fbb)"><g id="coming-soon-s-g22"><path id="coming-soon-s-path8" d="M725.269531,361.894531h-167.328125v2.109375h176.199219v-2.109375h-8.871094"/></g><clipPath id="coming-soon-u-2f92752fbb" transform="translate(.000001 0)"><path id="coming-soon-s-path9" d="M557.914062,361h176.25v4h-176.25Zm0,0" transform="translate(.000001 0)"/></clipPath></g></g><g id="coming-soon-u-drop_to" transform="translate(1347.273804,596)"><g id="coming-soon-u-drop" transform="translate(-1347.273804,-635.731323)" opacity="0" clip-path="url(#coming-soon-u-b95f8e7aaa)"><g id="coming-soon-s-g23"><g id="coming-soon-s-g24" clip-path="url(#coming-soon-u-5320683987)"><g id="coming-soon-s-g25"><g id="coming-soon-s-g26" clip-path="url(#coming-soon-u-2e3d95f607)"><g id="coming-soon-s-g27"><g id="coming-soon-s-g28" clip-path="url(#coming-soon-u-fae21c49a2)"><g id="coming-soon-s-g29"><path id="coming-soon-s-path10" d="M1361.824219,630.101562l-13.03125-24.730468-14.882813,23.667968c-2.132812,3.21875-5.949218,11.09375-6.113281,15.328126-.441406,11.582031,7.921875,21.300781,18.679687,21.710937c10.761719.410156,19.839844-8.644531,20.285157-20.226563.160156-4.234374-3.054688-12.375-4.9375-15.75Zm0,0"/></g><clipPath id="coming-soon-u-fae21c49a2"><path id="coming-soon-s-path11" d="M1329.308594,604.628906l38.972656,1.484375-2.316406,60.707031-38.972656-1.484374Zm0,0"/></clipPath></g></g><clipPath id="coming-soon-u-2e3d95f607"><path id="coming-soon-s-path12" d="M1329.308594,604.628906l38.972656,1.484375-2.316406,60.707031-38.972656-1.484374Zm0,0"/></clipPath></g></g><clipPath id="coming-soon-u-5320683987"><path id="coming-soon-s-path13" d="M1329.308594,604.628906l38.972656,1.484375-2.316406,60.707031-38.972656-1.484374Zm0,0"/></clipPath></g></g><clipPath id="coming-soon-u-b95f8e7aaa"><path id="coming-soon-s-path14" d="M1327,605h40v62h-40Zm0,0"/></clipPath></g></g><g id="coming-soon-u-drop-line" opacity="0" clip-path="url(#coming-soon-u-c6161f3984)"><g id="coming-soon-s-g30"><g id="coming-soon-s-g31" clip-path="url(#coming-soon-u-e40caa9add)"><g id="coming-soon-s-g32"><path id="coming-soon-s-path15" d="M1369.222656,602.027344l-50.890625,81.777344l1.011719.628906l53.46875-85.917969-1.011719-.628906-2.578125,4.140625"/></g><clipPath id="coming-soon-u-e40caa9add" transform="translate(.000001 0)"><path id="coming-soon-s-path16" d="M1314.621094,681.523438l53.496094-85.960938l8.277343,5.152344-53.496093,85.960937Zm0,0" transform="translate(.000001 0)"/></clipPath></g></g><clipPath id="coming-soon-u-c6161f3984"><path id="coming-soon-s-path17" d="M1318,597h55v88h-55Zm0,0"/></clipPath></g><g id="coming-soon-s-g33"><g id="coming-soon-s-g34" transform="translate(147.153 541.573)"><g id="coming-soon-s-g35"><path id="coming-soon-s-path18" d="M0,-5.898438h-30.5v2.847657h30.5Zm0,0"/></g></g></g><g id="coming-soon-s-g36"><g id="coming-soon-s-g37" transform="translate(147.153 532.626)"><g id="coming-soon-s-g38"><path id="coming-soon-s-path19" d="M-8.945312,-17.285156c1.746093,0,3.292968.613281,4.554687,1.832031c1.300781,1.21875,1.949219,2.722656,1.949219,4.472656c0,1.789063-.648438,3.292969-1.949219,4.515625-1.261719,1.21875-2.808594,1.789063-4.554687,1.789063-1.710938,0-3.253907-.570313-4.554688-1.789063-1.304688-1.222656-1.953125-2.726562-1.953125-4.515625c0-1.75.648437-3.253906,1.953125-4.472656c1.300781-1.21875,2.84375-1.832031,4.554688-1.832031ZM0,-20.128906h-17.894531v2.84375h3.089843c-.242187.164062-.445312.367187-.648437.53125-1.871094,1.707031-2.847656,3.78125-2.847656,6.222656c0,2.480469.976562,4.554688,2.847656,6.261719c1.871094,1.625,4.027344,2.441406,6.507813,2.441406c2.519531,0,4.675781-.816406,6.503906-2.441406c1.914062-1.707031,2.847656-3.78125,2.847656-6.261719c0-2.441406-.933594-4.515625-2.847656-6.222656-.160156-.164063-.363282-.367188-.609375-.53125h3.050781Zm0,0"/></g></g></g><g id="coming-soon-s-g39"><g id="coming-soon-s-g40" transform="translate(147.153 509.446)"><g id="coming-soon-s-g41"><path id="coming-soon-s-path20" d="M0,-15.414062v-2.847657h-11.183594c-2.074218,0-3.742187.570313-5.003906,1.628907-.648438.570312-1.136719,1.21875-1.503906,1.992187-.363282.8125-.570313,1.832031-.570313,3.089844c0,1.300781.367188,2.402343,1.019531,3.375.609376.9375,1.421876,1.710937,2.4375,2.277343h-3.089843v2.847657h17.894531v-2.847657h-7.484375c-2.277344,0-4.066406-.40625-5.40625-1.257812-.734375-.488281-1.34375-1.097656-1.832031-1.871094-.445313-.734375-.691406-1.75-.691406-2.96875c0-1.222656.449218-2.074218,1.261718-2.605468.8125-.527344,1.828125-.8125,2.96875-.8125Zm0,0"/></g></g></g><g id="coming-soon-s-g42"><g id="coming-soon-s-g43" transform="translate(147.153 488.746)"><g id="coming-soon-s-g44"><path id="coming-soon-s-path21" d="M-8.945312,-17.285156c1.746093,0,3.292968.613281,4.554687,1.832031c1.300781,1.21875,1.949219,2.722656,1.949219,4.472656c0,1.789063-.648438,3.292969-1.949219,4.515625-1.261719,1.21875-2.808594,1.789063-4.554687,1.789063-1.710938,0-3.253907-.570313-4.554688-1.789063-1.304688-1.222656-1.953125-2.726562-1.953125-4.515625c0-1.75.648437-3.253906,1.953125-4.472656c1.300781-1.21875,2.84375-1.832031,4.554688-1.832031ZM0,-20.128906h-30.5v2.84375h15.695312c-.242187.164062-.445312.367187-.648437.53125-1.871094,1.707031-2.847656,3.78125-2.847656,6.222656c0,2.480469.976562,4.554688,2.847656,6.261719c1.871094,1.625,4.027344,2.441406,6.507813,2.441406c2.519531,0,4.675781-.816406,6.503906-2.441406c1.914062-1.707031,2.847656-3.78125,2.847656-6.261719c0-2.441406-.933594-4.515625-2.847656-6.222656-.160156-.164063-.363282-.367188-.609375-.53125h3.050781Zm0,0"/></g></g></g><g id="coming-soon-s-g45"><g id="coming-soon-s-g46" transform="translate(147.153 465.565)"><g id="coming-soon-s-g47" transform="translate(0 0.000001)"><path id="coming-soon-s-path22" d="M-2.519531,-5.613281c-.488281.691406-1.304688,1.222656-2.484375,1.503906v3.011719c3.703125-.609375,5.53125-2.96875,5.53125-7.117188c0-.976562-.078125-1.871094-.324219-2.726562-.242187-.851563-.570313-1.585938-1.015625-2.277344-.9375-1.382812-2.359375-2.074219-4.269531-2.074219-1.953125,0-3.335938.898438-4.230469,2.765625-.367188.773438-.652344,1.628906-.855469,2.5625-.203125.894532-.445312,1.75-.691406,2.523438-.242187.8125-.566406,1.464844-.933594,1.992187s-.9375.8125-1.75.8125-1.421875-.324219-1.789062-.976562c-.40625-.648438-.609375-1.421875-.609375-2.277344c0-.894531.203125-1.667969.527344-2.277344.328124-.609375.976562-1.097656,1.953124-1.382812v-3.050781c-1.789062.367187-3.050781,1.140624-3.742187,2.277343-.730469,1.179688-1.097656,2.605469-1.097656,4.351563c0,1.710937.488281,3.214844,1.382812,4.476562.933594,1.21875,2.277344,1.871094,4.066407,1.871094.855468,0,1.628906-.246094,2.277343-.691406.691407-.488282,1.21875-1.179688,1.628907-2.074219.363281-.816406.648437-1.667969.894531-2.5625.203125-.894531.445312-1.75.691406-2.5625.609375-1.832031,1.503906-2.765625,2.640625-2.765625c1.953125,0,2.890625,1.300781,2.890625,3.902344c0,1.097656-.207031,2.035156-.691406,2.765625Zm0,0" transform="translate(0 0.000001)"/></g></g></g><g id="coming-soon-s-g48"><g id="coming-soon-s-g49" transform="translate(147.153 449.217)"><g id="coming-soon-s-g50"><path id="coming-soon-s-path23" d="M-11.46875,-19.765625c-1.992188.570313-3.617188,1.667969-4.878906,3.253906-1.261719,1.667969-1.914063,3.496094-1.914063,5.53125c0,2.5625.9375,4.757813,2.765625,6.507813c1.832032,1.789062,4.027344,2.644531,6.550782,2.644531c2.558593,0,4.714843-.855469,6.585937-2.644531.855469-.8125,1.546875-1.75,2.035156-2.886719.488281-1.097656.730469-2.238281.730469-3.375c0-1.140625-.121094-2.15625-.445312-3.050781-1.019532-2.847656-2.929688-4.800782-5.816407-5.816406v3.210937c1.015625.570313,1.828125,1.304687,2.398438,2.277344.609375.976562.894531,1.996093.894531,3.132812c0,1.75-.609375,3.214844-1.871094,4.433594s-2.765625,1.789063-4.511718,1.789063c-1.667969,0-3.171876-.570313-4.433594-1.789063-.570313-.570313-1.058594-1.21875-1.382813-1.992187-.324219-.734376-.53125-1.667969-.53125-2.726563s.367188-2.074219,1.058594-3.128906c.734375-1.019531,1.628906-1.792969,2.765625-2.277344Zm0,0"/></g></g></g><g id="coming-soon-s-g51"><g id="coming-soon-s-g52" transform="translate(147.153 428.029)"><g id="coming-soon-s-g53"><path id="coming-soon-s-path24" d="M-8.945312,-17.285156c1.746093,0,3.292968.613281,4.554687,1.832031c1.300781,1.21875,1.949219,2.722656,1.949219,4.472656c0,1.789063-.648438,3.292969-1.949219,4.515625-1.261719,1.21875-2.808594,1.789063-4.554687,1.789063-1.710938,0-3.253907-.570313-4.554688-1.789063-1.304688-1.222656-1.953125-2.726562-1.953125-4.515625c0-1.75.648437-3.253906,1.953125-4.472656c1.300781-1.21875,2.84375-1.832031,4.554688-1.832031ZM0,-20.128906h-17.894531v2.84375h3.089843c-.242187.164062-.445312.367187-.648437.53125-1.871094,1.707031-2.847656,3.78125-2.847656,6.222656c0,2.480469.976562,4.554688,2.847656,6.261719c1.871094,1.625,4.027344,2.441406,6.507813,2.441406c2.519531,0,4.675781-.816406,6.503906-2.441406c1.914062-1.707031,2.847656-3.78125,2.847656-6.261719c0-2.441406-.933594-4.515625-2.847656-6.222656-.160156-.164063-.363282-.367188-.609375-.53125h3.050781Zm0,0"/></g></g></g><g id="coming-soon-s-g54"><g id="coming-soon-s-g55" transform="translate(147.153 404.849)"><g id="coming-soon-s-g56"><path id="coming-soon-s-path25" d="M10.167969,-5.898438h-13.21875c.246093-.121093.449219-.324218.609375-.488281c1.914062-1.707031,2.847656-3.78125,2.847656-6.261719c0-2.4375-.933594-4.511718-2.847656-6.222656-1.828125-1.625-3.984375-2.480468-6.503906-2.480468-2.480469,0-4.636719.855468-6.507813,2.480468-1.871094,1.710938-2.847656,3.785156-2.847656,6.222656c0,2.480469.976562,4.554688,2.847656,6.261719.203125.164063.40625.367188.648437.488281h-3.089843v2.847657h28.0625ZM-8.945312,-18.503906c1.746093,0,3.292968.609375,4.554687,1.832031c1.300781,1.21875,1.949219,2.722656,1.949219,4.472656c0,1.789063-.648438,3.292969-1.949219,4.511719-1.261719,1.222656-2.808594,1.789062-4.554687,1.789062-1.710938,0-3.253907-.566406-4.554688-1.789062-1.304688-1.21875-1.953125-2.722656-1.953125-4.511719c0-1.75.648437-3.253906,1.953125-4.472656c1.300781-1.222656,2.84375-1.832031,4.554688-1.832031Zm0,0"/></g></g></g><g id="coming-soon-s-g57"><g id="coming-soon-s-g58" transform="translate(147.153 381.668)"><g id="coming-soon-s-g59"><path id="coming-soon-s-path26" d="M-9.355469,-20.539062c-2.4375,0-4.554687.976562-6.382812,2.847656-1.75,1.832031-2.644531,4.027344-2.644531,6.507812c0,2.601563.9375,4.796875,2.765624,6.628906c1.832032,1.828126,4.027344,2.726563,6.589844,2.726563c2.601563,0,4.796875-.898437,6.585938-2.726563.855468-.855468,1.507812-1.832031,1.992187-2.96875.488282-1.140624.734375-2.480468.734375-4.066406s-.488281-3.132812-1.464844-4.675781c-.976562-1.546875-2.359374-2.6875-4.066406-3.457031v3.253906c.855469.648438,1.503906,1.421875,1.992188,2.355469.488281.9375.691406,1.914062.691406,2.929687c0,1.546875-.488281,2.929688-1.503906,4.148438-.976563,1.21875-2.238282,1.992187-3.78125,2.238281v-15.742187Zm-.933593,3.011718v12.6875c-.730469-.164062-1.421876-.445312-2.074219-.855468-2.113281-1.300782-3.171875-3.128907-3.171875-5.488282c0-1.503906.488281-2.847656,1.464844-4.027344c1.015624-1.21875,2.277343-1.949218,3.78125-2.316406Zm0,0"/></g></g></g><g id="coming-soon-s-g60"><g id="coming-soon-s-g61" transform="translate(147.153 359.504)"><g id="coming-soon-s-g62" transform="translate(0 0.000001)"><path id="coming-soon-s-path27" d="M-2.519531,-5.613281c-.488281.691406-1.304688,1.222656-2.484375,1.503906v3.011719c3.703125-.609375,5.53125-2.96875,5.53125-7.117188c0-.976562-.078125-1.871094-.324219-2.726562-.242187-.851563-.570313-1.585938-1.015625-2.277344-.9375-1.382812-2.359375-2.074219-4.269531-2.074219-1.953125,0-3.335938.898438-4.230469,2.765625-.367188.773438-.652344,1.628906-.855469,2.5625-.203125.894532-.445312,1.75-.691406,2.523438-.242187.8125-.566406,1.464844-.933594,1.992187s-.9375.8125-1.75.8125-1.421875-.324219-1.789062-.976562c-.40625-.648438-.609375-1.421875-.609375-2.277344c0-.894531.203125-1.667969.527344-2.277344.328124-.609375.976562-1.097656,1.953124-1.382812v-3.050781c-1.789062.367187-3.050781,1.140624-3.742187,2.277343-.730469,1.179688-1.097656,2.605469-1.097656,4.351563c0,1.710937.488281,3.214844,1.382812,4.476562.933594,1.21875,2.277344,1.871094,4.066407,1.871094.855468,0,1.628906-.246094,2.277343-.691406.691407-.488282,1.21875-1.179688,1.628907-2.074219.363281-.816406.648437-1.667969.894531-2.5625.203125-.894531.445312-1.75.691406-2.5625.609375-1.832031,1.503906-2.765625,2.640625-2.765625c1.953125,0,2.890625,1.300781,2.890625,3.902344c0,1.097656-.207031,2.035156-.691406,2.765625Zm0,0" transform="translate(0 0.000001)"/></g></g></g><g id="coming-soon-s-g63"><g id="coming-soon-s-g64" transform="translate(147.153 332.175)"><g id="coming-soon-s-g65"><path id="coming-soon-s-path28" d="M-14.03125,-10.695312l7.769531-6.058594c.40625.40625.851563.851562,1.300781,1.339844c1.707032,1.789062,2.519532,3.457031,2.519532,4.921874c0,1.382813-.527344,2.601563-1.625,3.578126-1.058594.976562-2.277344,1.464843-3.660156,1.464843-1.140626,0-2.359376-.652343-3.699219-1.992187-.613281-.609375-1.464844-1.667969-2.605469-3.253906Zm-4.511719.242187c-1.261719,1.222656-2.441406,1.789063-3.660156,1.789063-1.179687,0-2.035156-.324219-2.605469-1.015626-.527344-.648437-.773437-1.421874-.730468-2.234374.039062-.816407.324218-1.585938.894531-2.277344.570312-.652344,1.382812-1.019532,2.359375-1.019532c1.015625,0,1.953125.449219,2.804687,1.300782.40625.410156.734375.816406,1.058594,1.261718.324219.449219.609375.855469.894531,1.261719-.324218.324219-.691406.609375-1.015625.933594Zm7.765625-13.746094l-1.546875,2.320313l1.953125,1.546875c.652344.527343,1.300782,1.054687,1.953125,1.585937l-7.28125,5.691406c-.40625-.488281-.8125-1.058593-1.300781-1.625-1.746094-2.117187-3.539062-3.171874-5.328125-3.171874-1.664063,0-3.046875.566406-4.148437,1.707031-1.054688,1.097656-1.585938,2.480469-1.585938,4.1875c0,1.789062.570312,3.253906,1.710938,4.3125c1.136718,1.097656,2.5625,1.625,4.269531,1.625s3.699219-.976563,5.9375-2.925781c.609375.8125,1.179687,1.625,1.75,2.355468c1.910156,2.644532,4.226562,3.945313,6.871093,3.945313c2.316407,0,4.230469-.730469,5.773438-2.277344.734375-.730469,1.261719-1.585937,1.667969-2.5625.40625-.972656.570312-2.113281.570312-3.375c0-1.300781-.488281-2.722656-1.546875-4.390625-.488281-.855469-1.421875-1.910156-2.804687-3.292969l3.945312-3.011719L0,-25.296875l-6.222656,4.757813c-2.441406-2.03125-3.984375-3.25-4.554688-3.660157Zm0,0"/></g></g></g><g id="coming-soon-s-g66"><g id="coming-soon-s-g67" transform="translate(147.153 293.175)"><g id="coming-soon-s-g68"><path id="coming-soon-s-path29" d="M-8.945312,-17.527344c1.746093,0,3.292968.609375,4.554687,1.828125c1.300781,1.222657,1.949219,2.726563,1.949219,4.476563c0,1.746094-.648438,3.25-1.949219,4.472656-1.261719,1.21875-2.765625,1.828125-4.554687,1.828125-1.75,0-3.253907-.609375-4.554688-1.828125-1.304688-1.222656-1.953125-2.726562-1.953125-4.472656c0-1.75.648437-3.253906,1.953125-4.476563c1.300781-1.21875,2.84375-1.828125,4.554688-1.828125Zm11.386718,12.6875v2.929688c1.910156-.328125,3.578125-1.179688,5-2.644532c1.832032-1.789062,2.726563-3.984374,2.726563-6.546874c0-2.523438-.894531-4.71875-2.726563-6.546876C5.652344,-19.4375,3.457031,-20.375,0.894531,-20.375h-18.789062v2.847656h3.011719c-.164063.164063-.367188.324219-.570313.488282-1.871094,1.789062-2.847656,3.863281-2.847656,6.222656c0,2.519531.976562,4.59375,2.847656,6.300781c1.871094,1.628906,4.027344,2.441406,6.507813,2.441406c2.519531,0,4.675781-.8125,6.503906-2.441406c1.914062-1.707031,2.847656-3.78125,2.847656-6.300781c0-2.441406-.933594-4.515625-2.847656-6.222656-.160156-.164063-.363282-.324219-.527344-.488282h3.863281c1.789063,0,3.292969.648438,4.554688,1.910156s1.871093,2.765626,1.871093,4.515626c0,1.789062-.609374,3.292968-1.871093,4.554687-.894531.894531-1.871094,1.464844-3.007813,1.707031Zm0,0"/></g></g></g><g id="coming-soon-s-g69"><g id="coming-soon-s-g70" transform="translate(147.153 269.751)"><g id="coming-soon-s-g71"><path id="coming-soon-s-path30" d="M-8.945312,-17.285156c1.746093,0,3.292968.613281,4.554687,1.832031c1.300781,1.21875,1.949219,2.722656,1.949219,4.472656c0,1.789063-.648438,3.292969-1.949219,4.515625-1.261719,1.21875-2.808594,1.789063-4.554687,1.789063-1.710938,0-3.253907-.570313-4.554688-1.789063-1.304688-1.222656-1.953125-2.726562-1.953125-4.515625c0-1.75.648437-3.253906,1.953125-4.472656c1.300781-1.21875,2.84375-1.832031,4.554688-1.832031ZM0,-20.128906h-17.894531v2.84375h3.089843c-.242187.164062-.445312.367187-.648437.53125-1.871094,1.707031-2.847656,3.78125-2.847656,6.222656c0,2.480469.976562,4.554688,2.847656,6.261719c1.871094,1.625,4.027344,2.441406,6.507813,2.441406c2.519531,0,4.675781-.816406,6.503906-2.441406c1.914062-1.707031,2.847656-3.78125,2.847656-6.261719c0-2.441406-.933594-4.515625-2.847656-6.222656-.160156-.164063-.363282-.367188-.609375-.53125h3.050781Zm0,0"/></g></g></g><g id="coming-soon-s-g72"><g id="coming-soon-s-g73" transform="translate(147.153 246.57)"><g id="coming-soon-s-g74"><path id="coming-soon-s-path31" d="M-14.191406,-12.242188h-3.703125c-.242188.570313-.367188,1.179688-.367188,1.789063c0,2.035156,1.140625,3.5,3.335938,4.433594l.734375.121093h-3.703125v2.847657h17.894531v-2.847657h-8.945312c-1.464844,0-2.765626-.324218-3.945313-1.015624-.609375-.324219-1.140625-.773438-1.546875-1.300782s-.648438-1.179687-.648438-1.910156c0-.734375.324219-1.425781.894532-2.117188Zm0,0"/></g></g></g><g id="coming-soon-s-g75"><g id="coming-soon-s-g76" transform="translate(147.153 233.922)"><g id="coming-soon-s-g77"><path id="coming-soon-s-path32" d="M-8.945312,-17.285156c1.746093,0,3.292968.613281,4.554687,1.832031c1.300781,1.21875,1.949219,2.722656,1.949219,4.472656c0,1.789063-.648438,3.292969-1.949219,4.515625-1.261719,1.21875-2.808594,1.789063-4.554687,1.789063-1.710938,0-3.253907-.570313-4.554688-1.789063-1.304688-1.222656-1.953125-2.726562-1.953125-4.515625c0-1.75.648437-3.253906,1.953125-4.472656c1.300781-1.21875,2.84375-1.832031,4.554688-1.832031ZM0,-20.128906h-30.5v2.84375h15.695312c-.242187.164062-.445312.367187-.648437.53125-1.871094,1.707031-2.847656,3.78125-2.847656,6.222656c0,2.480469.976562,4.554688,2.847656,6.261719c1.871094,1.625,4.027344,2.441406,6.507813,2.441406c2.519531,0,4.675781-.816406,6.503906-2.441406c1.914062-1.707031,2.847656-3.78125,2.847656-6.261719c0-2.441406-.933594-4.515625-2.847656-6.222656-.160156-.164063-.363282-.367188-.609375-.53125h3.050781Zm0,0"/></g></g></g><g id="coming-soon-s-g78"><g id="coming-soon-s-g79" transform="translate(147.153 210.742)"><g id="coming-soon-s-g80"><path id="coming-soon-s-path33" d="M-9.355469,-20.539062c-2.4375,0-4.554687.976562-6.382812,2.847656-1.75,1.832031-2.644531,4.027344-2.644531,6.507812c0,2.601563.9375,4.796875,2.765624,6.628906c1.832032,1.828126,4.027344,2.726563,6.589844,2.726563c2.601563,0,4.796875-.898437,6.585938-2.726563.855468-.855468,1.507812-1.832031,1.992187-2.96875.488282-1.140624.734375-2.480468.734375-4.066406s-.488281-3.132812-1.464844-4.675781c-.976562-1.546875-2.359374-2.6875-4.066406-3.457031v3.253906c.855469.648438,1.503906,1.421875,1.992188,2.355469.488281.9375.691406,1.914062.691406,2.929687c0,1.546875-.488281,2.929688-1.503906,4.148438-.976563,1.21875-2.238282,1.992187-3.78125,2.238281v-15.742187Zm-.933593,3.011718v12.6875c-.730469-.164062-1.421876-.445312-2.074219-.855468-2.113281-1.300782-3.171875-3.128907-3.171875-5.488282c0-1.503906.488281-2.847656,1.464844-4.027344c1.015624-1.21875,2.277343-1.949218,3.78125-2.316406Zm0,0"/></g></g></g><g id="coming-soon-s-g81"><g id="coming-soon-s-g82" transform="translate(147.153 188.578)"><g id="coming-soon-s-g83"><path id="coming-soon-s-path34" d="M0,-15.414062v-2.847657h-11.183594c-2.074218,0-3.742187.570313-5.003906,1.628907-.648438.570312-1.136719,1.21875-1.503906,1.992187-.363282.8125-.570313,1.832031-.570313,3.089844c0,1.300781.367188,2.402343,1.019531,3.375.609376.9375,1.421876,1.710937,2.4375,2.277343h-3.089843v2.847657h17.894531v-2.847657h-7.484375c-2.277344,0-4.066406-.40625-5.40625-1.257812-.734375-.488281-1.34375-1.097656-1.832031-1.871094-.445313-.734375-.691406-1.75-.691406-2.96875c0-1.222656.449218-2.074218,1.261718-2.605468.8125-.527344,1.828125-.8125,2.96875-.8125Zm0,0"/></g></g></g><g id="coming-soon-s-g84"><g id="coming-soon-s-g85" transform="translate(147.153 167.878)"><g id="coming-soon-s-g86"><path id="coming-soon-s-path35" d="M-24.074219,-5.9375c-.328125.367188-.53125.8125-.53125,1.300781s.203125.9375.53125,1.261719c.363281.367188.8125.527344,1.300781.527344s.933594-.160156,1.261719-.527344c.363281-.324219.527344-.773438.527344-1.261719s-.164063-.933593-.527344-1.300781c-.328125-.324219-.773437-.527344-1.261719-.527344s-.9375.203125-1.300781.527344ZM0,-6.101562h-17.894531v2.847656h17.894531Zm0,0"/></g></g></g><g id="coming-soon-s-g87"><g id="coming-soon-s-g88" transform="translate(147.153 158.565)"><g id="coming-soon-s-g89"><path id="coming-soon-s-path36" d="M0,-15.414062v-2.847657h-11.183594c-2.074218,0-3.742187.570313-5.003906,1.628907-.648438.570312-1.136719,1.21875-1.503906,1.992187-.363282.8125-.570313,1.832031-.570313,3.089844c0,1.300781.367188,2.402343,1.019531,3.375.609376.9375,1.421876,1.710937,2.4375,2.277343h-3.089843v2.847657h17.894531v-2.847657h-7.484375c-2.277344,0-4.066406-.40625-5.40625-1.257812-.734375-.488281-1.34375-1.097656-1.832031-1.871094-.445313-.734375-.691406-1.75-.691406-2.96875c0-1.222656.449218-2.074218,1.261718-2.605468.8125-.527344,1.828125-.8125,2.96875-.8125Zm0,0"/></g></g></g><g id="coming-soon-s-g90"><g id="coming-soon-s-g91" transform="translate(147.153 137.865)"><g id="coming-soon-s-g92"><path id="coming-soon-s-path37" d="M-8.945312,-17.527344c1.746093,0,3.292968.609375,4.554687,1.828125c1.300781,1.222657,1.949219,2.726563,1.949219,4.476563c0,1.746094-.648438,3.25-1.949219,4.472656-1.261719,1.21875-2.765625,1.828125-4.554687,1.828125-1.75,0-3.253907-.609375-4.554688-1.828125-1.304688-1.222656-1.953125-2.726562-1.953125-4.472656c0-1.75.648437-3.253906,1.953125-4.476563c1.300781-1.21875,2.84375-1.828125,4.554688-1.828125Zm11.386718,12.6875v2.929688c1.910156-.328125,3.578125-1.179688,5-2.644532c1.832032-1.789062,2.726563-3.984374,2.726563-6.546874c0-2.523438-.894531-4.71875-2.726563-6.546876C5.652344,-19.4375,3.457031,-20.375,0.894531,-20.375h-18.789062v2.847656h3.011719c-.164063.164063-.367188.324219-.570313.488282-1.871094,1.789062-2.847656,3.863281-2.847656,6.222656c0,2.519531.976562,4.59375,2.847656,6.300781c1.871094,1.628906,4.027344,2.441406,6.507813,2.441406c2.519531,0,4.675781-.8125,6.503906-2.441406c1.914062-1.707031,2.847656-3.78125,2.847656-6.300781c0-2.441406-.933594-4.515625-2.847656-6.222656-.160156-.164063-.363282-.324219-.527344-.488282h3.863281c1.789063,0,3.292969.648438,4.554688,1.910156s1.871093,2.765626,1.871093,4.515626c0,1.789062-.609374,3.292968-1.871093,4.554687-.894531.894531-1.871094,1.464844-3.007813,1.707031Zm0,0"/></g></g></g><g id="coming-soon-u-c" opacity="0"><g id="coming-soon-s-g93" transform="translate(332.22 363.171)"><g id="coming-soon-s-g94"><path id="coming-soon-s-path38" d="M19.765625,-11.46875c-.570313-1.992188-1.667969-3.617188-3.253906-4.878906-1.667969-1.261719-3.496094-1.914063-5.53125-1.914063-2.5625,0-4.757813.9375-6.507813,2.765625-1.789062,1.832032-2.644531,4.027344-2.644531,6.550782c0,2.558593.855469,4.714843,2.644531,6.585937.8125.855469,1.75,1.546875,2.886719,2.035156c1.097656.488281,2.238281.730469,3.375.730469c1.140625,0,2.15625-.121094,3.050781-.445312c2.847656-1.019532,4.800782-2.929688,5.816406-5.816407h-3.210937c-.570313,1.015625-1.304687,1.828125-2.277344,2.398438-.976562.609375-1.996093.894531-3.132812.894531-1.75,0-3.214844-.609375-4.433594-1.871094s-1.789063-2.765625-1.789063-4.511718c0-1.667969.570313-3.171876,1.789063-4.433594.570313-.570313,1.21875-1.058594,1.992187-1.382813.734376-.324219,1.667969-.53125,2.726563-.53125s2.074219.367188,3.128906,1.058594c1.019531.734375,1.792969,1.628906,2.277344,2.765625Zm0,0"/></g></g></g><g id="coming-soon-u-o" opacity="0"><g id="coming-soon-s-g95" transform="translate(353.407 363.171)"><g id="coming-soon-s-g96"><path id="coming-soon-s-path39" d="M17.691406,-9.027344c0,1.789063-.652344,3.292969-1.914062,4.554688-1.300782,1.300781-2.804688,1.910156-4.59375,1.910156s-3.335938-.609375-4.59375-1.910156c-1.304688-1.261719-1.914063-2.765625-1.914063-4.554688s.609375-3.296875,1.914063-4.597656c1.257812-1.257812,2.804687-1.910156,4.59375-1.910156s3.292968.652344,4.59375,1.910156c1.261718,1.300781,1.914062,2.808594,1.914062,4.597656Zm2.847656,0c0-2.5625-.9375-4.757812-2.765624-6.589844-1.832032-1.828124-4.027344-2.765624-6.589844-2.765624-2.601563,0-4.796875.9375-6.628906,2.765624-1.828126,1.832032-2.726563,4.027344-2.726563,6.589844c0,2.601563.898437,4.796875,2.726563,6.585938c1.832031,1.832031,4.066406,2.726562,6.628906,2.726562c2.519531,0,4.757812-.894531,6.589844-2.726562c1.828124-1.789063,2.765624-3.984375,2.765624-6.585938Zm0,0"/></g></g></g><g id="coming-soon-u-m" opacity="0"><g id="coming-soon-s-g97" transform="translate(375.775 363.171)"><g id="coming-soon-s-g98"><path id="coming-soon-s-path40" d="M25.742188,-0.082031h2.847656v-11.183594c0-1.992187-.527344-3.660156-1.503906-4.960937-.488282-.652344-1.140626-1.136719-1.871094-1.546876-.773438-.40625-1.789063-.609374-3.011719-.609374-1.257813,0-2.355469.367187-3.292969,1.019531-.855468.648437-1.546875,1.421875-2.113281,2.398437-.203125-.449218-.449219-.855468-.734375-1.261718-.488281-.652344-1.136719-1.136719-1.871094-1.546876-.769531-.40625-1.789062-.609374-3.007812-.609374-1.261719,0-2.359375.367187-3.292969,1.019531-.8125.609375-1.464844,1.339843-1.992187,2.277343v-2.890624h-2.847657v17.894531h2.847657v-9.148438c.121093-1.425781.488281-2.683593,1.097656-3.703125.40625-.730468,1.015625-1.382812,1.746094-1.871094.734374-.488281,1.507812-.730468,2.359374-.730468.8125,0,1.464844.164062,1.871094.40625c1.140625.734375,1.75,2.035156,1.75,3.863281v11.183594h2.847656v-11.183594c0-.203125-.042968-.445313-.042968-.648437.121094-.367188.285156-.691407.488281-1.019532.40625-.730468,1.015625-1.382812,1.75-1.871094.730469-.488281,1.503906-.730468,2.359375-.730468.8125,0,1.460938.164062,1.867188.40625c1.140624.734375,1.75,2.035156,1.75,3.863281Zm0,0"/></g></g></g><g id="coming-soon-u-i" opacity="0"><g id="coming-soon-s-g99" transform="translate(406.804 363.171)"><g id="coming-soon-s-g100"><path id="coming-soon-s-path41" d="M5.9375,-24.074219c-.367188-.328125-.8125-.53125-1.300781-.53125s-.9375.203125-1.261719.53125c-.367188.363281-.527344.8125-.527344,1.300781s.160156.933594.527344,1.261719c.324219.363281.773438.527344,1.261719.527344s.933593-.164063,1.300781-.527344c.324219-.328125.527344-.773437.527344-1.261719s-.203125-.9375-.527344-1.300781ZM6.101562,0v-17.894531h-2.847656v17.894531Zm0,0"/></g></g></g><g id="coming-soon-u-n" opacity="0"><g id="coming-soon-s-g101" transform="translate(416.117 363.171)"><g id="coming-soon-s-g102"><path id="coming-soon-s-path42" d="M15.414062,0h2.847657v-11.183594c0-2.074218-.570313-3.742187-1.628907-5.003906-.570312-.648438-1.21875-1.136719-1.992187-1.503906-.8125-.363282-1.832031-.570313-3.089844-.570313-1.300781,0-2.402343.367188-3.375,1.019531-.9375.609376-1.710937,1.421876-2.277343,2.4375v-3.089843h-2.847657v17.894531h2.847657v-7.484375c0-2.277344.40625-4.066406,1.257812-5.40625.488281-.734375,1.097656-1.34375,1.871094-1.832031.734375-.445313,1.75-.691406,2.96875-.691406c1.222656,0,2.074218.449218,2.605468,1.261718.527344.8125.8125,1.828125.8125,2.96875Zm0,0"/></g></g></g><g id="coming-soon-s-g103" opacity="0"><g id="coming-soon-s-g104" transform="translate(436.817 363.171)"><g id="coming-soon-s-g105"><path id="coming-soon-s-path43" d="M17.527344,-8.945312c0,1.746093-.609375,3.292968-1.828125,4.554687-1.222657,1.300781-2.726563,1.949219-4.476563,1.949219-1.746094,0-3.25-.648438-4.472656-1.949219-1.21875-1.261719-1.828125-2.765625-1.828125-4.554687c0-1.75.609375-3.253907,1.828125-4.554688c1.222656-1.304688,2.726562-1.953125,4.472656-1.953125c1.75,0,3.253906.648437,4.476563,1.953125c1.21875,1.300781,1.828125,2.84375,1.828125,4.554688ZM4.839844,2.441406h-2.929688c.328125,1.910156,1.179688,3.578125,2.644532,5c1.789062,1.832032,3.984374,2.726563,6.546874,2.726563c2.523438,0,4.71875-.894531,6.546876-2.726563C19.4375,5.652344,20.375,3.457031,20.375,0.894531v-18.789062h-2.847656v3.011719c-.164063-.164063-.324219-.367188-.488282-.570313-1.789062-1.871094-3.863281-2.847656-6.222656-2.847656-2.519531,0-4.59375.976562-6.300781,2.847656-1.628906,1.871094-2.441406,4.027344-2.441406,6.507813c0,2.519531.8125,4.675781,2.441406,6.503906c1.707031,1.914062,3.78125,2.847656,6.300781,2.847656c2.441406,0,4.515625-.933594,6.222656-2.847656.164063-.160156.324219-.363282.488282-.527344v3.863281c0,1.789063-.648438,3.292969-1.910156,4.554688s-2.765626,1.871093-4.515626,1.871093c-1.789062,0-3.292968-.609374-4.554687-1.871093-.894531-.894531-1.464844-1.871094-1.707031-3.007813Zm0,0"/></g></g></g><g id="coming-soon-u-s" opacity="0"><g id="coming-soon-s-g106" transform="translate(471.222 363.171)"><g id="coming-soon-s-g107"><path id="coming-soon-s-path44" d="M5.613281,-2.519531c-.691406-.488281-1.222656-1.304688-1.503906-2.484375h-3.011719c.609375,3.703125,2.96875,5.53125,7.117188,5.53125.976562,0,1.871094-.078125,2.726562-.324219.851563-.242187,1.585938-.570313,2.277344-1.015625c1.382812-.9375,2.074219-2.359375,2.074219-4.269531c0-1.953125-.898438-3.335938-2.765625-4.230469-.773438-.367188-1.628906-.652344-2.5625-.855469-.894532-.203125-1.75-.445312-2.523438-.691406-.8125-.242187-1.464844-.566406-1.992187-.933594s-.8125-.9375-.8125-1.75.324219-1.421875.976562-1.789062c.648438-.40625,1.421875-.609375,2.277344-.609375.894531,0,1.667969.203125,2.277344.527344.609375.328124,1.097656.976562,1.382812,1.953124h3.050781c-.367187-1.789062-1.140624-3.050781-2.277343-3.742187-1.179688-.730469-2.605469-1.097656-4.351563-1.097656-1.710937,0-3.214844.488281-4.476562,1.382812-1.21875.933594-1.871094,2.277344-1.871094,4.066407c0,.855468.246094,1.628906.691406,2.277343.488282.691407,1.179688,1.21875,2.074219,1.628907.816406.363281,1.667969.648437,2.5625.894531.894531.203125,1.75.445312,2.5625.691406c1.832031.609375,2.765625,1.503906,2.765625,2.640625c0,1.953125-1.300781,2.890625-3.902344,2.890625-1.097656,0-2.035156-.207031-2.765625-.691406Zm0,0"/></g></g></g><g id="coming-soon-u-o2" opacity="0"><g id="coming-soon-s-g108" transform="translate(487.57 363.171)"><g id="coming-soon-s-g109"><path id="coming-soon-s-path45" d="M17.691406,-9.027344c0,1.789063-.652344,3.292969-1.914062,4.554688-1.300782,1.300781-2.804688,1.910156-4.59375,1.910156s-3.335938-.609375-4.59375-1.910156c-1.304688-1.261719-1.914063-2.765625-1.914063-4.554688s.609375-3.296875,1.914063-4.597656c1.257812-1.257812,2.804687-1.910156,4.59375-1.910156s3.292968.652344,4.59375,1.910156c1.261718,1.300781,1.914062,2.808594,1.914062,4.597656Zm2.847656,0c0-2.5625-.9375-4.757812-2.765624-6.589844-1.832032-1.828124-4.027344-2.765624-6.589844-2.765624-2.601563,0-4.796875.9375-6.628906,2.765624-1.828126,1.832032-2.726563,4.027344-2.726563,6.589844c0,2.601563.898437,4.796875,2.726563,6.585938c1.832031,1.832031,4.066406,2.726562,6.628906,2.726562c2.519531,0,4.757812-.894531,6.589844-2.726562c1.828124-1.789063,2.765624-3.984375,2.765624-6.585938Zm0,0"/></g></g></g><g id="coming-soon-u-o3" opacity="0"><g id="coming-soon-s-g110" transform="translate(509.937 363.171)"><g id="coming-soon-s-g111"><path id="coming-soon-s-path46" d="M17.691406,-9.027344c0,1.789063-.652344,3.292969-1.914062,4.554688-1.300782,1.300781-2.804688,1.910156-4.59375,1.910156s-3.335938-.609375-4.59375-1.910156c-1.304688-1.261719-1.914063-2.765625-1.914063-4.554688s.609375-3.296875,1.914063-4.597656c1.257812-1.257812,2.804687-1.910156,4.59375-1.910156s3.292968.652344,4.59375,1.910156c1.261718,1.300781,1.914062,2.808594,1.914062,4.597656Zm2.847656,0c0-2.5625-.9375-4.757812-2.765624-6.589844-1.832032-1.828124-4.027344-2.765624-6.589844-2.765624-2.601563,0-4.796875.9375-6.628906,2.765624-1.828126,1.832032-2.726563,4.027344-2.726563,6.589844c0,2.601563.898437,4.796875,2.726563,6.585938c1.832031,1.832031,4.066406,2.726562,6.628906,2.726562c2.519531,0,4.757812-.894531,6.589844-2.726562c1.828124-1.789063,2.765624-3.984375,2.765624-6.585938Zm0,0"/></g></g></g><g id="coming-soon-u-n2" opacity="0"><g id="coming-soon-s-g112" transform="translate(532.304 363.171)"><g id="coming-soon-s-g113"><path id="coming-soon-s-path47" d="M15.414062,0h2.847657v-11.183594c0-2.074218-.570313-3.742187-1.628907-5.003906-.570312-.648438-1.21875-1.136719-1.992187-1.503906-.8125-.363282-1.832031-.570313-3.089844-.570313-1.300781,0-2.402343.367188-3.375,1.019531-.9375.609376-1.710937,1.421876-2.277343,2.4375v-3.089843h-2.847657v17.894531h2.847657v-7.484375c0-2.277344.40625-4.066406,1.257812-5.40625.488281-.734375,1.097656-1.34375,1.871094-1.832031.734375-.445313,1.75-.691406,2.96875-.691406c1.222656,0,2.074218.449218,2.605468,1.261718.527344.8125.8125,1.828125.8125,2.96875Zm0,0"/></g></g></g></svg>
