<svg id="ektOesdB6m31" xmlns="http://www.w3.org/2000/svg" xmlns:xlink="http://www.w3.org/1999/xlink" viewBox="0 0 72 115" shape-rendering="geometricPrecision" text-rendering="geometricPrecision"><defs><rect id="ektOesdB6m32" width="53.33" height="82.67" rx="0" ry="0"/><rect id="ektOesdB6m33" width="81" height="52" rx="0" ry="0"/><rect id="ektOesdB6m34" width="81" height="52" rx="0" ry="0"/><rect id="ektOesdB6m35" width="81" height="52" rx="0" ry="0"/><rect id="ektOesdB6m36" width="73.33" height="117.33" rx="0" ry="0"/><rect id="ektOesdB6m37" width="135" height="13" rx="0" ry="0"/></defs><g transform="translate(-646.830017-326.869995)"><g><g clip-path="url(#ektOesdB6m328)"><g><g><g clip-path="url(#ektOesdB6m326)"><g><g><g clip-path="url(#ektOesdB6m324)"><g><g><g clip-path="url(#ektOesdB6m322)"><g><path d="M704.82,369.83l-17.38-32.97-19.84,31.56c-2.84,4.29-7.93,14.79-8.15,20.44-.59,15.44,10.56,28.4,24.91,28.95s26.45-11.53,27.05-26.97c.21-5.66-4.08-16.51-6.59-21.01Z"/></g><clipPath id="ektOesdB6m322"><use width="81" height="52" xlink:href="#ektOesdB6m35" transform="matrix(.0381-.9993 0.9993 0.0381 658.4108 416.807105)"/></clipPath></g></g></g><clipPath id="ektOesdB6m324"><use width="81" height="52" xlink:href="#ektOesdB6m34" transform="matrix(.0381-.9993 0.9993 0.0381 658.4108 416.807105)"/></clipPath></g></g></g><clipPath id="ektOesdB6m326"><use width="81" height="52" xlink:href="#ektOesdB6m33" transform="matrix(.0381-.9993 0.9993 0.0381 658.4108 416.807105)"/></clipPath></g></g></g><clipPath id="ektOesdB6m328"><use width="53.329998" height="82.669998" xlink:href="#ektOesdB6m32" transform="translate(658.39 336.36)"/></clipPath></g></g><g><g clip-path="url(#ektOesdB6m339)"><g><g><g clip-path="url(#ektOesdB6m337)"><g><path d="M714.68,332.39L646.83,441.43l1.35.84l71.29-114.56-1.35-.84-3.44,5.52"/></g><clipPath id="ektOesdB6m337"><use width="135" height="13" xlink:href="#ektOesdB6m37" transform="matrix(.5284-.849 0.849 0.5284 641.895626 438.416256)"/></clipPath></g></g></g><clipPath id="ektOesdB6m339"><use width="73.330002" height="117.330002" xlink:href="#ektOesdB6m36" transform="translate(646.39 325.69)"/></clipPath></g></g></g></svg>
