<svg id="eBFy7q20L4k1" xmlns="http://www.w3.org/2000/svg" xmlns:xlink="http://www.w3.org/1999/xlink" viewBox="0 0 61 61" shape-rendering="geometricPrecision" text-rendering="geometricPrecision"><defs><rect id="eBFy7q20L4k2" width="61" height="61" rx="0" ry="0"/></defs><g transform="translate(-652.049988-353.109985)"><g clip-path="url(#eBFy7q20L4k7)"><g><path d="M682.55,414.11c16.84,0,30.5-13.66,30.5-30.5s-13.66-30.5-30.5-30.5-30.5,13.66-30.5,30.5s13.65,30.5,30.5,30.5Zm-13.86-43.48l13.85,11.08l13.85-11.08.4-.33h-28.51l.41.33Zm29.59,2.29l.53-.45v22.97c0,.82-.66,1.48-1.48,1.48h-29.57c-.82,0-1.48-.66-1.48-1.48v-22.97l.53.45.02.02l14.79,11.83c.54.43,1.31.43,1.85,0l14.79-11.83.02-.02Z" clip-rule="evenodd" fill-rule="evenodd"/></g><clipPath id="eBFy7q20L4k7"><use width="61" height="61" xlink:href="#eBFy7q20L4k2" transform="translate(652.05 353.11)"/></clipPath></g></g></svg>
