<?xml version="1.0" encoding="utf-8"?>
<!-- Generator: Adobe Illustrator 24.0.2, SVG Export Plug-In . SVG Version: 6.00 Build 0)  -->
<svg version="1.1" id="Слой_1" xmlns="http://www.w3.org/2000/svg" xmlns:xlink="http://www.w3.org/1999/xlink" x="0px" y="0px"
	 viewBox="0 0 1366 768" style="enable-background:new 0 0 1366 768;" xml:space="preserve">
<style type="text/css">
	.st0{clip-path:url(#SVGID_2_);}
	.st1{fill:#FEFEFE;}
	.st2{clip-path:url(#SVGID_4_);}
	.st3{clip-path:url(#SVGID_6_);}
</style>
<g>
	<defs>
		<rect id="SVGID_1_" x="654.57" y="355.02" width="57" height="57"/>
	</defs>
	<clipPath id="SVGID_2_">
		<use xlink:href="#SVGID_1_"  style="overflow:visible;"/>
	</clipPath>
	<g class="st0">
		<path class="st1" d="M683.07,412c-2.79,0-5.52-0.4-8.18-1.2c-2.67-0.8-5.17-1.97-7.49-3.5l-10.95,3.49l3.55-10.58
			c-1.77-2.43-3.11-5.06-4.04-7.92c-0.93-2.85-1.39-5.78-1.39-8.78c0-15.71,12.78-28.48,28.48-28.48c15.7,0,28.48,12.77,28.48,28.48
			c0,15.71-12.77,28.48-28.48,28.48H683.07z"/>
	</g>
</g>
<g>
	<defs>
		<rect id="SVGID_3_" x="654.57" y="355.02" width="57" height="57"/>
	</defs>
	<clipPath id="SVGID_4_">
		<use xlink:href="#SVGID_3_"  style="overflow:visible;"/>
	</clipPath>
	<g class="st2">
		<g>
			<defs>
				<path id="SVGID_5_" d="M683.07,355.04c-15.71,0-28.48,12.78-28.48,28.48c0,6.23,2.01,12.01,5.43,16.7l-3.55,10.58l10.95-3.5
					c4.51,2.98,9.88,4.7,15.67,4.7c15.71,0,28.48-12.78,28.48-28.48c0-15.71-12.78-28.48-28.48-28.48H683.07L683.07,355.04z"/>
			</defs>
			<clipPath id="SVGID_6_">
				<use xlink:href="#SVGID_5_"  style="overflow:visible;"/>
			</clipPath>
			<g class="st3">
				<path d="M654.58,355.04V412h56.98v-56.96H654.58z"/>
			</g>
		</g>
	</g>
</g>
<path class="st1" d="M675.11,369.5c-0.54-1.32-0.97-1.37-1.81-1.42l-0.96-0.04c-1.08,0-2.22,0.32-2.91,1.02
	c-0.84,0.85-2.92,2.84-2.92,6.93c0,4.08,2.98,8.04,3.39,8.59c0.42,0.54,5.81,9.06,14.19,12.53c6.55,2.71,8.49,2.46,9.98,2.15
	c2.18-0.47,4.91-2.08,5.59-4.02c0.69-1.94,0.69-3.6,0.48-3.95c-0.2-0.35-0.76-0.54-1.59-0.97c-0.83-0.44-4.91-2.43-5.68-2.7
	c-0.75-0.29-1.47-0.18-2.04,0.62c-0.8,1.12-1.59,2.26-2.22,2.94c-0.51,0.54-1.33,0.61-2.01,0.32c-0.92-0.39-3.5-1.29-6.68-4.12
	c-2.46-2.19-4.14-4.92-4.62-5.74c-0.49-0.83-0.05-1.32,0.33-1.78c0.42-0.52,0.82-0.89,1.24-1.37s0.66-0.74,0.92-1.31
	c0.29-0.53,0.08-1.12-0.12-1.54c-0.2-0.42-1.88-4.51-2.56-6.17L675.11,369.5z"/>
</svg>
