<?xml version="1.0" encoding="utf-8"?>
<!-- Generator: Adobe Illustrator 24.0.2, SVG Export Plug-In . SVG Version: 6.00 Build 0)  -->
<svg version="1.1" id="Слой_1" xmlns="http://www.w3.org/2000/svg" xmlns:xlink="http://www.w3.org/1999/xlink" x="0px" y="0px"
	 viewBox="0 0 1366 768" style="enable-background:new 0 0 1366 768;" xml:space="preserve">
<style type="text/css">
	.st0{clip-path:url(#SVGID_2_);}
</style>
<g>
	<path d="M682.55,376.96c-3.66,0-6.65,2.98-6.65,6.65c0,3.66,2.99,6.65,6.65,6.65s6.65-2.99,6.65-6.65
		C689.19,379.95,686.21,376.96,682.55,376.96z"/>
	<path d="M691.48,367.3h-17.87c-4.05,0-7.38,3.3-7.38,7.38v17.87c0,4.05,3.3,7.38,7.38,7.38h17.87c4.05,0,7.38-3.3,7.38-7.38v-17.87
		C698.83,370.6,695.53,367.3,691.48,367.3z M682.55,393.61c-5.53,0-10.03-4.49-10.03-10.03s4.49-10.03,10.03-10.03
		s10.03,4.49,10.03,10.03C692.55,389.12,688.05,393.61,682.55,393.61z M693.27,375.25c-1.32,0-2.41-1.09-2.41-2.41
		c0-1.33,1.09-2.42,2.41-2.42c1.33,0,2.42,1.09,2.42,2.42C695.69,374.18,694.63,375.25,693.27,375.25z"/>
	<g>
		<defs>
			<rect id="SVGID_1_" x="652.55" y="353.61" width="60" height="60"/>
		</defs>
		<clipPath id="SVGID_2_">
			<use xlink:href="#SVGID_1_"  style="overflow:visible;"/>
		</clipPath>
		<g class="st0">
			<path d="M682.55,353.61c-16.57,0-30,13.43-30,30c0,16.57,13.43,30,30,30s30-13.43,30-30
				C712.52,367.04,699.09,353.61,682.55,353.61z M702.21,392.55c0,5.92-4.83,10.75-10.76,10.75h-17.84
				c-5.92,0-10.75-4.83-10.75-10.75v-17.87c0-5.92,4.83-10.76,10.75-10.76h17.87c5.92,0,10.76,4.83,10.76,10.76v17.87H702.21z"/>
		</g>
	</g>
</g>
</svg>
