<?xml version="1.0" encoding="utf-8"?>
<!-- Generator: Adobe Illustrator 24.0.2, SVG Export Plug-In . SVG Version: 6.00 Build 0)  -->
<svg version="1.1" id="Слой_1" xmlns="http://www.w3.org/2000/svg" xmlns:xlink="http://www.w3.org/1999/xlink" x="0px" y="0px"
	 viewBox="0 0 1366 768" style="enable-background:new 0 0 1366 768;" xml:space="preserve">
<style type="text/css">
	.st0{clip-path:url(#SVGID_2_);}
	.st1{fill-rule:evenodd;clip-rule:evenodd;}
</style>
<g>
	<defs>
		<rect id="SVGID_1_" x="652.05" y="353.11" width="61" height="61"/>
	</defs>
	<clipPath id="SVGID_2_">
		<use xlink:href="#SVGID_1_"  style="overflow:visible;"/>
	</clipPath>
	<g class="st0">
		<path class="st1" d="M682.55,414.11c16.84,0,30.5-13.66,30.5-30.5s-13.66-30.5-30.5-30.5s-30.5,13.66-30.5,30.5
			S665.7,414.11,682.55,414.11z M668.69,370.63l13.85,11.08l13.85-11.08l0.4-0.33h-28.51L668.69,370.63z M698.28,372.92l0.53-0.45
			v22.97c0,0.82-0.66,1.48-1.48,1.48h-29.57c-0.82,0-1.48-0.66-1.48-1.48v-22.97l0.53,0.45l0.02,0.02l14.79,11.83
			c0.54,0.43,1.31,0.43,1.85,0l14.79-11.83L698.28,372.92z"/>
	</g>
</g>
</svg>
