<?xml version="1.0" encoding="utf-8"?>
<!-- Generator: Adobe Illustrator 24.0.2, SVG Export Plug-In . SVG Version: 6.00 Build 0)  -->
<svg version="1.1" id="Слой_1" xmlns="http://www.w3.org/2000/svg" xmlns:xlink="http://www.w3.org/1999/xlink" x="0px" y="0px"
	 viewBox="0 0 1366 768" style="enable-background:new 0 0 1366 768;" xml:space="preserve">
<g>
	<g>
		<g transform="translate(147.153406, 541.573361)">
			<g>
				<path d="M549.46,118.83H508.8v3.8h40.67V118.83z"/>
			</g>
		</g>
	</g>
	<g>
		<g transform="translate(147.153406, 532.626473)">
			<g>
				<path d="M537.54,100.67c2.33,0,4.39,0.82,6.07,2.44c1.73,1.63,2.6,3.63,2.6,5.96c0,2.39-0.86,4.39-2.6,6.02
					c-1.68,1.63-3.74,2.39-6.07,2.39c-2.28,0-4.34-0.76-6.07-2.39c-1.74-1.63-2.6-3.64-2.6-6.02c0-2.33,0.86-4.34,2.6-5.96
					C533.2,101.49,535.26,100.67,537.54,100.67z M549.46,96.88h-23.86v3.79h4.12c-0.32,0.22-0.59,0.49-0.86,0.71
					c-2.49,2.28-3.8,5.04-3.8,8.3c0,3.31,1.3,6.07,3.8,8.35c2.49,2.17,5.37,3.26,8.68,3.26c3.36,0,6.23-1.09,8.67-3.26
					c2.55-2.28,3.8-5.04,3.8-8.35c0-3.26-1.24-6.02-3.8-8.3c-0.21-0.22-0.48-0.49-0.81-0.71h4.07V96.88z"/>
			</g>
		</g>
	</g>
	<g>
		<g transform="translate(147.153406, 509.445884)">
			<g>
				<path d="M549.46,95.44v-3.8h-14.91c-2.77,0-4.99,0.76-6.67,2.17c-0.86,0.76-1.52,1.63-2.01,2.66c-0.48,1.08-0.76,2.44-0.76,4.12
					c0,1.73,0.49,3.2,1.36,4.5c0.81,1.25,1.9,2.28,3.25,3.04h-4.12v3.8h23.86v-3.8h-9.98c-3.04,0-5.42-0.54-7.21-1.68
					c-0.98-0.65-1.79-1.46-2.44-2.49c-0.59-0.98-0.92-2.33-0.92-3.96c0-1.63,0.6-2.77,1.68-3.47c1.08-0.7,2.44-1.08,3.96-1.08
					H549.46z"/>
			</g>
		</g>
	</g>
	<g>
		<g transform="translate(147.153406, 488.746046)">
			<g>
				<path d="M537.54,86.04c2.33,0,4.39,0.82,6.07,2.44c1.73,1.63,2.6,3.63,2.6,5.96c0,2.39-0.86,4.39-2.6,6.02
					c-1.68,1.63-3.74,2.39-6.07,2.39c-2.28,0-4.34-0.76-6.07-2.39c-1.74-1.63-2.6-3.64-2.6-6.02c0-2.33,0.86-4.34,2.6-5.96
					C533.2,86.86,535.26,86.04,537.54,86.04z M549.46,82.25H508.8v3.79h20.93c-0.32,0.22-0.59,0.49-0.86,0.71
					c-2.49,2.28-3.8,5.04-3.8,8.3c0,3.31,1.3,6.07,3.8,8.35c2.49,2.17,5.37,3.26,8.68,3.26c3.36,0,6.23-1.09,8.67-3.26
					c2.55-2.28,3.8-5.04,3.8-8.35c0-3.26-1.24-6.02-3.8-8.3c-0.21-0.22-0.48-0.49-0.81-0.71h4.07V82.25z"/>
			</g>
		</g>
	</g>
	<g>
		<g transform="translate(147.153406, 465.565457)">
			<g>
				<path d="M546.11,93.88c-0.65,0.92-1.74,1.63-3.31,2.01v4.02c4.94-0.81,7.38-3.96,7.38-9.49c0-1.3-0.1-2.49-0.43-3.64
					c-0.32-1.14-0.76-2.11-1.35-3.04c-1.25-1.84-3.15-2.77-5.69-2.77c-2.6,0-4.45,1.2-5.64,3.69c-0.49,1.03-0.87,2.17-1.14,3.42
					c-0.27,1.19-0.59,2.33-0.92,3.36c-0.32,1.08-0.76,1.95-1.24,2.66s-1.25,1.08-2.33,1.08c-1.08,0-1.9-0.43-2.39-1.3
					c-0.54-0.86-0.81-1.9-0.81-3.04c0-1.19,0.27-2.22,0.7-3.04c0.44-0.81,1.3-1.46,2.6-1.84v-4.07c-2.39,0.49-4.07,1.52-4.99,3.04
					c-0.97,1.57-1.46,3.47-1.46,5.8c0,2.28,0.65,4.29,1.84,5.97c1.24,1.63,3.04,2.49,5.42,2.49c1.14,0,2.17-0.33,3.04-0.92
					c0.92-0.65,1.63-1.57,2.17-2.77c0.48-1.09,0.86-2.22,1.19-3.42c0.27-1.19,0.59-2.33,0.92-3.42c0.81-2.44,2.01-3.69,3.52-3.69
					c2.6,0,3.85,1.73,3.85,5.2C547.03,91.65,546.75,92.9,546.11,93.88z"/>
			</g>
		</g>
	</g>
	<g>
		<g transform="translate(147.153406, 449.217038)">
			<g>
				<path d="M534.17,69.56c-2.66,0.76-4.82,2.22-6.51,4.34c-1.68,2.22-2.55,4.66-2.55,7.38c0,3.42,1.25,6.34,3.69,8.68
					c2.44,2.39,5.37,3.53,8.73,3.53c3.41,0,6.29-1.14,8.78-3.53c1.14-1.08,2.06-2.33,2.71-3.85c0.65-1.46,0.97-2.98,0.97-4.5
					c0-1.52-0.16-2.88-0.59-4.07c-1.36-3.8-3.91-6.4-7.76-7.76v4.28c1.35,0.76,2.44,1.74,3.2,3.04c0.81,1.3,1.19,2.66,1.19,4.18
					c0,2.33-0.81,4.29-2.49,5.91s-3.69,2.39-6.02,2.39c-2.22,0-4.23-0.76-5.91-2.39c-0.76-0.76-1.41-1.63-1.84-2.66
					c-0.43-0.98-0.71-2.22-0.71-3.64s0.49-2.77,1.41-4.17c0.98-1.36,2.17-2.39,3.69-3.04V69.56z"/>
			</g>
		</g>
	</g>
	<g>
		<g transform="translate(147.153406, 428.029187)">
			<g>
				<path d="M537.54,65.8c2.33,0,4.39,0.82,6.07,2.44c1.73,1.63,2.6,3.63,2.6,5.96c0,2.39-0.86,4.39-2.6,6.02
					c-1.68,1.63-3.74,2.39-6.07,2.39c-2.28,0-4.34-0.76-6.07-2.39c-1.74-1.63-2.6-3.64-2.6-6.02c0-2.33,0.86-4.34,2.6-5.96
					C533.2,66.62,535.26,65.8,537.54,65.8z M549.46,62.01h-23.86v3.79h4.12c-0.32,0.22-0.59,0.49-0.86,0.71
					c-2.49,2.28-3.8,5.04-3.8,8.3c0,3.31,1.3,6.07,3.8,8.35c2.49,2.17,5.37,3.26,8.68,3.26c3.36,0,6.23-1.09,8.67-3.26
					c2.55-2.28,3.8-5.04,3.8-8.35c0-3.26-1.24-6.02-3.8-8.3c-0.21-0.22-0.48-0.49-0.81-0.71h4.07V62.01z"/>
			</g>
		</g>
	</g>
	<g>
		<g transform="translate(147.153406, 404.848599)">
			<g>
				<path d="M563.02,73.26H545.4c0.33-0.16,0.6-0.43,0.81-0.65c2.55-2.28,3.8-5.04,3.8-8.35c0-3.25-1.24-6.02-3.8-8.3
					c-2.44-2.17-5.31-3.31-8.67-3.31c-3.31,0-6.18,1.14-8.68,3.31c-2.49,2.28-3.8,5.05-3.8,8.3c0,3.31,1.3,6.07,3.8,8.35
					c0.27,0.22,0.54,0.49,0.86,0.65h-4.12v3.8h37.42V73.26z M537.54,56.45c2.33,0,4.39,0.81,6.07,2.44c1.73,1.63,2.6,3.63,2.6,5.96
					c0,2.39-0.86,4.39-2.6,6.02c-1.68,1.63-3.74,2.39-6.07,2.39c-2.28,0-4.34-0.76-6.07-2.39c-1.74-1.63-2.6-3.63-2.6-6.02
					c0-2.33,0.86-4.34,2.6-5.96C533.2,57.26,535.26,56.45,537.54,56.45z"/>
			</g>
		</g>
	</g>
	<g>
		<g transform="translate(147.153406, 381.66801)">
			<g>
				<path d="M536.99,46.01c-3.25,0-6.07,1.3-8.51,3.8c-2.33,2.44-3.53,5.37-3.53,8.68c0,3.47,1.25,6.4,3.69,8.84
					c2.44,2.44,5.37,3.64,8.79,3.64c3.47,0,6.4-1.2,8.78-3.64c1.14-1.14,2.01-2.44,2.66-3.96c0.65-1.52,0.98-3.31,0.98-5.42
					c0-2.11-0.65-4.18-1.95-6.23c-1.3-2.06-3.15-3.58-5.42-4.61v4.34c1.14,0.86,2.01,1.9,2.66,3.14c0.65,1.25,0.92,2.55,0.92,3.91
					c0,2.06-0.65,3.91-2.01,5.53c-1.3,1.63-2.98,2.66-5.04,2.98V46.01H536.99z M535.75,50.03v16.92c-0.97-0.22-1.9-0.59-2.77-1.14
					c-2.82-1.73-4.23-4.17-4.23-7.32c0-2.01,0.65-3.8,1.95-5.37C532.06,51.49,533.74,50.52,535.75,50.03z"/>
			</g>
		</g>
	</g>
	<g>
		<g transform="translate(147.153406, 359.504135)">
			<g>
				<path d="M546.11,58.52c-0.65,0.92-1.74,1.63-3.31,2.01v4.02c4.94-0.81,7.38-3.96,7.38-9.49c0-1.3-0.1-2.49-0.43-3.64
					c-0.32-1.14-0.76-2.11-1.35-3.04c-1.25-1.84-3.15-2.77-5.69-2.77c-2.6,0-4.45,1.2-5.64,3.69c-0.49,1.03-0.87,2.17-1.14,3.42
					c-0.27,1.19-0.59,2.33-0.92,3.36c-0.32,1.08-0.76,1.95-1.24,2.66s-1.25,1.08-2.33,1.08c-1.08,0-1.9-0.43-2.39-1.3
					c-0.54-0.86-0.81-1.9-0.81-3.04c0-1.19,0.27-2.22,0.7-3.04c0.44-0.81,1.3-1.46,2.6-1.84v-4.07c-2.39,0.49-4.07,1.52-4.99,3.04
					c-0.97,1.57-1.46,3.47-1.46,5.8c0,2.28,0.65,4.29,1.84,5.97c1.24,1.63,3.04,2.49,5.42,2.49c1.14,0,2.17-0.33,3.04-0.92
					c0.92-0.65,1.63-1.57,2.17-2.77c0.48-1.09,0.86-2.22,1.19-3.42c0.27-1.19,0.59-2.33,0.92-3.42c0.81-2.44,2.01-3.69,3.52-3.69
					c2.6,0,3.85,1.73,3.85,5.2C547.03,56.3,546.75,57.55,546.11,58.52z"/>
			</g>
		</g>
	</g>
	<g>
		<g transform="translate(147.153406, 332.175429)">
			<g>
				<path d="M530.76,42.64l10.36-8.08c0.54,0.54,1.14,1.14,1.73,1.79c2.28,2.39,3.36,4.61,3.36,6.56c0,1.84-0.7,3.47-2.17,4.77
					c-1.41,1.3-3.04,1.95-4.88,1.95c-1.52,0-3.15-0.87-4.93-2.66C533.41,46.16,532.28,44.75,530.76,42.64z M524.74,42.96
					c-1.68,1.63-3.26,2.39-4.88,2.39c-1.57,0-2.71-0.43-3.47-1.35c-0.7-0.86-1.03-1.9-0.97-2.98c0.05-1.09,0.43-2.11,1.19-3.04
					c0.76-0.87,1.84-1.36,3.15-1.36c1.35,0,2.6,0.6,3.74,1.73c0.54,0.55,0.98,1.09,1.41,1.68c0.43,0.6,0.81,1.14,1.19,1.68
					C525.66,42.15,525.17,42.53,524.74,42.96z M535.09,24.63l-2.06,3.09l2.6,2.06c0.87,0.7,1.73,1.41,2.6,2.11l-9.71,7.59
					c-0.54-0.65-1.08-1.41-1.73-2.17c-2.33-2.82-4.72-4.23-7.1-4.23c-2.22,0-4.06,0.76-5.53,2.28c-1.41,1.46-2.11,3.31-2.11,5.58
					c0,2.39,0.76,4.34,2.28,5.75c1.52,1.46,3.42,2.17,5.69,2.17s4.93-1.3,7.92-3.9c0.81,1.08,1.57,2.17,2.33,3.14
					c2.55,3.53,5.64,5.26,9.16,5.26c3.09,0,5.64-0.97,7.7-3.04c0.98-0.97,1.68-2.11,2.22-3.42c0.54-1.3,0.76-2.82,0.76-4.5
					c0-1.73-0.65-3.63-2.06-5.85c-0.65-1.14-1.9-2.55-3.74-4.39l5.26-4.02l-0.11-4.99l-8.3,6.34
					C537.91,26.81,535.86,25.18,535.09,24.63z"/>
			</g>
		</g>
	</g>
	<g>
		<g transform="translate(147.153406, 293.175123)">
			<g>
				<path d="M537.54,20.53c2.33,0,4.39,0.81,6.07,2.44c1.73,1.63,2.6,3.64,2.6,5.97c0,2.33-0.86,4.33-2.6,5.96
					c-1.68,1.63-3.69,2.44-6.07,2.44c-2.33,0-4.34-0.81-6.07-2.44c-1.74-1.63-2.6-3.64-2.6-5.96c0-2.33,0.86-4.34,2.6-5.97
					C533.2,21.34,535.26,20.53,537.54,20.53z M552.72,37.45v3.91c2.55-0.44,4.77-1.57,6.67-3.53c2.44-2.39,3.64-5.31,3.64-8.73
					c0-3.36-1.19-6.29-3.64-8.73c-2.39-2.39-5.31-3.64-8.73-3.64h-25.05v3.8h4.02c-0.22,0.22-0.49,0.43-0.76,0.65
					c-2.49,2.39-3.8,5.15-3.8,8.3c0,3.36,1.3,6.13,3.8,8.4c2.49,2.17,5.37,3.26,8.68,3.26c3.36,0,6.23-1.08,8.67-3.26
					c2.55-2.28,3.8-5.04,3.8-8.4c0-3.26-1.24-6.02-3.8-8.3c-0.21-0.22-0.48-0.43-0.7-0.65h5.15c2.39,0,4.39,0.86,6.07,2.55
					c1.68,1.68,2.49,3.69,2.49,6.02c0,2.39-0.81,4.39-2.49,6.07C555.54,36.36,554.24,37.12,552.72,37.45z"/>
			</g>
		</g>
	</g>
	<g>
		<g transform="translate(147.153406, 269.750543)">
			<g>
				<path d="M537.54,13.04c2.33,0,4.39,0.82,6.07,2.44c1.73,1.62,2.6,3.63,2.6,5.96c0,2.39-0.86,4.39-2.6,6.02
					c-1.68,1.63-3.74,2.39-6.07,2.39c-2.28,0-4.34-0.76-6.07-2.39c-1.74-1.63-2.6-3.64-2.6-6.02c0-2.33,0.86-4.34,2.6-5.96
					C533.2,13.86,535.26,13.04,537.54,13.04z M549.46,9.25h-23.86v3.79h4.12c-0.32,0.22-0.59,0.49-0.86,0.71
					c-2.49,2.28-3.8,5.04-3.8,8.3c0,3.31,1.3,6.07,3.8,8.35c2.49,2.17,5.37,3.26,8.68,3.26c3.36,0,6.23-1.09,8.67-3.26
					c2.55-2.28,3.8-5.04,3.8-8.35c0-3.26-1.24-6.02-3.8-8.3c-0.21-0.22-0.48-0.49-0.81-0.71h4.07V9.25z"/>
			</g>
		</g>
	</g>
	<g>
		<g transform="translate(147.153406, 246.569955)">
			<g>
				<path d="M530.54,12.04h-4.94c-0.32,0.76-0.49,1.57-0.49,2.39c0,2.71,1.52,4.67,4.45,5.91l0.98,0.16h-4.94v3.8h23.86v-3.8h-11.93
					c-1.95,0-3.69-0.43-5.26-1.35c-0.81-0.43-1.52-1.03-2.06-1.73c-0.54-0.7-0.86-1.57-0.86-2.55
					C529.35,13.88,529.78,12.96,530.54,12.04z"/>
			</g>
		</g>
	</g>
	<g>
		<g transform="translate(147.153406, 233.922301)">
			<g>
				<path d="M537.54,1.1c2.33,0,4.39,0.82,6.07,2.44c1.73,1.63,2.6,3.63,2.6,5.96c0,2.39-0.86,4.39-2.6,6.02
					c-1.68,1.63-3.74,2.39-6.07,2.39c-2.28,0-4.34-0.76-6.07-2.39c-1.74-1.63-2.6-3.64-2.6-6.02c0-2.33,0.86-4.34,2.6-5.96
					C533.2,1.92,535.26,1.1,537.54,1.1z M549.46-2.69H508.8V1.1h20.93c-0.32,0.22-0.59,0.49-0.86,0.71c-2.49,2.28-3.8,5.04-3.8,8.3
					c0,3.31,1.3,6.07,3.8,8.35c2.49,2.17,5.37,3.26,8.68,3.26c3.36,0,6.23-1.09,8.67-3.26c2.55-2.28,3.8-5.04,3.8-8.35
					c0-3.26-1.24-6.02-3.8-8.3c-0.21-0.22-0.48-0.49-0.81-0.71h4.07V-2.69z"/>
			</g>
		</g>
	</g>
	<g>
		<g transform="translate(147.153406, 210.741713)">
			<g>
				<path d="M536.99-10.96c-3.25,0-6.07,1.3-8.51,3.8c-2.33,2.44-3.53,5.37-3.53,8.68c0,3.47,1.25,6.4,3.69,8.84
					c2.44,2.44,5.37,3.64,8.79,3.64c3.47,0,6.4-1.2,8.78-3.64c1.14-1.14,2.01-2.44,2.66-3.96c0.65-1.52,0.98-3.31,0.98-5.42
					s-0.65-4.18-1.95-6.23c-1.3-2.06-3.15-3.58-5.42-4.61v4.34c1.14,0.86,2.01,1.9,2.66,3.14c0.65,1.25,0.92,2.55,0.92,3.91
					c0,2.06-0.65,3.91-2.01,5.53c-1.3,1.62-2.98,2.66-5.04,2.98v-20.99H536.99z M535.75-6.95V9.97c-0.97-0.22-1.9-0.59-2.77-1.14
					c-2.82-1.73-4.23-4.17-4.23-7.32c0-2.01,0.65-3.8,1.95-5.37C532.06-5.49,533.74-6.46,535.75-6.95z"/>
			</g>
		</g>
	</g>
	<g>
		<g transform="translate(147.153406, 188.577838)">
			<g>
				<path d="M549.46-11.52v-3.8h-14.91c-2.77,0-4.99,0.76-6.67,2.17c-0.86,0.76-1.52,1.63-2.01,2.66c-0.48,1.08-0.76,2.44-0.76,4.12
					c0,1.73,0.49,3.2,1.36,4.5c0.81,1.25,1.9,2.28,3.25,3.04h-4.12v3.8h23.86v-3.8h-9.98c-3.04,0-5.42-0.54-7.21-1.68
					c-0.98-0.65-1.79-1.46-2.44-2.49c-0.59-0.98-0.92-2.33-0.92-3.96c0-1.63,0.6-2.77,1.68-3.47c1.08-0.7,2.44-1.08,3.96-1.08
					H549.46z"/>
			</g>
		</g>
	</g>
	<g>
		<g transform="translate(147.153406, 167.878)">
			<g>
				<path d="M517.37-5.78c-0.44,0.49-0.71,1.08-0.71,1.73s0.27,1.25,0.71,1.68c0.48,0.49,1.08,0.7,1.73,0.7s1.24-0.21,1.68-0.7
					c0.48-0.43,0.7-1.03,0.7-1.68s-0.22-1.24-0.7-1.73c-0.44-0.43-1.03-0.7-1.68-0.7S517.85-6.22,517.37-5.78z M549.46-6h-23.86v3.8
					h23.86V-6z"/>
			</g>
		</g>
	</g>
	<g>
		<g transform="translate(147.153406, 158.56511)">
			<g>
				<path d="M549.46-21.52v-3.8h-14.91c-2.77,0-4.99,0.76-6.67,2.17c-0.86,0.76-1.52,1.63-2.01,2.66c-0.48,1.08-0.76,2.44-0.76,4.12
					c0,1.73,0.49,3.2,1.36,4.5c0.81,1.25,1.9,2.28,3.25,3.04h-4.12v3.8h23.86v-3.8h-9.98c-3.04,0-5.42-0.54-7.21-1.68
					c-0.98-0.65-1.79-1.46-2.44-2.49c-0.59-0.98-0.92-2.33-0.92-3.96c0-1.63,0.6-2.77,1.68-3.47c1.08-0.7,2.44-1.08,3.96-1.08
					H549.46z"/>
			</g>
		</g>
	</g>
	<g>
		<g transform="translate(147.153406, 137.865271)">
			<g>
				<path d="M537.54-31.24c2.33,0,4.39,0.81,6.07,2.44c1.73,1.63,2.6,3.64,2.6,5.97c0,2.33-0.86,4.33-2.6,5.96
					c-1.68,1.63-3.69,2.44-6.07,2.44c-2.33,0-4.34-0.81-6.07-2.44c-1.74-1.63-2.6-3.64-2.6-5.96c0-2.33,0.86-4.34,2.6-5.97
					C533.2-30.43,535.26-31.24,537.54-31.24z M552.72-14.32v3.91c2.55-0.44,4.77-1.57,6.67-3.53c2.44-2.39,3.64-5.31,3.64-8.73
					c0-3.36-1.19-6.29-3.64-8.73c-2.39-2.39-5.31-3.64-8.73-3.64h-25.05v3.8h4.02c-0.22,0.22-0.49,0.43-0.76,0.65
					c-2.49,2.39-3.8,5.15-3.8,8.3c0,3.36,1.3,6.13,3.8,8.4c2.49,2.17,5.37,3.26,8.68,3.26c3.36,0,6.23-1.08,8.67-3.26
					c2.55-2.28,3.8-5.04,3.8-8.4c0-3.26-1.24-6.02-3.8-8.3c-0.21-0.22-0.48-0.43-0.7-0.65h5.15c2.39,0,4.39,0.86,6.07,2.55
					c1.68,1.68,2.49,3.69,2.49,6.02c0,2.39-0.81,4.39-2.49,6.07C555.54-15.41,554.24-14.65,552.72-14.32z"/>
			</g>
		</g>
	</g>
</g>
</svg>
