<?xml version="1.0" encoding="utf-8"?>
<!-- Generator: Adobe Illustrator 24.0.2, SVG Export Plug-In . SVG Version: 6.00 Build 0)  -->
<svg version="1.1" id="Слой_1" xmlns="http://www.w3.org/2000/svg" xmlns:xlink="http://www.w3.org/1999/xlink" x="0px" y="0px"
	 viewBox="0 0 1366 768" style="enable-background:new 0 0 1366 768;" xml:space="preserve">
<style type="text/css">
	.st0{clip-path:url(#SVGID_2_);}
	.st1{clip-path:url(#SVGID_4_);}
	.st2{clip-path:url(#SVGID_6_);}
	.st3{clip-path:url(#SVGID_8_);}
	.st4{clip-path:url(#SVGID_10_);}
	.st5{clip-path:url(#SVGID_12_);}
</style>
<g>
	<defs>
		<rect id="SVGID_1_" x="658.39" y="336.36" width="53.33" height="82.67"/>
	</defs>
	<clipPath id="SVGID_2_">
		<use xlink:href="#SVGID_1_"  style="overflow:visible;"/>
	</clipPath>
	<g class="st0">
		<g>
			<defs>
				
					<rect id="SVGID_3_" x="645.4" y="351.32" transform="matrix(0.0381 -0.9993 0.9993 0.0381 282.7466 1048.3669)" width="81" height="52"/>
			</defs>
			<clipPath id="SVGID_4_">
				<use xlink:href="#SVGID_3_"  style="overflow:visible;"/>
			</clipPath>
			<g class="st1">
				<g>
					<defs>
						
							<rect id="SVGID_5_" x="645.4" y="351.32" transform="matrix(0.0381 -0.9993 0.9993 0.0381 282.7466 1048.3669)" width="81" height="52"/>
					</defs>
					<clipPath id="SVGID_6_">
						<use xlink:href="#SVGID_5_"  style="overflow:visible;"/>
					</clipPath>
					<g class="st2">
						<g>
							<defs>
								
									<rect id="SVGID_7_" x="645.4" y="351.32" transform="matrix(0.0381 -0.9993 0.9993 0.0381 282.7466 1048.3669)" width="81" height="52"/>
							</defs>
							<clipPath id="SVGID_8_">
								<use xlink:href="#SVGID_7_"  style="overflow:visible;"/>
							</clipPath>
							<g class="st3">
								<path d="M704.82,369.83l-17.38-32.97l-19.84,31.56c-2.84,4.29-7.93,14.79-8.15,20.44c-0.59,15.44,10.56,28.4,24.91,28.95
									c14.35,0.55,26.45-11.53,27.05-26.97C711.62,385.18,707.33,374.33,704.82,369.83z"/>
							</g>
						</g>
					</g>
				</g>
			</g>
		</g>
	</g>
</g>
<g>
	<defs>
		<rect id="SVGID_9_" x="646.39" y="325.69" width="73.33" height="117.33"/>
	</defs>
	<clipPath id="SVGID_10_">
		<use xlink:href="#SVGID_9_"  style="overflow:visible;"/>
	</clipPath>
	<g class="st4">
		<g>
			<defs>
				
					<rect id="SVGID_11_" x="615.56" y="378.02" transform="matrix(0.5284 -0.849 0.849 0.5284 -4.3054 761.2811)" width="135" height="13"/>
			</defs>
			<clipPath id="SVGID_12_">
				<use xlink:href="#SVGID_11_"  style="overflow:visible;"/>
			</clipPath>
			<g class="st5">
				<path d="M714.68,332.39l-67.85,109.04l1.35,0.84l71.29-114.56l-1.35-0.84L714.68,332.39"/>
			</g>
		</g>
	</g>
</g>
</svg>
