<?xml version="1.0" encoding="utf-8"?>
<!-- Generator: Adobe Illustrator 24.0.2, SVG Export Plug-In . SVG Version: 6.00 Build 0)  -->
<svg version="1.1" id="Слой_1" xmlns="http://www.w3.org/2000/svg" xmlns:xlink="http://www.w3.org/1999/xlink" x="0px" y="0px"
	 viewBox="0 0 1366 768" style="enable-background:new 0 0 1366 768;" xml:space="preserve">
<style type="text/css">
	.st0{clip-path:url(#SVGID_2_);}
</style>
<g>
	<g>
		<g transform="translate(573.937137, 390.541729)">
			<g>
				<path d="M-35.48,37.84c19.36,0,31.26-12.28,31.26-32.15v-57.58h-9.36v57.2c0,15.19-8.48,24.05-21.9,24.05
					c-13.41,0-21.77-8.86-21.77-24.05v-57.2h-9.36V5.69C-66.61,25.56-54.71,37.84-35.48,37.84z"/>
			</g>
		</g>
	</g>
	<g>
		<g transform="translate(656.127486, 390.541729)">
			<g>
				<path d="M-27.7,36.7v-70.74L18.75,36.7h7.84v-88.58h-9.36v70.11l-46.06-70.11h-8.23V36.7H-27.7z"/>
			</g>
		</g>
	</g>
	<g>
		<g transform="translate(742.49365, 390.541729)">
			<g>
				<path d="M51.84,36.7L27.92,3.54c15.06-2.79,23.29-12.4,23.29-27.33c0-18.22-12.15-28.09-32.4-28.09H-8.27V36.7h9.36V4.3h16.07
					l23.29,32.4H51.84z M18.56-43.41c14.94,0,23.16,6.83,23.16,19.61c0,13.41-8.48,19.74-23.29,19.74H1.09v-39.35H18.56z"/>
			</g>
		</g>
	</g>
	<g>
		<g transform="translate(821.741921, 390.541729)">
			<g>
				<path d="M86.61,36.7L53.33-51.89h-9.99L10.05,36.7h9.74l7.97-21.26h41.13l7.84,21.26H86.61z M48.26-39.87L65.73,6.96h-34.8
					L48.26-39.87z"/>
			</g>
		</g>
	</g>
	<g>
		<g transform="translate(905.640554, 390.541729)">
			<g>
				<path d="M55.48,36.7v-88.58h-9.36V36.7H55.48z"/>
			</g>
		</g>
	</g>
	<g>
		<g transform="translate(951.292539, 390.541729)">
			<g>
				<path d="M70.69,36.7v-70.74l46.45,70.74h7.84v-88.58h-9.36v70.11L69.56-51.89h-8.23V36.7H70.69z"/>
			</g>
		</g>
	</g>
	<g>
		<g transform="translate(1037.658716, 390.541729)">
			<g>
				<path d="M139.47-51.89L115.55-4.18L91.51-51.89H81.39l29.36,58.34V36.7h9.49V6.45l29.36-58.34H139.47z"/>
			</g>
		</g>
	</g>
	<g>
		<defs>
			<rect id="SVGID_1_" x="477.36" y="387.85" width="235" height="5.33"/>
		</defs>
		<clipPath id="SVGID_2_">
			<use xlink:href="#SVGID_1_"  style="overflow:visible;"/>
		</clipPath>
		<g class="st0">
			<path d="M700.5,389.04H477.4v2.81h234.93v-2.81H700.5"/>
		</g>
	</g>
	<g>
		<g transform="translate(332.219522, 363.17059)">
			<g>
				<path d="M-129.43,12.28c-0.76-2.66-2.22-4.82-4.34-6.51c-2.22-1.68-4.66-2.55-7.38-2.55c-3.42,0-6.34,1.25-8.68,3.69
					c-2.39,2.44-3.53,5.37-3.53,8.73c0,3.41,1.14,6.29,3.53,8.78c1.08,1.14,2.33,2.06,3.85,2.71c1.46,0.65,2.98,0.97,4.5,0.97
					c1.52,0,2.88-0.16,4.07-0.59c3.8-1.36,6.4-3.91,7.76-7.76h-4.28c-0.76,1.35-1.74,2.44-3.04,3.2c-1.3,0.81-2.66,1.19-4.18,1.19
					c-2.33,0-4.29-0.81-5.91-2.49c-1.63-1.68-2.39-3.69-2.39-6.02c0-2.22,0.76-4.23,2.39-5.91c0.76-0.76,1.63-1.41,2.66-1.84
					c0.98-0.43,2.22-0.71,3.64-0.71c1.41,0,2.77,0.49,4.17,1.41c1.36,0.98,2.39,2.17,3.04,3.69H-129.43z"/>
			</g>
		</g>
	</g>
	<g>
		<g transform="translate(353.407372, 363.17059)">
			<g>
				<path d="M-125.13,15.54c0,2.39-0.87,4.39-2.55,6.07c-1.73,1.73-3.74,2.55-6.12,2.55c-2.39,0-4.45-0.81-6.13-2.55
					c-1.74-1.68-2.55-3.69-2.55-6.07s0.81-4.4,2.55-6.13c1.68-1.68,3.74-2.55,6.13-2.55c2.39,0,4.39,0.87,6.12,2.55
					C-126,11.14-125.13,13.15-125.13,15.54z M-121.34,15.54c0-3.42-1.25-6.34-3.69-8.79c-2.44-2.44-5.37-3.69-8.79-3.69
					c-3.47,0-6.4,1.25-8.84,3.69c-2.44,2.44-3.64,5.37-3.64,8.79c0,3.47,1.2,6.4,3.64,8.78c2.44,2.44,5.42,3.64,8.84,3.64
					c3.36,0,6.34-1.19,8.79-3.64C-122.59,21.93-121.34,19-121.34,15.54z"/>
			</g>
		</g>
	</g>
	<g>
		<g transform="translate(375.774607, 363.17059)">
			<g>
				<path d="M-106.94,27.46h3.8V12.55c0-2.66-0.7-4.88-2.01-6.61c-0.65-0.87-1.52-1.52-2.49-2.06c-1.03-0.54-2.39-0.81-4.02-0.81
					c-1.68,0-3.14,0.49-4.39,1.36c-1.14,0.86-2.06,1.9-2.82,3.2c-0.27-0.6-0.6-1.14-0.98-1.68c-0.65-0.87-1.52-1.52-2.49-2.06
					c-1.03-0.54-2.39-0.81-4.01-0.81c-1.68,0-3.15,0.49-4.39,1.36c-1.08,0.81-1.95,1.79-2.66,3.04V3.6h-3.8v23.86h3.8v-12.2
					c0.16-1.9,0.65-3.58,1.46-4.94c0.54-0.97,1.35-1.84,2.33-2.49c0.98-0.65,2.01-0.97,3.15-0.97c1.08,0,1.95,0.22,2.49,0.54
					c1.52,0.98,2.33,2.71,2.33,5.15v14.91h3.8V12.55c0-0.27-0.06-0.59-0.06-0.86c0.16-0.49,0.38-0.92,0.65-1.36
					c0.54-0.97,1.35-1.84,2.33-2.49c0.97-0.65,2.01-0.97,3.15-0.97c1.08,0,1.95,0.22,2.49,0.54c1.52,0.98,2.33,2.71,2.33,5.15V27.46
					z"/>
			</g>
		</g>
	</g>
	<g>
		<g transform="translate(406.804049, 363.17059)">
			<g>
				<path d="M-123.01-4.53c-0.49-0.44-1.08-0.71-1.73-0.71s-1.25,0.27-1.68,0.71c-0.49,0.48-0.7,1.08-0.7,1.73s0.21,1.24,0.7,1.68
					c0.43,0.48,1.03,0.7,1.68,0.7s1.24-0.22,1.73-0.7c0.43-0.44,0.7-1.03,0.7-1.68S-122.57-4.04-123.01-4.53z M-122.79,27.57V3.71
					h-3.8v23.86H-122.79z"/>
			</g>
		</g>
	</g>
	<g>
		<g transform="translate(416.116939, 363.17059)">
			<g>
				<path d="M-107.27,27.57h3.8V12.66c0-2.77-0.76-4.99-2.17-6.67c-0.76-0.86-1.63-1.52-2.66-2.01c-1.08-0.48-2.44-0.76-4.12-0.76
					c-1.73,0-3.2,0.49-4.5,1.36c-1.25,0.81-2.28,1.9-3.04,3.25V3.71h-3.8v23.86h3.8v-9.98c0-3.04,0.54-5.42,1.68-7.21
					c0.65-0.98,1.46-1.79,2.49-2.44c0.98-0.59,2.33-0.92,3.96-0.92c1.63,0,2.77,0.6,3.47,1.68c0.7,1.08,1.08,2.44,1.08,3.96V27.57z"
					/>
			</g>
		</g>
	</g>
	<g>
		<g transform="translate(436.816778, 363.17059)">
			<g>
				<path d="M-97.55,15.64c0,2.33-0.81,4.39-2.44,6.07c-1.63,1.73-3.64,2.6-5.97,2.6c-2.33,0-4.33-0.86-5.96-2.6
					c-1.63-1.68-2.44-3.69-2.44-6.07c0-2.33,0.81-4.34,2.44-6.07c1.63-1.74,3.64-2.6,5.96-2.6c2.33,0,4.34,0.86,5.97,2.6
					C-98.36,11.31-97.55,13.36-97.55,15.64z M-114.47,30.83h-3.91c0.44,2.55,1.57,4.77,3.53,6.67c2.39,2.44,5.31,3.64,8.73,3.64
					c3.36,0,6.29-1.19,8.73-3.64c2.39-2.39,3.64-5.31,3.64-8.73V3.71h-3.8v4.02c-0.22-0.22-0.43-0.49-0.65-0.76
					c-2.39-2.49-5.15-3.8-8.3-3.8c-3.36,0-6.13,1.3-8.4,3.8c-2.17,2.49-3.26,5.37-3.26,8.68c0,3.36,1.08,6.23,3.26,8.67
					c2.28,2.55,5.04,3.8,8.4,3.8c3.26,0,6.02-1.24,8.3-3.8c0.22-0.21,0.43-0.48,0.65-0.7v5.15c0,2.39-0.86,4.39-2.55,6.07
					c-1.68,1.68-3.69,2.49-6.02,2.49c-2.39,0-4.39-0.81-6.07-2.49C-113.38,33.64-114.14,32.34-114.47,30.83z"/>
			</g>
		</g>
	</g>
	<g>
		<g transform="translate(471.221644, 363.17059)">
			<g>
				<path d="M-101.97,24.21c-0.92-0.65-1.63-1.74-2.01-3.31h-4.02c0.81,4.94,3.96,7.38,9.49,7.38c1.3,0,2.49-0.1,3.64-0.43
					c1.14-0.32,2.11-0.76,3.04-1.35c1.84-1.25,2.77-3.15,2.77-5.69c0-2.6-1.2-4.45-3.69-5.64c-1.03-0.49-2.17-0.87-3.42-1.14
					c-1.19-0.27-2.33-0.59-3.36-0.92c-1.08-0.32-1.95-0.76-2.66-1.24c-0.7-0.49-1.08-1.25-1.08-2.33s0.43-1.9,1.3-2.39
					c0.86-0.54,1.9-0.81,3.04-0.81c1.19,0,2.22,0.27,3.04,0.7c0.81,0.44,1.46,1.3,1.84,2.6h4.07c-0.49-2.39-1.52-4.07-3.04-4.99
					c-1.57-0.97-3.47-1.46-5.8-1.46c-2.28,0-4.29,0.65-5.97,1.84c-1.63,1.24-2.49,3.04-2.49,5.42c0,1.14,0.33,2.17,0.92,3.04
					c0.65,0.92,1.57,1.63,2.77,2.17c1.09,0.48,2.22,0.86,3.42,1.19c1.19,0.27,2.33,0.59,3.42,0.92c2.44,0.81,3.69,2.01,3.69,3.52
					c0,2.6-1.73,3.85-5.2,3.85C-99.74,25.13-100.99,24.86-101.97,24.21z"/>
			</g>
		</g>
	</g>
	<g>
		<g transform="translate(487.570064, 363.17059)">
			<g>
				<path d="M-80.41,15.54c0,2.39-0.87,4.39-2.55,6.07c-1.73,1.73-3.74,2.55-6.13,2.55c-2.39,0-4.45-0.81-6.13-2.55
					c-1.74-1.68-2.55-3.69-2.55-6.07s0.81-4.4,2.55-6.13c1.68-1.68,3.74-2.55,6.13-2.55c2.39,0,4.39,0.87,6.13,2.55
					C-81.28,11.14-80.41,13.15-80.41,15.54z M-76.62,15.54c0-3.42-1.25-6.34-3.69-8.79c-2.44-2.44-5.37-3.69-8.79-3.69
					c-3.47,0-6.4,1.25-8.84,3.69c-2.44,2.44-3.64,5.37-3.64,8.79c0,3.47,1.2,6.4,3.64,8.78c2.44,2.44,5.42,3.64,8.84,3.64
					c3.36,0,6.34-1.19,8.79-3.64C-77.87,21.93-76.62,19-76.62,15.54z"/>
			</g>
		</g>
	</g>
	<g>
		<g transform="translate(509.937299, 363.17059)">
			<g>
				<path d="M-72.96,15.54c0,2.39-0.87,4.39-2.55,6.07c-1.73,1.73-3.74,2.55-6.13,2.55s-4.45-0.81-6.13-2.55
					c-1.74-1.68-2.55-3.69-2.55-6.07s0.81-4.4,2.55-6.13c1.68-1.68,3.74-2.55,6.13-2.55s4.39,0.87,6.13,2.55
					C-73.83,11.14-72.96,13.15-72.96,15.54z M-69.16,15.54c0-3.42-1.25-6.34-3.69-8.79c-2.44-2.44-5.37-3.69-8.79-3.69
					c-3.47,0-6.4,1.25-8.84,3.69c-2.44,2.44-3.64,5.37-3.64,8.79c0,3.47,1.2,6.4,3.64,8.78c2.44,2.44,5.42,3.64,8.84,3.64
					c3.36,0,6.34-1.19,8.79-3.64C-70.41,21.93-69.16,19-69.16,15.54z"/>
			</g>
		</g>
	</g>
	<g>
		<g transform="translate(532.304534, 363.17059)">
			<g>
				<path d="M-68.54,27.57h3.8V12.66c0-2.77-0.76-4.99-2.17-6.67c-0.76-0.86-1.63-1.52-2.66-2.01c-1.08-0.48-2.44-0.76-4.12-0.76
					c-1.73,0-3.2,0.49-4.5,1.36c-1.25,0.81-2.28,1.9-3.04,3.25V3.71h-3.8v23.86h3.8v-9.98c0-3.04,0.54-5.42,1.68-7.21
					c0.65-0.98,1.46-1.79,2.49-2.44c0.98-0.59,2.33-0.92,3.96-0.92c1.63,0,2.77,0.6,3.47,1.68c0.7,1.08,1.08,2.44,1.08,3.96V27.57z"
					/>
			</g>
		</g>
	</g>
</g>
</svg>
