<svg id="head_and_drop" xmlns="http://www.w3.org/2000/svg" xmlns:xlink="http://www.w3.org/1999/xlink" viewBox="300 0 1140 809.999993" shape-rendering="geometricPrecision" text-rendering="geometricPrecision"><g id="head_and_drop-s-g1"><g id="head_and_drop-s-g2" transform="translate(573.937 390.542)"><g id="head_and_drop-s-g3"><path id="head_and_drop-s-path1" d="M29.800781,0.855469c14.523438,0,23.445313-9.207031,23.445313-24.109375v-43.183594h-7.023438v42.898438c0,11.390624-6.359375,18.035156-16.421875,18.035156-10.058593,0-16.324219-6.644532-16.324219-18.035156v-42.898438h-7.023437v43.183594c0,14.902344,8.921875,24.109375,23.347656,24.109375Zm0,0"/></g></g></g><g id="head_and_drop-s-g4"><g id="head_and_drop-s-g5" transform="translate(656.127 390.542)"><g id="head_and_drop-s-g6"><path id="head_and_drop-s-path2" d="M15.089844,0v-53.054688L49.925781,0h5.882813v-66.4375h-7.023438v52.582031L14.238281,-66.4375h-6.171875v66.4375Zm0,0"/></g></g></g><g id="head_and_drop-s-g7"><g id="head_and_drop-s-g8" transform="translate(742.494 390.542)"><g id="head_and_drop-s-g9"><path id="head_and_drop-s-path3" d="M53.152344,0L35.210938,-24.867188c11.296874-2.089843,17.464843-9.300781,17.464843-20.5c0-13.667968-9.109375-21.070312-24.296875-21.070312h-20.3125v66.4375h7.023438v-24.296875h12.054687L44.609375,0ZM28.1875,-60.078125c11.203125,0,17.371094,5.125,17.371094,14.710937c0,10.058594-6.359375,14.804688-17.464844,14.804688h-13.003906v-29.515625Zm0,0"/></g></g></g><g id="head_and_drop-s-g10"><g id="head_and_drop-s-g11" transform="translate(821.742 390.542)"><g id="head_and_drop-s-g12"><path id="head_and_drop-s-path4" d="M59.414062,0L34.453125,-66.4375h-7.496094L1.992188,0h7.308593l5.980469-15.945312h30.847656L52.011719,0ZM30.65625,-57.421875l13.097656,35.117187h-26.101562Zm0,0"/></g></g></g><g id="head_and_drop-s-g13"><g id="head_and_drop-s-g14" transform="translate(905.641 390.542)"><g id="head_and_drop-s-g15"><path id="head_and_drop-s-path5" d="M15.089844,0v-66.4375h-7.023438v66.4375Zm0,0"/></g></g></g><g id="head_and_drop-s-g16"><g id="head_and_drop-s-g17" transform="translate(951.293 390.542)"><g id="head_and_drop-s-g18"><path id="head_and_drop-s-path6" d="M15.089844,0v-53.054688L49.925781,0h5.882813v-66.4375h-7.023438v52.582031L14.238281,-66.4375h-6.171875v66.4375Zm0,0"/></g></g></g><g id="head_and_drop-s-g19"><g id="head_and_drop-s-g20" transform="translate(1037.66 390.542)"><g id="head_and_drop-s-g21"><path id="head_and_drop-s-path7" d="M45.082031,-66.4375l-17.9375,35.78125L9.113281,-66.4375h-7.59375l22.019531,43.753906v22.683594h7.117188v-22.683594L52.675781,-66.4375Zm0,0"/></g></g></g><g id="head_and_drop-u-line" transform="translate(-60.041016 0)" opacity="0" clip-path="url(#head_and_drop-u-2f92752fbb)"><g id="head_and_drop-s-g22"><path id="head_and_drop-s-path8" d="M725.269531,361.894531h-167.328125v2.109375h176.199219v-2.109375h-8.871094"/></g><clipPath id="head_and_drop-u-2f92752fbb" transform="translate(.000001 0)"><path id="head_and_drop-s-path9" d="M557.914062,361h176.25v4h-176.25Zm0,0" transform="translate(.000001 0)"/></clipPath></g><g id="head_and_drop-u-drop" transform="translate(0-39.731323)" opacity="0" clip-path="url(#head_and_drop-u-b95f8e7aaa)"><g id="head_and_drop-s-g23"><g id="head_and_drop-s-g24" clip-path="url(#head_and_drop-u-5320683987)"><g id="head_and_drop-s-g25"><g id="head_and_drop-s-g26" clip-path="url(#head_and_drop-u-2e3d95f607)"><g id="head_and_drop-s-g27"><g id="head_and_drop-s-g28" clip-path="url(#head_and_drop-u-fae21c49a2)"><g id="head_and_drop-s-g29"><path id="head_and_drop-s-path10" d="M1361.824219,630.101562l-13.03125-24.730468-14.882813,23.667968c-2.132812,3.21875-5.949218,11.09375-6.113281,15.328126-.441406,11.582031,7.921875,21.300781,18.679687,21.710937c10.761719.410156,19.839844-8.644531,20.285157-20.226563.160156-4.234374-3.054688-12.375-4.9375-15.75Zm0,0"/></g><clipPath id="head_and_drop-u-fae21c49a2"><path id="head_and_drop-s-path11" d="M1329.308594,604.628906l38.972656,1.484375-2.316406,60.707031-38.972656-1.484374Zm0,0"/></clipPath></g></g><clipPath id="head_and_drop-u-2e3d95f607"><path id="head_and_drop-s-path12" d="M1329.308594,604.628906l38.972656,1.484375-2.316406,60.707031-38.972656-1.484374Zm0,0"/></clipPath></g></g><clipPath id="head_and_drop-u-5320683987"><path id="head_and_drop-s-path13" d="M1329.308594,604.628906l38.972656,1.484375-2.316406,60.707031-38.972656-1.484374Zm0,0"/></clipPath></g></g><clipPath id="head_and_drop-u-b95f8e7aaa"><path id="head_and_drop-s-path14" d="M1327,605h40v62h-40Zm0,0"/></clipPath></g><g id="head_and_drop-u-drop_line" opacity="0" clip-path="url(#head_and_drop-u-c6161f3984)"><g id="head_and_drop-s-g30"><g id="head_and_drop-s-g31" clip-path="url(#head_and_drop-u-e40caa9add)"><g id="head_and_drop-s-g32"><path id="head_and_drop-s-path15" d="M1369.222656,602.027344l-50.890625,81.777344l1.011719.628906l53.46875-85.917969-1.011719-.628906-2.578125,4.140625"/></g><clipPath id="head_and_drop-u-e40caa9add" transform="translate(.000001 0)"><path id="head_and_drop-s-path16" d="M1314.621094,681.523438l53.496094-85.960938l8.277343,5.152344-53.496093,85.960937Zm0,0" transform="translate(.000001 0)"/></clipPath></g></g><clipPath id="head_and_drop-u-c6161f3984"><path id="head_and_drop-s-path17" d="M1318,597h55v88h-55Zm0,0"/></clipPath></g><g id="head_and_drop-u-c" opacity="0"><g id="head_and_drop-s-g33" transform="translate(332.22 363.171)"><g id="head_and_drop-s-g34"><path id="head_and_drop-s-path18" d="M19.765625,-11.46875c-.570313-1.992188-1.667969-3.617188-3.253906-4.878906-1.667969-1.261719-3.496094-1.914063-5.53125-1.914063-2.5625,0-4.757813.9375-6.507813,2.765625-1.789062,1.832032-2.644531,4.027344-2.644531,6.550782c0,2.558593.855469,4.714843,2.644531,6.585937.8125.855469,1.75,1.546875,2.886719,2.035156c1.097656.488281,2.238281.730469,3.375.730469c1.140625,0,2.15625-.121094,3.050781-.445312c2.847656-1.019532,4.800782-2.929688,5.816406-5.816407h-3.210937c-.570313,1.015625-1.304687,1.828125-2.277344,2.398438-.976562.609375-1.996093.894531-3.132812.894531-1.75,0-3.214844-.609375-4.433594-1.871094s-1.789063-2.765625-1.789063-4.511718c0-1.667969.570313-3.171876,1.789063-4.433594.570313-.570313,1.21875-1.058594,1.992187-1.382813.734376-.324219,1.667969-.53125,2.726563-.53125s2.074219.367188,3.128906,1.058594c1.019531.734375,1.792969,1.628906,2.277344,2.765625Zm0,0"/></g></g></g><g id="head_and_drop-u-o" opacity="0"><g id="head_and_drop-s-g35" transform="translate(353.407 363.171)"><g id="head_and_drop-s-g36"><path id="head_and_drop-s-path19" d="M17.691406,-9.027344c0,1.789063-.652344,3.292969-1.914062,4.554688-1.300782,1.300781-2.804688,1.910156-4.59375,1.910156s-3.335938-.609375-4.59375-1.910156c-1.304688-1.261719-1.914063-2.765625-1.914063-4.554688s.609375-3.296875,1.914063-4.597656c1.257812-1.257812,2.804687-1.910156,4.59375-1.910156s3.292968.652344,4.59375,1.910156c1.261718,1.300781,1.914062,2.808594,1.914062,4.597656Zm2.847656,0c0-2.5625-.9375-4.757812-2.765624-6.589844-1.832032-1.828124-4.027344-2.765624-6.589844-2.765624-2.601563,0-4.796875.9375-6.628906,2.765624-1.828126,1.832032-2.726563,4.027344-2.726563,6.589844c0,2.601563.898437,4.796875,2.726563,6.585938c1.832031,1.832031,4.066406,2.726562,6.628906,2.726562c2.519531,0,4.757812-.894531,6.589844-2.726562c1.828124-1.789063,2.765624-3.984375,2.765624-6.585938Zm0,0"/></g></g></g><g id="head_and_drop-u-m" opacity="0"><g id="head_and_drop-s-g37" transform="translate(375.775 363.171)"><g id="head_and_drop-s-g38"><path id="head_and_drop-s-path20" d="M25.742188,-0.082031h2.847656v-11.183594c0-1.992187-.527344-3.660156-1.503906-4.960937-.488282-.652344-1.140626-1.136719-1.871094-1.546876-.773438-.40625-1.789063-.609374-3.011719-.609374-1.257813,0-2.355469.367187-3.292969,1.019531-.855468.648437-1.546875,1.421875-2.113281,2.398437-.203125-.449218-.449219-.855468-.734375-1.261718-.488281-.652344-1.136719-1.136719-1.871094-1.546876-.769531-.40625-1.789062-.609374-3.007812-.609374-1.261719,0-2.359375.367187-3.292969,1.019531-.8125.609375-1.464844,1.339843-1.992187,2.277343v-2.890624h-2.847657v17.894531h2.847657v-9.148438c.121093-1.425781.488281-2.683593,1.097656-3.703125.40625-.730468,1.015625-1.382812,1.746094-1.871094.734374-.488281,1.507812-.730468,2.359374-.730468.8125,0,1.464844.164062,1.871094.40625c1.140625.734375,1.75,2.035156,1.75,3.863281v11.183594h2.847656v-11.183594c0-.203125-.042968-.445313-.042968-.648437.121094-.367188.285156-.691407.488281-1.019532.40625-.730468,1.015625-1.382812,1.75-1.871094.730469-.488281,1.503906-.730468,2.359375-.730468.8125,0,1.460938.164062,1.867188.40625c1.140624.734375,1.75,2.035156,1.75,3.863281Zm0,0"/></g></g></g><g id="head_and_drop-u-i" opacity="0"><g id="head_and_drop-s-g39" transform="translate(406.804 363.171)"><g id="head_and_drop-s-g40"><path id="head_and_drop-s-path21" d="M5.9375,-24.074219c-.367188-.328125-.8125-.53125-1.300781-.53125s-.9375.203125-1.261719.53125c-.367188.363281-.527344.8125-.527344,1.300781s.160156.933594.527344,1.261719c.324219.363281.773438.527344,1.261719.527344s.933593-.164063,1.300781-.527344c.324219-.328125.527344-.773437.527344-1.261719s-.203125-.9375-.527344-1.300781ZM6.101562,0v-17.894531h-2.847656v17.894531Zm0,0"/></g></g></g><g id="head_and_drop-u-n" opacity="0"><g id="head_and_drop-s-g41" transform="translate(416.117 363.171)"><g id="head_and_drop-s-g42"><path id="head_and_drop-s-path22" d="M15.414062,0h2.847657v-11.183594c0-2.074218-.570313-3.742187-1.628907-5.003906-.570312-.648438-1.21875-1.136719-1.992187-1.503906-.8125-.363282-1.832031-.570313-3.089844-.570313-1.300781,0-2.402343.367188-3.375,1.019531-.9375.609376-1.710937,1.421876-2.277343,2.4375v-3.089843h-2.847657v17.894531h2.847657v-7.484375c0-2.277344.40625-4.066406,1.257812-5.40625.488281-.734375,1.097656-1.34375,1.871094-1.832031.734375-.445313,1.75-.691406,2.96875-.691406c1.222656,0,2.074218.449218,2.605468,1.261718.527344.8125.8125,1.828125.8125,2.96875Zm0,0"/></g></g></g><g id="head_and_drop-s-g43" opacity="0"><g id="head_and_drop-s-g44" transform="translate(436.817 363.171)"><g id="head_and_drop-s-g45"><path id="head_and_drop-s-path23" d="M17.527344,-8.945312c0,1.746093-.609375,3.292968-1.828125,4.554687-1.222657,1.300781-2.726563,1.949219-4.476563,1.949219-1.746094,0-3.25-.648438-4.472656-1.949219-1.21875-1.261719-1.828125-2.765625-1.828125-4.554687c0-1.75.609375-3.253907,1.828125-4.554688c1.222656-1.304688,2.726562-1.953125,4.472656-1.953125c1.75,0,3.253906.648437,4.476563,1.953125c1.21875,1.300781,1.828125,2.84375,1.828125,4.554688ZM4.839844,2.441406h-2.929688c.328125,1.910156,1.179688,3.578125,2.644532,5c1.789062,1.832032,3.984374,2.726563,6.546874,2.726563c2.523438,0,4.71875-.894531,6.546876-2.726563C19.4375,5.652344,20.375,3.457031,20.375,0.894531v-18.789062h-2.847656v3.011719c-.164063-.164063-.324219-.367188-.488282-.570313-1.789062-1.871094-3.863281-2.847656-6.222656-2.847656-2.519531,0-4.59375.976562-6.300781,2.847656-1.628906,1.871094-2.441406,4.027344-2.441406,6.507813c0,2.519531.8125,4.675781,2.441406,6.503906c1.707031,1.914062,3.78125,2.847656,6.300781,2.847656c2.441406,0,4.515625-.933594,6.222656-2.847656.164063-.160156.324219-.363282.488282-.527344v3.863281c0,1.789063-.648438,3.292969-1.910156,4.554688s-2.765626,1.871093-4.515626,1.871093c-1.789062,0-3.292968-.609374-4.554687-1.871093-.894531-.894531-1.464844-1.871094-1.707031-3.007813Zm0,0"/></g></g></g><g id="head_and_drop-u-s" opacity="0"><g id="head_and_drop-s-g46" transform="translate(471.222 363.171)"><g id="head_and_drop-s-g47"><path id="head_and_drop-s-path24" d="M5.613281,-2.519531c-.691406-.488281-1.222656-1.304688-1.503906-2.484375h-3.011719c.609375,3.703125,2.96875,5.53125,7.117188,5.53125.976562,0,1.871094-.078125,2.726562-.324219.851563-.242187,1.585938-.570313,2.277344-1.015625c1.382812-.9375,2.074219-2.359375,2.074219-4.269531c0-1.953125-.898438-3.335938-2.765625-4.230469-.773438-.367188-1.628906-.652344-2.5625-.855469-.894532-.203125-1.75-.445312-2.523438-.691406-.8125-.242187-1.464844-.566406-1.992187-.933594s-.8125-.9375-.8125-1.75.324219-1.421875.976562-1.789062c.648438-.40625,1.421875-.609375,2.277344-.609375.894531,0,1.667969.203125,2.277344.527344.609375.328124,1.097656.976562,1.382812,1.953124h3.050781c-.367187-1.789062-1.140624-3.050781-2.277343-3.742187-1.179688-.730469-2.605469-1.097656-4.351563-1.097656-1.710937,0-3.214844.488281-4.476562,1.382812-1.21875.933594-1.871094,2.277344-1.871094,4.066407c0,.855468.246094,1.628906.691406,2.277343.488282.691407,1.179688,1.21875,2.074219,1.628907.816406.363281,1.667969.648437,2.5625.894531.894531.203125,1.75.445312,2.5625.691406c1.832031.609375,2.765625,1.503906,2.765625,2.640625c0,1.953125-1.300781,2.890625-3.902344,2.890625-1.097656,0-2.035156-.207031-2.765625-.691406Zm0,0"/></g></g></g><g id="head_and_drop-u-o2" opacity="0"><g id="head_and_drop-s-g48" transform="translate(487.57 363.171)"><g id="head_and_drop-s-g49"><path id="head_and_drop-s-path25" d="M17.691406,-9.027344c0,1.789063-.652344,3.292969-1.914062,4.554688-1.300782,1.300781-2.804688,1.910156-4.59375,1.910156s-3.335938-.609375-4.59375-1.910156c-1.304688-1.261719-1.914063-2.765625-1.914063-4.554688s.609375-3.296875,1.914063-4.597656c1.257812-1.257812,2.804687-1.910156,4.59375-1.910156s3.292968.652344,4.59375,1.910156c1.261718,1.300781,1.914062,2.808594,1.914062,4.597656Zm2.847656,0c0-2.5625-.9375-4.757812-2.765624-6.589844-1.832032-1.828124-4.027344-2.765624-6.589844-2.765624-2.601563,0-4.796875.9375-6.628906,2.765624-1.828126,1.832032-2.726563,4.027344-2.726563,6.589844c0,2.601563.898437,4.796875,2.726563,6.585938c1.832031,1.832031,4.066406,2.726562,6.628906,2.726562c2.519531,0,4.757812-.894531,6.589844-2.726562c1.828124-1.789063,2.765624-3.984375,2.765624-6.585938Zm0,0"/></g></g></g><g id="head_and_drop-u-o3" opacity="0"><g id="head_and_drop-s-g50" transform="translate(509.937 363.171)"><g id="head_and_drop-s-g51"><path id="head_and_drop-s-path26" d="M17.691406,-9.027344c0,1.789063-.652344,3.292969-1.914062,4.554688-1.300782,1.300781-2.804688,1.910156-4.59375,1.910156s-3.335938-.609375-4.59375-1.910156c-1.304688-1.261719-1.914063-2.765625-1.914063-4.554688s.609375-3.296875,1.914063-4.597656c1.257812-1.257812,2.804687-1.910156,4.59375-1.910156s3.292968.652344,4.59375,1.910156c1.261718,1.300781,1.914062,2.808594,1.914062,4.597656Zm2.847656,0c0-2.5625-.9375-4.757812-2.765624-6.589844-1.832032-1.828124-4.027344-2.765624-6.589844-2.765624-2.601563,0-4.796875.9375-6.628906,2.765624-1.828126,1.832032-2.726563,4.027344-2.726563,6.589844c0,2.601563.898437,4.796875,2.726563,6.585938c1.832031,1.832031,4.066406,2.726562,6.628906,2.726562c2.519531,0,4.757812-.894531,6.589844-2.726562c1.828124-1.789063,2.765624-3.984375,2.765624-6.585938Zm0,0"/></g></g></g><g id="head_and_drop-u-n2" opacity="0"><g id="head_and_drop-s-g52" transform="translate(532.304 363.171)"><g id="head_and_drop-s-g53"><path id="head_and_drop-s-path27" d="M15.414062,0h2.847657v-11.183594c0-2.074218-.570313-3.742187-1.628907-5.003906-.570312-.648438-1.21875-1.136719-1.992187-1.503906-.8125-.363282-1.832031-.570313-3.089844-.570313-1.300781,0-2.402343.367188-3.375,1.019531-.9375.609376-1.710937,1.421876-2.277343,2.4375v-3.089843h-2.847657v17.894531h2.847657v-7.484375c0-2.277344.40625-4.066406,1.257812-5.40625.488281-.734375,1.097656-1.34375,1.871094-1.832031.734375-.445313,1.75-.691406,2.96875-.691406c1.222656,0,2.074218.449218,2.605468,1.261718.527344.8125.8125,1.828125.8125,2.96875Zm0,0"/></g></g></g>
<script><![CDATA[
!function(t,n){"object"==typeof exports&&"undefined"!=typeof module?module.exports=n():"function"==typeof define&&define.amd?define(n):((t="undefined"!=typeof globalThis?globalThis:t||self).__SVGATOR_PLAYER__=t.__SVGATOR_PLAYER__||{},t.__SVGATOR_PLAYER__["5c7f360c"]=n())}(this,(function(){"use strict";function t(t,n){var e=Object.keys(t);if(Object.getOwnPropertySymbols){var r=Object.getOwnPropertySymbols(t);n&&(r=r.filter((function(n){return Object.getOwnPropertyDescriptor(t,n).enumerable}))),e.push.apply(e,r)}return e}function n(n){for(var e=1;e<arguments.length;e++){var r=null!=arguments[e]?arguments[e]:{};e%2?t(Object(r),!0).forEach((function(t){o(n,t,r[t])})):Object.getOwnPropertyDescriptors?Object.defineProperties(n,Object.getOwnPropertyDescriptors(r)):t(Object(r)).forEach((function(t){Object.defineProperty(n,t,Object.getOwnPropertyDescriptor(r,t))}))}return n}function e(t){return(e="function"==typeof Symbol&&"symbol"==typeof Symbol.iterator?function(t){return typeof t}:function(t){return t&&"function"==typeof Symbol&&t.constructor===Symbol&&t!==Symbol.prototype?"symbol":typeof t})(t)}function r(t,n){if(!(t instanceof n))throw new TypeError("Cannot call a class as a function")}function i(t,n){for(var e=0;e<n.length;e++){var r=n[e];r.enumerable=r.enumerable||!1,r.configurable=!0,"value"in r&&(r.writable=!0),Object.defineProperty(t,r.key,r)}}function u(t,n,e){return n&&i(t.prototype,n),e&&i(t,e),t}function o(t,n,e){return n in t?Object.defineProperty(t,n,{value:e,enumerable:!0,configurable:!0,writable:!0}):t[n]=e,t}function a(t){return(a=Object.setPrototypeOf?Object.getPrototypeOf:function(t){return t.__proto__||Object.getPrototypeOf(t)})(t)}function l(t,n){return(l=Object.setPrototypeOf||function(t,n){return t.__proto__=n,t})(t,n)}function s(){if("undefined"==typeof Reflect||!Reflect.construct)return!1;if(Reflect.construct.sham)return!1;if("function"==typeof Proxy)return!0;try{return Boolean.prototype.valueOf.call(Reflect.construct(Boolean,[],(function(){}))),!0}catch(t){return!1}}function f(t,n,e){return(f=s()?Reflect.construct:function(t,n,e){var r=[null];r.push.apply(r,n);var i=new(Function.bind.apply(t,r));return e&&l(i,e.prototype),i}).apply(null,arguments)}function c(t,n){if(n&&("object"==typeof n||"function"==typeof n))return n;if(void 0!==n)throw new TypeError("Derived constructors may only return object or undefined");return function(t){if(void 0===t)throw new ReferenceError("this hasn't been initialised - super() hasn't been called");return t}(t)}function h(t,n,e){return(h="undefined"!=typeof Reflect&&Reflect.get?Reflect.get:function(t,n,e){var r=function(t,n){for(;!Object.prototype.hasOwnProperty.call(t,n)&&null!==(t=a(t)););return t}(t,n);if(r){var i=Object.getOwnPropertyDescriptor(r,n);return i.get?i.get.call(e):i.value}})(t,n,e||t)}function v(t){return function(t){if(Array.isArray(t))return y(t)}(t)||function(t){if("undefined"!=typeof Symbol&&null!=t[Symbol.iterator]||null!=t["@@iterator"])return Array.from(t)}(t)||function(t,n){if(!t)return;if("string"==typeof t)return y(t,n);var e=Object.prototype.toString.call(t).slice(8,-1);"Object"===e&&t.constructor&&(e=t.constructor.name);if("Map"===e||"Set"===e)return Array.from(t);if("Arguments"===e||/^(?:Ui|I)nt(?:8|16|32)(?:Clamped)?Array$/.test(e))return y(t,n)}(t)||function(){throw new TypeError("Invalid attempt to spread non-iterable instance.\nIn order to be iterable, non-array objects must have a [Symbol.iterator]() method.")}()}function y(t,n){(null==n||n>t.length)&&(n=t.length);for(var e=0,r=new Array(n);e<n;e++)r[e]=t[e];return r}Number.isInteger||(Number.isInteger=function(t){return"number"==typeof t&&isFinite(t)&&Math.floor(t)===t}),Number.EPSILON||(Number.EPSILON=2220446049250313e-31);var g=d(Math.pow(10,-6));function d(t){var n=arguments.length>1&&void 0!==arguments[1]?arguments[1]:6;if(Number.isInteger(t))return t;var e=Math.pow(10,n);return Math.round((+t+Number.EPSILON)*e)/e}function p(t,n){var e=arguments.length>2&&void 0!==arguments[2]?arguments[2]:g;return Math.abs(t-n)<e}var m=Math.PI/180;function b(t){return t}function w(t,n,e){var r=1-e;return 3*e*r*(t*r+n*e)+e*e*e}function x(){var t=arguments.length>0&&void 0!==arguments[0]?arguments[0]:0,n=arguments.length>1&&void 0!==arguments[1]?arguments[1]:0,e=arguments.length>2&&void 0!==arguments[2]?arguments[2]:1,r=arguments.length>3&&void 0!==arguments[3]?arguments[3]:1;return t<0||t>1||e<0||e>1?null:p(t,n)&&p(e,r)?b:function(i){if(i<=0)return t>0?i*n/t:0===n&&e>0?i*r/e:0;if(i>=1)return e<1?1+(i-1)*(r-1)/(e-1):1===e&&t<1?1+(i-1)*(n-1)/(t-1):1;for(var u,o=0,a=1;o<a;){var l=w(t,e,u=(o+a)/2);if(p(i,l))break;l<i?o=u:a=u}return w(n,r,u)}}function A(){return 1}function k(t){return 1===t?1:0}function _(){var t=arguments.length>0&&void 0!==arguments[0]?arguments[0]:1,n=arguments.length>1&&void 0!==arguments[1]?arguments[1]:0;if(1===t){if(0===n)return k;if(1===n)return A}var e=1/t;return function(t){return t>=1?1:(t+=n*e)-t%e}}var S=Math.sin,O=Math.cos,j=Math.acos,M=Math.asin,P=Math.tan,E=Math.atan2,I=Math.PI/180,R=180/Math.PI,F=Math.sqrt,N=function(){function t(){var n=arguments.length>0&&void 0!==arguments[0]?arguments[0]:1,e=arguments.length>1&&void 0!==arguments[1]?arguments[1]:0,i=arguments.length>2&&void 0!==arguments[2]?arguments[2]:0,u=arguments.length>3&&void 0!==arguments[3]?arguments[3]:1,o=arguments.length>4&&void 0!==arguments[4]?arguments[4]:0,a=arguments.length>5&&void 0!==arguments[5]?arguments[5]:0;r(this,t),this.m=[n,e,i,u,o,a],this.i=null,this.w=null,this.s=null}return u(t,[{key:"determinant",get:function(){var t=this.m;return t[0]*t[3]-t[1]*t[2]}},{key:"isIdentity",get:function(){if(null===this.i){var t=this.m;this.i=1===t[0]&&0===t[1]&&0===t[2]&&1===t[3]&&0===t[4]&&0===t[5]}return this.i}},{key:"point",value:function(t,n){var e=this.m;return{x:e[0]*t+e[2]*n+e[4],y:e[1]*t+e[3]*n+e[5]}}},{key:"translateSelf",value:function(){var t=arguments.length>0&&void 0!==arguments[0]?arguments[0]:0,n=arguments.length>1&&void 0!==arguments[1]?arguments[1]:0;if(!t&&!n)return this;var e=this.m;return e[4]+=e[0]*t+e[2]*n,e[5]+=e[1]*t+e[3]*n,this.w=this.s=this.i=null,this}},{key:"rotateSelf",value:function(){var t=arguments.length>0&&void 0!==arguments[0]?arguments[0]:0;if(t%=360){var n=S(t*=I),e=O(t),r=this.m,i=r[0],u=r[1];r[0]=i*e+r[2]*n,r[1]=u*e+r[3]*n,r[2]=r[2]*e-i*n,r[3]=r[3]*e-u*n,this.w=this.s=this.i=null}return this}},{key:"scaleSelf",value:function(){var t=arguments.length>0&&void 0!==arguments[0]?arguments[0]:1,n=arguments.length>1&&void 0!==arguments[1]?arguments[1]:1;if(1!==t||1!==n){var e=this.m;e[0]*=t,e[1]*=t,e[2]*=n,e[3]*=n,this.w=this.s=this.i=null}return this}},{key:"skewSelf",value:function(t,n){if(n%=360,(t%=360)||n){var e=this.m,r=e[0],i=e[1],u=e[2],o=e[3];t&&(t=P(t*I),e[2]+=r*t,e[3]+=i*t),n&&(n=P(n*I),e[0]+=u*n,e[1]+=o*n),this.w=this.s=this.i=null}return this}},{key:"resetSelf",value:function(){var t=arguments.length>0&&void 0!==arguments[0]?arguments[0]:1,n=arguments.length>1&&void 0!==arguments[1]?arguments[1]:0,e=arguments.length>2&&void 0!==arguments[2]?arguments[2]:0,r=arguments.length>3&&void 0!==arguments[3]?arguments[3]:1,i=arguments.length>4&&void 0!==arguments[4]?arguments[4]:0,u=arguments.length>5&&void 0!==arguments[5]?arguments[5]:0,o=this.m;return o[0]=t,o[1]=n,o[2]=e,o[3]=r,o[4]=i,o[5]=u,this.w=this.s=this.i=null,this}},{key:"recomposeSelf",value:function(){var t=arguments.length>0&&void 0!==arguments[0]?arguments[0]:null,n=arguments.length>1&&void 0!==arguments[1]?arguments[1]:null,e=arguments.length>2&&void 0!==arguments[2]?arguments[2]:null,r=arguments.length>3&&void 0!==arguments[3]?arguments[3]:null,i=arguments.length>4&&void 0!==arguments[4]?arguments[4]:null;return this.isIdentity||this.resetSelf(),t&&(t.x||t.y)&&this.translateSelf(t.x,t.y),n&&this.rotateSelf(n),e&&(e.x&&this.skewSelf(e.x,0),e.y&&this.skewSelf(0,e.y)),!r||1===r.x&&1===r.y||this.scaleSelf(r.x,r.y),i&&(i.x||i.y)&&this.translateSelf(i.x,i.y),this}},{key:"decompose",value:function(){var t=arguments.length>0&&void 0!==arguments[0]?arguments[0]:0,n=arguments.length>1&&void 0!==arguments[1]?arguments[1]:0,e=this.m,r=e[0]*e[0]+e[1]*e[1],i=[[e[0],e[1]],[e[2],e[3]]],u=F(r);if(0===u)return{origin:{x:d(e[4]),y:d(e[5])},translate:{x:d(t),y:d(n)},scale:{x:0,y:0},skew:{x:0,y:0},rotate:0};i[0][0]/=u,i[0][1]/=u;var o=e[0]*e[3]-e[1]*e[2]<0;o&&(u=-u);var a=i[0][0]*i[1][0]+i[0][1]*i[1][1];i[1][0]-=i[0][0]*a,i[1][1]-=i[0][1]*a;var l=F(i[1][0]*i[1][0]+i[1][1]*i[1][1]);if(0===l)return{origin:{x:d(e[4]),y:d(e[5])},translate:{x:d(t),y:d(n)},scale:{x:d(u),y:0},skew:{x:0,y:0},rotate:0};i[1][0]/=l,i[1][1]/=l,a/=l;var s=0;return i[1][1]<0?(s=j(i[1][1])*R,i[0][1]<0&&(s=360-s)):s=M(i[0][1])*R,o&&(s=-s),a=E(a,F(i[0][0]*i[0][0]+i[0][1]*i[0][1]))*R,o&&(a=-a),{origin:{x:d(e[4]),y:d(e[5])},translate:{x:d(t),y:d(n)},scale:{x:d(u),y:d(l)},skew:{x:d(a),y:0},rotate:d(s)}}},{key:"clone",value:function(){var t=this.m;return new this.constructor(t[0],t[1],t[2],t[3],t[4],t[5])}},{key:"toString",value:function(){var t=arguments.length>0&&void 0!==arguments[0]?arguments[0]:" ";if(null===this.s){var n=this.m.map((function(t){return d(t)}));1===n[0]&&0===n[1]&&0===n[2]&&1===n[3]?this.s="translate("+n[4]+t+n[5]+")":this.s="matrix("+n.join(t)+")"}return this.s}}],[{key:"create",value:function(t){return t?Array.isArray(t)?f(this,v(t)):t instanceof this?t.clone():(new this).recomposeSelf(t.origin,t.rotate,t.skew,t.scale,t.translate):new this}}]),t}();function T(t,n,e){return t>=.5?e:n}function q(t,n,e){return 0===t||n===e?n:t*(e-n)+n}function B(t,n,e){var r=q(t,n,e);return r<=0?0:r}function L(t,n,e){var r=q(t,n,e);return r<=0?0:r>=1?1:r}function C(t,n,e){return 0===t?n:1===t?e:{x:q(t,n.x,e.x),y:q(t,n.y,e.y)}}function D(t,n,e){var r=function(t,n,e){return Math.round(q(t,n,e))}(t,n,e);return r<=0?0:r>=255?255:r}function z(t,n,e){return 0===t?n:1===t?e:{r:D(t,n.r,e.r),g:D(t,n.g,e.g),b:D(t,n.b,e.b),a:q(t,null==n.a?1:n.a,null==e.a?1:e.a)}}function V(t,n){for(var e=[],r=0;r<t;r++)e.push(n);return e}function G(t,n){if(--n<=0)return t;var e=(t=Object.assign([],t)).length;do{for(var r=0;r<e;r++)t.push(t[r])}while(--n>0);return t}var Y,$=function(){function t(n){r(this,t),this.list=n,this.length=n.length}return u(t,[{key:"setAttribute",value:function(t,n){for(var e=this.list,r=0;r<this.length;r++)e[r].setAttribute(t,n)}},{key:"removeAttribute",value:function(t){for(var n=this.list,e=0;e<this.length;e++)n[e].removeAttribute(t)}},{key:"style",value:function(t,n){for(var e=this.list,r=0;r<this.length;r++)e[r].style[t]=n}}]),t}(),U=/-./g,Q=function(t,n){return n.toUpperCase()};function H(t){return"function"==typeof t?t:T}function J(t){return t?"function"==typeof t?t:Array.isArray(t)?function(t){var n=arguments.length>1&&void 0!==arguments[1]?arguments[1]:b;if(!Array.isArray(t))return n;switch(t.length){case 1:return _(t[0])||n;case 2:return _(t[0],t[1])||n;case 4:return x(t[0],t[1],t[2],t[3])||n}return n}(t,null):function(t,n){var e=arguments.length>2&&void 0!==arguments[2]?arguments[2]:b;switch(t){case"linear":return b;case"steps":return _(n.steps||1,n.jump||0)||e;case"bezier":case"cubic-bezier":return x(n.x1||0,n.y1||0,n.x2||0,n.y2||0)||e}return e}(t.type,t.value,null):null}function Z(t,n,e){var r=arguments.length>3&&void 0!==arguments[3]&&arguments[3],i=n.length-1;if(t<=n[0].t)return r?[0,0,n[0].v]:n[0].v;if(t>=n[i].t)return r?[i,1,n[i].v]:n[i].v;var u,o=n[0],a=null;for(u=1;u<=i;u++){if(!(t>n[u].t)){a=n[u];break}o=n[u]}return null==a?r?[i,1,n[i].v]:n[i].v:o.t===a.t?r?[u,1,a.v]:a.v:(t=(t-o.t)/(a.t-o.t),o.e&&(t=o.e(t)),r?[u,t,e(t,o.v,a.v)]:e(t,o.v,a.v))}function K(t,n){var e=arguments.length>2&&void 0!==arguments[2]?arguments[2]:null;return t&&t.length?"function"!=typeof n?null:("function"!=typeof e&&(e=null),function(r){var i=Z(r,t,n);return null!=i&&e&&(i=e(i)),i}):null}function W(t,n){return t.t-n.t}function X(t,n,r,i,u){var o,a="@"===r[0],l="#"===r[0],s=Y[r],f=T;switch(a?(o=r.substr(1),r=o.replace(U,Q)):l&&(r=r.substr(1)),e(s)){case"function":if(f=s(i,u,Z,J,r,a,n,t),l)return f;break;case"string":f=K(i,H(s));break;case"object":if((f=K(i,H(s.i),s.f))&&"function"==typeof s.u)return s.u(n,f,r,a,t)}return f?function(t,n,e){if(arguments.length>3&&void 0!==arguments[3]&&arguments[3])return t instanceof $?function(r){return t.style(n,e(r))}:function(r){return t.style[n]=e(r)};if(Array.isArray(n)){var r=n.length;return function(i){var u=e(i);if(null==u)for(var o=0;o<r;o++)t[o].removeAttribute(n);else for(var a=0;a<r;a++)t[a].setAttribute(n,u)}}return function(r){var i=e(r);null==i?t.removeAttribute(n):t.setAttribute(n,i)}}(n,r,f,a):null}function tt(t,n,r,i){if(!i||"object"!==e(i))return null;var u=null,o=null;return Array.isArray(i)?o=function(t){if(!t||!t.length)return null;for(var n=0;n<t.length;n++)t[n].e&&(t[n].e=J(t[n].e));return t.sort(W)}(i):(o=i.keys,u=i.data||null),o?X(t,n,r,o,u):null}function nt(t,n,e){if(!e)return null;var r=[];for(var i in e)if(e.hasOwnProperty(i)){var u=tt(t,n,i,e[i]);u&&r.push(u)}return r.length?r:null}function et(t,n){if(!n.settings.duration||n.settings.duration<0)return null;var e,r,i,u,o,a=function(t,n){if(!n)return null;var e=[];if(Array.isArray(n))for(var r=n.length,i=0;i<r;i++){var u=n[i];if(2===u.length){var o=null;if("string"==typeof u[0])o=t.getElementById(u[0]);else if(Array.isArray(u[0])){o=[];for(var a=0;a<u[0].length;a++)if("string"==typeof u[0][a]){var l=t.getElementById(u[0][a]);l&&o.push(l)}o=o.length?1===o.length?o[0]:new $(o):null}if(o){var s=nt(t,o,u[1]);s&&(e=e.concat(s))}}}else for(var f in n)if(n.hasOwnProperty(f)){var c=t.getElementById(f);if(c){var h=nt(t,c,n[f]);h&&(e=e.concat(h))}}return e.length?e:null}(t,n.elements);return a?(e=a,r=n.settings,i=r.duration,u=e.length,o=null,function(t,n){var a=r.iterations||1/0,l=(r.alternate&&a%2==0)^r.direction>0?i:0,s=t%i,f=1+(t-s)/i;n*=r.direction,r.alternate&&f%2==0&&(n=-n);var c=!1;if(f>a)s=l,c=!0,-1===r.fill&&(s=r.direction>0?0:i);else if(n<0&&(s=i-s),s===o)return!1;o=s;for(var h=0;h<u;h++)e[h](s);return c}):null}function rt(t,n){if(Y=n,!t||!t.root||!Array.isArray(t.animations))return null;var e=function(t){for(var n=document.getElementsByTagName("svg"),e=0;e<n.length;e++)if(n[e].id===t.root&&!n[e].svgatorAnimation)return n[e].svgatorAnimation=!0,n[e];return null}(t);if(!e)return null;var r=t.animations.map((function(t){return et(e,t)})).filter((function(t){return!!t}));return r.length?{svg:e,animations:r,animationSettings:t.animationSettings,options:t.options||void 0}:null}function it(t){return+("0x"+(t.replace(/[^0-9a-fA-F]+/g,"")||27))}function ut(t,n,e){return!t||!e||n>t.length?t:t.substring(0,n)+ut(t.substring(n+1),e,e)}function ot(t){var n=arguments.length>1&&void 0!==arguments[1]?arguments[1]:27;return!t||t%n?t%n:ot(t/n,n)}function at(t,n,e){if(t&&t.length){var r=it(e),i=it(n),u=ot(r)+5,o=ut(t,ot(r,5),u);return o=o.replace(/\x7c$/g,"==").replace(/\x2f$/g,"="),o=function(t,n,e){var r=+("0x"+t.substring(0,4));t=t.substring(4);for(var i=n%r+e%27,u=[],o=0;o<t.length;o+=2)if("|"!==t[o]){var a=+("0x"+t[o]+t[o+1])-i;u.push(a)}else{var l=+("0x"+t.substring(o+1,o+1+4))-i;o+=3,u.push(l)}return String.fromCharCode.apply(String,u)}(o=(o=atob(o)).replace(/[\x41-\x5A]/g,""),i,r),o=JSON.parse(o)}}var lt=[{key:"alternate",def:!1},{key:"fill",def:1},{key:"iterations",def:0},{key:"direction",def:1},{key:"speed",def:1},{key:"fps",def:100}],st=function(){function t(n,e){var i=this,u=arguments.length>2&&void 0!==arguments[2]?arguments[2]:null;r(this,t),this._id=0,this._running=!1,this._rollingBack=!1,this._animations=n,this._settings=e,(!u||u<"2022-05-02")&&delete this._settings.speed,lt.forEach((function(t){i._settings[t.key]=i._settings[t.key]||t.def})),this.duration=e.duration,this.offset=e.offset||0,this.rollbackStartOffset=0}return u(t,[{key:"alternate",get:function(){return this._settings.alternate}},{key:"fill",get:function(){return this._settings.fill}},{key:"iterations",get:function(){return this._settings.iterations}},{key:"direction",get:function(){return this._settings.direction}},{key:"speed",get:function(){return this._settings.speed}},{key:"fps",get:function(){return this._settings.fps}},{key:"maxFiniteDuration",get:function(){return this.iterations>0?this.iterations*this.duration:this.duration}},{key:"_apply",value:function(t){for(var n=arguments.length>1&&void 0!==arguments[1]?arguments[1]:{},e=this._animations,r=e.length,i=0,u=0;u<r;u++)n[u]?i++:(n[u]=e[u](t,1),n[u]&&i++);return i}},{key:"_rollback",value:function(t){var n=this,e=1/0,r=null;this.rollbackStartOffset=t,this._rollingBack=!0,this._running=!0;this._id=window.requestAnimationFrame((function i(u){if(n._rollingBack){null==r&&(r=u);var o=Math.round(t-(u-r)*n.speed);if(o>n.duration&&e!==1/0){var a=!!n.alternate&&o/n.duration%2>1,l=o%n.duration;o=(l+=a?n.duration:0)||n.duration}var s=(n.fps?1e3/n.fps:0)*n.speed,f=Math.max(0,o);f<e-s&&(n.offset=f,e=f,n._apply(f));var c=n.iterations>0&&-1===n.fill&&o>=n.maxFiniteDuration;(o<=0||n.offset<o||c)&&n.stop(),n._id=window.requestAnimationFrame(i)}}))}},{key:"_start",value:function(){var t=this,n=arguments.length>0&&void 0!==arguments[0]?arguments[0]:0,e=-1/0,r=null,i={};this._running=!0;var u=function u(o){null==r&&(r=o);var a=Math.round((o-r)*t.speed+n),l=(t.fps?1e3/t.fps:0)*t.speed;if(a>e+l&&!t._rollingBack&&(t.offset=a,e=a,t._apply(a,i)===t._animations.length))return void t.pause(!0);t._id=window.requestAnimationFrame(u)};this._id=window.requestAnimationFrame(u)}},{key:"_pause",value:function(){this._id&&window.cancelAnimationFrame(this._id),this._running=!1}},{key:"play",value:function(){if(!this._running)return this._rollingBack?this._rollback(this.offset):this._start(this.offset)}},{key:"stop",value:function(){this._pause(),this.offset=0,this.rollbackStartOffset=0,this._rollingBack=!1,this._apply(0)}},{key:"reachedToEnd",value:function(){return this.iterations>0&&this.offset>=this.iterations*this.duration}},{key:"restart",value:function(){var t=arguments.length>0&&void 0!==arguments[0]&&arguments[0];this.stop(t),this.play(t)}},{key:"pause",value:function(){this._pause()}},{key:"reverse",value:function(){this.direction=-this.direction}}],[{key:"build",value:function(t,n){delete t.animationSettings,t.options=at(t.options,t.root,"5c7f360c"),t.animations.map((function(n){n.settings=at(n.s,t.root,"5c7f360c"),delete n.s,t.animationSettings||(t.animationSettings=n.settings)}));var e=t.version;if(!(t=rt(t,n)))return null;var r=t.options||{},i=new this(t.animations,t.animationSettings,e);return{el:t.svg,options:r,player:i}}},{key:"push",value:function(t){return this.build(t)}},{key:"init",value:function(){var t=this,n=window.__SVGATOR_PLAYER__&&window.__SVGATOR_PLAYER__["5c7f360c"];Array.isArray(n)&&n.splice(0).forEach((function(n){return t.build(n)}))}}]),t}();function ft(t){return d(t)+""}function ct(t){var n=arguments.length>1&&void 0!==arguments[1]?arguments[1]:" ";return t&&t.length?t.map(ft).join(n):""}function ht(t){if(!t)return"transparent";if(null==t.a||t.a>=1){var n=function(t){return 1===(t=parseInt(t).toString(16)).length?"0"+t:t},e=function(t){return t.charAt(0)===t.charAt(1)},r=n(t.r),i=n(t.g),u=n(t.b);return e(r)&&e(i)&&e(u)&&(r=r.charAt(0),i=i.charAt(0),u=u.charAt(0)),"#"+r+i+u}return"rgba("+t.r+","+t.g+","+t.b+","+t.a+")"}function vt(t){return t?"url(#"+t+")":"none"}!function(){for(var t=0,n=["ms","moz","webkit","o"],e=0;e<n.length&&!window.requestAnimationFrame;++e)window.requestAnimationFrame=window[n[e]+"RequestAnimationFrame"],window.cancelAnimationFrame=window[n[e]+"CancelAnimationFrame"]||window[n[e]+"CancelRequestAnimationFrame"];window.requestAnimationFrame||(window.requestAnimationFrame=function(n){var e=Date.now(),r=Math.max(0,16-(e-t)),i=window.setTimeout((function(){n(e+r)}),r);return t=e+r,i},window.cancelAnimationFrame=window.clearTimeout)}();var yt={f:null,i:function(t,n,e){return 0===t?n:1===t?e:{x:B(t,n.x,e.x),y:B(t,n.y,e.y)}},u:function(t,n){return function(e){var r=n(e);t.setAttribute("rx",ft(r.x)),t.setAttribute("ry",ft(r.y))}}},gt={f:null,i:function(t,n,e){return 0===t?n:1===t?e:{width:B(t,n.width,e.width),height:B(t,n.height,e.height)}},u:function(t,n){return function(e){var r=n(e);t.setAttribute("width",ft(r.width)),t.setAttribute("height",ft(r.height))}}};Object.freeze({M:2,L:2,Z:0,H:1,V:1,C:6,Q:4,T:2,S:4,A:7});var dt={},pt=null;function mt(t){var n=function(){if(pt)return pt;if("object"!==("undefined"==typeof document?"undefined":e(document))||!document.createElementNS)return{};var t=document.createElementNS("http://www.w3.org/2000/svg","svg");return t&&t.style?(t.style.position="absolute",t.style.opacity="0.01",t.style.zIndex="-9999",t.style.left="-9999px",t.style.width="1px",t.style.height="1px",pt={svg:t}):{}}().svg;if(!n)return function(t){return null};var r=document.createElementNS(n.namespaceURI,"path");r.setAttributeNS(null,"d",t),r.setAttributeNS(null,"fill","none"),r.setAttributeNS(null,"stroke","none"),n.appendChild(r);var i=r.getTotalLength();return function(t){var n=r.getPointAtLength(i*t);return{x:n.x,y:n.y}}}function bt(t){return dt[t]?dt[t]:dt[t]=mt(t)}function wt(t,n,e,r){if(!t||!r)return!1;var i=["M",t.x,t.y];if(n&&e&&(i.push("C"),i.push(n.x),i.push(n.y),i.push(e.x),i.push(e.y)),n?!e:e){var u=n||e;i.push("Q"),i.push(u.x),i.push(u.y)}return n||e||i.push("L"),i.push(r.x),i.push(r.y),i.join(" ")}function xt(t,n,e,r){var i=arguments.length>4&&void 0!==arguments[4]?arguments[4]:1,u=wt(t,n,e,r),o=bt(u);try{return o(i)}catch(t){return null}}function At(t,n,e){return t+(n-t)*e}function kt(t,n,e){var r=arguments.length>3&&void 0!==arguments[3]&&arguments[3],i={x:At(t.x,n.x,e),y:At(t.y,n.y,e)};return r&&(i.a=_t(t,n)),i}function _t(t,n){return Math.atan2(n.y-t.y,n.x-t.x)}function St(t,n,e,r){var i=1-r;return i*i*t+2*i*r*n+r*r*e}function Ot(t,n,e,r){return 2*(1-r)*(n-t)+2*r*(e-n)}function jt(t,n,e,r){var i=arguments.length>4&&void 0!==arguments[4]&&arguments[4],u=xt(t,n,null,e,r);return u||(u={x:St(t.x,n.x,e.x,r),y:St(t.y,n.y,e.y,r)}),i&&(u.a=Mt(t,n,e,r)),u}function Mt(t,n,e,r){return Math.atan2(Ot(t.y,n.y,e.y,r),Ot(t.x,n.x,e.x,r))}function Pt(t,n,e,r,i){var u=i*i;return i*u*(r-t+3*(n-e))+3*u*(t+e-2*n)+3*i*(n-t)+t}function Et(t,n,e,r,i){var u=1-i;return 3*(u*u*(n-t)+2*u*i*(e-n)+i*i*(r-e))}function It(t,n,e,r,i){var u=arguments.length>5&&void 0!==arguments[5]&&arguments[5],o=xt(t,n,e,r,i);return o||(o={x:Pt(t.x,n.x,e.x,r.x,i),y:Pt(t.y,n.y,e.y,r.y,i)}),u&&(o.a=Rt(t,n,e,r,i)),o}function Rt(t,n,e,r,i){return Math.atan2(Et(t.y,n.y,e.y,r.y,i),Et(t.x,n.x,e.x,r.x,i))}function Ft(t,n,e){var r=arguments.length>3&&void 0!==arguments[3]&&arguments[3];if(Tt(n)){if(qt(e))return jt(n,e.start,e,t,r)}else if(Tt(e)){if(Bt(n))return jt(n,n.end,e,t,r)}else{if(Bt(n))return qt(e)?It(n,n.end,e.start,e,t,r):jt(n,n.end,e,t,r);if(qt(e))return jt(n,e.start,e,t,r)}return kt(n,e,t,r)}function Nt(t,n,e){var r=Ft(t,n,e,!0);return r.a=function(t){return arguments.length>1&&void 0!==arguments[1]&&arguments[1]?t+Math.PI:t}(r.a)/m,r}function Tt(t){return!t.type||"corner"===t.type}function qt(t){return null!=t.start&&!Tt(t)}function Bt(t){return null!=t.end&&!Tt(t)}var Lt=new N;var Ct={f:ft,i:q},Dt={f:ft,i:L};function zt(t,n,e){return t.map((function(t){return function(t,n,e){var r=t.v;if(!r||"g"!==r.t||r.s||!r.v||!r.r)return t;var i=e.getElementById(r.r),u=i&&i.querySelectorAll("stop")||[];return r.s=r.v.map((function(t,n){var e=u[n]&&u[n].getAttribute("offset");return{c:t,o:e=d(parseInt(e)/100)}})),delete r.v,t}(t,0,e)}))}var Vt={gt:"gradientTransform",c:{x:"cx",y:"cy"},rd:"r",f:{x:"x1",y:"y1"},to:{x:"x2",y:"y2"}};function Gt(t,n,r,i,u,o,a,l){return zt(t,0,l),n=function(t,n,e){for(var r,i,u,o=t.length-1,a={},l=0;l<=o;l++)(r=t[l]).e&&(r.e=n(r.e)),r.v&&"g"===(i=r.v).t&&i.r&&(u=e.getElementById(i.r))&&(a[i.r]={e:u,s:u.querySelectorAll("stop")});return a}(t,i,l),function(i){var u=r(i,t,Yt);if(!u)return"none";if("c"===u.t)return ht(u.v);if("g"===u.t){if(!n[u.r])return vt(u.r);var o=n[u.r];return function(t,n){for(var e=t.s,r=e.length;r<n.length;r++){var i=e[e.length-1].cloneNode();i.id=Qt(i.id),t.e.appendChild(i),e=t.s=t.e.querySelectorAll("stop")}for(var u=0,o=e.length,a=n.length-1;u<o;u++)e[u].setAttribute("stop-color",ht(n[Math.min(u,a)].c)),e[u].setAttribute("offset",n[Math.min(u,a)].o)}(o,u.s),Object.keys(Vt).forEach((function(t){if(void 0!==u[t])if("object"!==e(Vt[t])){var n,r="gt"===t?(n=u[t],Array.isArray(n)?"matrix("+n.join(" ")+")":""):u[t],i=Vt[t];o.e.setAttribute(i,r)}else Object.keys(Vt[t]).forEach((function(n){if(void 0!==u[t][n]){var e=u[t][n],r=Vt[t][n];o.e.setAttribute(r,e)}}))})),vt(u.r)}return"none"}}function Yt(t,e,r){if(0===t)return e;if(1===t)return r;if(e&&r){var i=e.t;if(i===r.t)switch(e.t){case"c":return{t:i,v:z(t,e.v,r.v)};case"g":if(e.r===r.r){var u={t:i,s:$t(t,e.s,r.s),r:e.r};return e.gt&&r.gt&&(u.gt=function(t,n,e){var r=n.length;if(r!==e.length)return T(t,n,e);for(var i=new Array(r),u=0;u<r;u++)i[u]=q(t,n[u],e[u]);return i}(t,e.gt,r.gt)),e.c?(u.c=C(t,e.c,r.c),u.rd=B(t,e.rd,r.rd)):e.f&&(u.f=C(t,e.f,r.f),u.to=C(t,e.to,r.to)),u}}if("c"===e.t&&"g"===r.t||"c"===r.t&&"g"===e.t){var o="c"===e.t?e:r,a="g"===e.t?n({},e):n({},r),l=a.s.map((function(t){return{c:o.v,o:t.o}}));return a.s="c"===e.t?$t(t,l,a.s):$t(t,a.s,l),a}}return T(t,e,r)}function $t(t,n,e){if(n.length===e.length)return n.map((function(n,r){return Ut(t,n,e[r])}));for(var r=Math.max(n.length,e.length),i=[],u=0;u<r;u++){var o=Ut(t,n[Math.min(u,n.length-1)],e[Math.min(u,e.length-1)]);i.push(o)}return i}function Ut(t,n,e){return{o:L(t,n.o,e.o||0),c:z(t,n.c,e.c||{})}}function Qt(t){return t.replace(/-fill-([0-9]+)$/,(function(t,n){return"-fill-"+(+n+1)}))}var Ht={fill:Gt,"fill-opacity":Dt,stroke:Gt,"stroke-opacity":Dt,"stroke-width":Ct,"stroke-dashoffset":{f:ft,i:q},"stroke-dasharray":{f:function(t){var n=arguments.length>1&&void 0!==arguments[1]?arguments[1]:" ";return t&&t.length>0&&(t=t.map((function(t){return d(t,4)}))),ct(t,n)},i:function(t,n,e){var r,i,u,o=n.length,a=e.length;if(o!==a)if(0===o)n=V(o=a,0);else if(0===a)a=o,e=V(o,0);else{var l=(u=(r=o)*(i=a)/function(t,n){for(var e;n;)e=n,n=t%n,t=e;return t||1}(r,i))<0?-u:u;n=G(n,Math.floor(l/o)),e=G(e,Math.floor(l/a)),o=a=l}for(var s=[],f=0;f<o;f++)s.push(d(B(t,n[f],e[f])));return s}},opacity:Dt,transform:function(t,n,r,i){if(!(t=function(t,n){if(!t||"object"!==e(t))return null;var r=!1;for(var i in t)t.hasOwnProperty(i)&&(t[i]&&t[i].length?(t[i].forEach((function(t){t.e&&(t.e=n(t.e))})),r=!0):delete t[i]);return r?t:null}(t,i)))return null;var u=function(e,i,u){var o=arguments.length>3&&void 0!==arguments[3]?arguments[3]:null;return t[e]?r(i,t[e],u):n&&n[e]?n[e]:o};return n&&n.a&&t.o?function(n){var e=r(n,t.o,Nt);return Lt.recomposeSelf(e,u("r",n,q,0)+e.a,u("k",n,C),u("s",n,C),u("t",n,C)).toString()}:function(t){return Lt.recomposeSelf(u("o",t,Ft,null),u("r",t,q,0),u("k",t,C),u("s",t,C),u("t",t,C)).toString()}},r:Ct,"#size":gt,"#radius":yt,_:function(t,n){if(Array.isArray(t))for(var e=0;e<t.length;e++)this[t[e]]=n;else this[t]=n}},Jt=function(t){!function(t,n){if("function"!=typeof n&&null!==n)throw new TypeError("Super expression must either be null or a function");t.prototype=Object.create(n&&n.prototype,{constructor:{value:t,writable:!0,configurable:!0}}),n&&l(t,n)}(o,t);var n,e,i=(n=o,e=s(),function(){var t,r=a(n);if(e){var i=a(this).constructor;t=Reflect.construct(r,arguments,i)}else t=r.apply(this,arguments);return c(this,t)});function o(){return r(this,o),i.apply(this,arguments)}return u(o,null,[{key:"build",value:function(t){var n=h(a(o),"build",this).call(this,t,Ht);if(!n)return null;n.el,n.options,function(t,n,e){t.play()}(n.player)}}]),o}(st);return Jt.init(),Jt}));
(function(s,i,o,w,a,b){w[o]=w[o]||{};w[o][s]=w[o][s]||[];w[o][s].push(i);})('5c7f360c',{"root":"head_and_drop","version":"2022-05-04","animations":[{"elements":{"head_and_drop-u-line":{"transform":{"data":{"t":{"x":-646.041016,"y":-362.949219}},"keys":{"o":[{"t":0,"v":{"x":586,"y":362.949219,"type":"corner"}},{"t":2000,"v":{"x":646.04,"y":362.949219,"type":"corner"}}]}},"opacity":[{"t":0,"v":0},{"t":2000,"v":1}]},"head_and_drop-u-drop":{"transform":{"data":{"t":{"x":-1347.273804,"y":-635.731323}},"keys":{"o":[{"t":0,"v":{"x":1347.273804,"y":596,"type":"corner"},"e":[0,0,0.58,1]},{"t":2000,"v":{"x":1347.273804,"y":635.73,"type":"corner"}}]}},"opacity":[{"t":0,"v":0,"e":[0,0,0.58,1]},{"t":2000,"v":1}]},"head_and_drop-u-drop_line":{"opacity":[{"t":0,"v":0},{"t":300,"v":0.7},{"t":2000,"v":1}]},"head_and_drop-u-c":{"opacity":[{"t":0,"v":0,"e":[1,0]},{"t":200,"v":1}]},"head_and_drop-u-o":{"opacity":[{"t":0,"v":0,"e":[1,0]},{"t":400,"v":1}]},"head_and_drop-u-m":{"opacity":[{"t":0,"v":0,"e":[1,0]},{"t":600,"v":1}]},"head_and_drop-u-i":{"opacity":[{"t":0,"v":0,"e":[1,0]},{"t":800,"v":1}]},"head_and_drop-u-n":{"opacity":[{"t":0,"v":0,"e":[1,0]},{"t":1000,"v":1}]},"head_and_drop-s-g43":{"opacity":[{"t":0,"v":0,"e":[1,0]},{"t":1200,"v":1}]},"head_and_drop-u-s":{"opacity":[{"t":0,"v":0,"e":[1,0]},{"t":1400,"v":1}]},"head_and_drop-u-o2":{"opacity":[{"t":0,"v":0,"e":[1,0]},{"t":1600,"v":1}]},"head_and_drop-u-o3":{"opacity":[{"t":0,"v":0,"e":[1,0]},{"t":1800,"v":1}]},"head_and_drop-u-n2":{"opacity":[{"t":0,"v":0,"e":[1,0]},{"t":2000,"v":1}]}},"s":"MPDA1ZGI1NWM5ZWFmYWTM5YmFlYTNhOU1hODVWjNzQ2YzZhNmE2YTY2YTDVjOWVhM2FjOWY5ZXGFlYTNhOWE4NWM3NDYZiNjY1Y2EzYWU5ZmFDjOWJhZWEzYTlhOGFkYNWM3NDZiNjY1Y2EwYUTNhNmE2NWM3NDZiVjFY2NWM5YmE2Uk1hZTlRmYWNYYTg5YmFlOWY1JYzc0YTA5YmE2YWQ5ZYjY2NWNZYWRhYTlmOWTY5ZTVjNzQ2YjY2NWNYhMGFhYWQ1Y1c3NDZiMNmFJNmFiN0k/"}],"options":"MSDAxMDk0UzNiOGM4ZDJdhOGI4ZDNiNTMzYjgE1ODg3YVI3ZDNiOTY/L"},'__SVGATOR_PLAYER__',window)
]]></script>
</svg>
