<svg id="e4IzujKiCYp1" xmlns="http://www.w3.org/2000/svg" xmlns:xlink="http://www.w3.org/1999/xlink" viewBox="310 310 786 100" shape-rendering="geometricPrecision" text-rendering="geometricPrecision">
<style><![CDATA[
#e4IzujKiCYp30_to {animation: e4IzujKiCYp30_to__to 2000ms linear 1 normal forwards}@keyframes e4IzujKiCYp30_to__to { 0% {transform: translate(586px,362.949219px)} 100% {transform: translate(646.041016px,362.949219px)}} #e4IzujKiCYp30 {animation: e4IzujKiCYp30_c_o 2000ms linear 1 normal forwards}@keyframes e4IzujKiCYp30_c_o { 0% {opacity: 0} 100% {opacity: 1}} #e4IzujKiCYp35 {animation: e4IzujKiCYp35_c_o 2000ms linear 1 normal forwards}@keyframes e4IzujKiCYp35_c_o { 0% {opacity: 0;animation-timing-function: step-end} 10% {opacity: 1} 100% {opacity: 1}} #e4IzujKiCYp39 {animation: e4IzujKiCYp39_c_o 2000ms linear 1 normal forwards}@keyframes e4IzujKiCYp39_c_o { 0% {opacity: 0;animation-timing-function: step-end} 20% {opacity: 1} 100% {opacity: 1}} #e4IzujKiCYp43 {animation: e4IzujKiCYp43_c_o 2000ms linear 1 normal forwards}@keyframes e4IzujKiCYp43_c_o { 0% {opacity: 0;animation-timing-function: step-end} 30% {opacity: 1} 100% {opacity: 1}} #e4IzujKiCYp47 {animation: e4IzujKiCYp47_c_o 2000ms linear 1 normal forwards}@keyframes e4IzujKiCYp47_c_o { 0% {opacity: 0;animation-timing-function: step-end} 40% {opacity: 1} 100% {opacity: 1}} #e4IzujKiCYp51 {animation: e4IzujKiCYp51_c_o 2000ms linear 1 normal forwards}@keyframes e4IzujKiCYp51_c_o { 0% {opacity: 0;animation-timing-function: step-end} 50% {opacity: 1} 100% {opacity: 1}} #e4IzujKiCYp55 {animation: e4IzujKiCYp55_c_o 2000ms linear 1 normal forwards}@keyframes e4IzujKiCYp55_c_o { 0% {opacity: 0;animation-timing-function: step-end} 60% {opacity: 1} 100% {opacity: 1}} #e4IzujKiCYp59 {animation: e4IzujKiCYp59_c_o 2000ms linear 1 normal forwards}@keyframes e4IzujKiCYp59_c_o { 0% {opacity: 0;animation-timing-function: step-end} 70% {opacity: 1} 100% {opacity: 1}} #e4IzujKiCYp63 {animation: e4IzujKiCYp63_c_o 2000ms linear 1 normal forwards}@keyframes e4IzujKiCYp63_c_o { 0% {opacity: 0;animation-timing-function: step-end} 80% {opacity: 1} 100% {opacity: 1}} #e4IzujKiCYp67 {animation: e4IzujKiCYp67_c_o 2000ms linear 1 normal forwards}@keyframes e4IzujKiCYp67_c_o { 0% {opacity: 0;animation-timing-function: step-end} 90% {opacity: 1} 100% {opacity: 1}} #e4IzujKiCYp71 {animation: e4IzujKiCYp71_c_o 2000ms linear 1 normal forwards}@keyframes e4IzujKiCYp71_c_o { 0% {opacity: 0;animation-timing-function: step-end} 100% {opacity: 1}}
]]></style>
<g><g transform="translate(573.937 390.542)"><g><path d="M29.800781,0.855469c14.523438,0,23.445313-9.207031,23.445313-24.109375v-43.183594h-7.023438v42.898438c0,11.390624-6.359375,18.035156-16.421875,18.035156-10.058593,0-16.324219-6.644532-16.324219-18.035156v-42.898438h-7.023437v43.183594c0,14.902344,8.921875,24.109375,23.347656,24.109375Zm0,0"/></g></g></g><g><g transform="translate(656.127 390.542)"><g><path d="M15.089844,0v-53.054688L49.925781,0h5.882813v-66.4375h-7.023438v52.582031L14.238281,-66.4375h-6.171875v66.4375Zm0,0"/></g></g></g><g><g transform="translate(742.494 390.542)"><g><path d="M53.152344,0L35.210938,-24.867188c11.296874-2.089843,17.464843-9.300781,17.464843-20.5c0-13.667968-9.109375-21.070312-24.296875-21.070312h-20.3125v66.4375h7.023438v-24.296875h12.054687L44.609375,0ZM28.1875,-60.078125c11.203125,0,17.371094,5.125,17.371094,14.710937c0,10.058594-6.359375,14.804688-17.464844,14.804688h-13.003906v-29.515625Zm0,0"/></g></g></g><g><g transform="translate(821.742 390.542)"><g><path d="M59.414062,0L34.453125,-66.4375h-7.496094L1.992188,0h7.308593l5.980469-15.945312h30.847656L52.011719,0ZM30.65625,-57.421875l13.097656,35.117187h-26.101562Zm0,0"/></g></g></g><g><g transform="translate(905.641 390.542)"><g><path d="M15.089844,0v-66.4375h-7.023438v66.4375Zm0,0"/></g></g></g><g><g transform="translate(951.293 390.542)"><g><path d="M15.089844,0v-53.054688L49.925781,0h5.882813v-66.4375h-7.023438v52.582031L14.238281,-66.4375h-6.171875v66.4375Zm0,0"/></g></g></g><g><g transform="translate(1037.66 390.542)"><g><path d="M45.082031,-66.4375l-17.9375,35.78125L9.113281,-66.4375h-7.59375l22.019531,43.753906v22.683594h7.117188v-22.683594L52.675781,-66.4375Zm0,0"/></g></g></g><g id="e4IzujKiCYp30_to" transform="translate(586,362.949219)"><g id="e4IzujKiCYp30" transform="translate(-646.041016,-362.949219)" opacity="0" clip-path="url(#e4IzujKiCYp33)"><g><path d="M725.269531,361.894531h-167.328125v2.109375h176.199219v-2.109375h-8.871094"/></g><clipPath id="e4IzujKiCYp33" transform="translate(.000001 0)"><path d="M557.914062,361h176.25v4h-176.25Zm0,0" transform="translate(.000001 0)"/></clipPath></g></g><g id="e4IzujKiCYp35" opacity="0"><g transform="translate(332.22 363.171)"><g><path d="M19.765625,-11.46875c-.570313-1.992188-1.667969-3.617188-3.253906-4.878906-1.667969-1.261719-3.496094-1.914063-5.53125-1.914063-2.5625,0-4.757813.9375-6.507813,2.765625-1.789062,1.832032-2.644531,4.027344-2.644531,6.550782c0,2.558593.855469,4.714843,2.644531,6.585937.8125.855469,1.75,1.546875,2.886719,2.035156c1.097656.488281,2.238281.730469,3.375.730469c1.140625,0,2.15625-.121094,3.050781-.445312c2.847656-1.019532,4.800782-2.929688,5.816406-5.816407h-3.210937c-.570313,1.015625-1.304687,1.828125-2.277344,2.398438-.976562.609375-1.996093.894531-3.132812.894531-1.75,0-3.214844-.609375-4.433594-1.871094s-1.789063-2.765625-1.789063-4.511718c0-1.667969.570313-3.171876,1.789063-4.433594.570313-.570313,1.21875-1.058594,1.992187-1.382813.734376-.324219,1.667969-.53125,2.726563-.53125s2.074219.367188,3.128906,1.058594c1.019531.734375,1.792969,1.628906,2.277344,2.765625Zm0,0"/></g></g></g><g id="e4IzujKiCYp39" opacity="0"><g transform="translate(353.407 363.171)"><g><path d="M17.691406,-9.027344c0,1.789063-.652344,3.292969-1.914062,4.554688-1.300782,1.300781-2.804688,1.910156-4.59375,1.910156s-3.335938-.609375-4.59375-1.910156c-1.304688-1.261719-1.914063-2.765625-1.914063-4.554688s.609375-3.296875,1.914063-4.597656c1.257812-1.257812,2.804687-1.910156,4.59375-1.910156s3.292968.652344,4.59375,1.910156c1.261718,1.300781,1.914062,2.808594,1.914062,4.597656Zm2.847656,0c0-2.5625-.9375-4.757812-2.765624-6.589844-1.832032-1.828124-4.027344-2.765624-6.589844-2.765624-2.601563,0-4.796875.9375-6.628906,2.765624-1.828126,1.832032-2.726563,4.027344-2.726563,6.589844c0,2.601563.898437,4.796875,2.726563,6.585938c1.832031,1.832031,4.066406,2.726562,6.628906,2.726562c2.519531,0,4.757812-.894531,6.589844-2.726562c1.828124-1.789063,2.765624-3.984375,2.765624-6.585938Zm0,0"/></g></g></g><g id="e4IzujKiCYp43" opacity="0"><g transform="translate(375.775 363.171)"><g><path d="M25.742188,-0.082031h2.847656v-11.183594c0-1.992187-.527344-3.660156-1.503906-4.960937-.488282-.652344-1.140626-1.136719-1.871094-1.546876-.773438-.40625-1.789063-.609374-3.011719-.609374-1.257813,0-2.355469.367187-3.292969,1.019531-.855468.648437-1.546875,1.421875-2.113281,2.398437-.203125-.449218-.449219-.855468-.734375-1.261718-.488281-.652344-1.136719-1.136719-1.871094-1.546876-.769531-.40625-1.789062-.609374-3.007812-.609374-1.261719,0-2.359375.367187-3.292969,1.019531-.8125.609375-1.464844,1.339843-1.992187,2.277343v-2.890624h-2.847657v17.894531h2.847657v-9.148438c.121093-1.425781.488281-2.683593,1.097656-3.703125.40625-.730468,1.015625-1.382812,1.746094-1.871094.734374-.488281,1.507812-.730468,2.359374-.730468.8125,0,1.464844.164062,1.871094.40625c1.140625.734375,1.75,2.035156,1.75,3.863281v11.183594h2.847656v-11.183594c0-.203125-.042968-.445313-.042968-.648437.121094-.367188.285156-.691407.488281-1.019532.40625-.730468,1.015625-1.382812,1.75-1.871094.730469-.488281,1.503906-.730468,2.359375-.730468.8125,0,1.460938.164062,1.867188.40625c1.140624.734375,1.75,2.035156,1.75,3.863281Zm0,0"/></g></g></g><g id="e4IzujKiCYp47" opacity="0"><g transform="translate(406.804 363.171)"><g><path d="M5.9375,-24.074219c-.367188-.328125-.8125-.53125-1.300781-.53125s-.9375.203125-1.261719.53125c-.367188.363281-.527344.8125-.527344,1.300781s.160156.933594.527344,1.261719c.324219.363281.773438.527344,1.261719.527344s.933593-.164063,1.300781-.527344c.324219-.328125.527344-.773437.527344-1.261719s-.203125-.9375-.527344-1.300781ZM6.101562,0v-17.894531h-2.847656v17.894531Zm0,0"/></g></g></g><g id="e4IzujKiCYp51" opacity="0"><g transform="translate(416.117 363.171)"><g><path d="M15.414062,0h2.847657v-11.183594c0-2.074218-.570313-3.742187-1.628907-5.003906-.570312-.648438-1.21875-1.136719-1.992187-1.503906-.8125-.363282-1.832031-.570313-3.089844-.570313-1.300781,0-2.402343.367188-3.375,1.019531-.9375.609376-1.710937,1.421876-2.277343,2.4375v-3.089843h-2.847657v17.894531h2.847657v-7.484375c0-2.277344.40625-4.066406,1.257812-5.40625.488281-.734375,1.097656-1.34375,1.871094-1.832031.734375-.445313,1.75-.691406,2.96875-.691406c1.222656,0,2.074218.449218,2.605468,1.261718.527344.8125.8125,1.828125.8125,2.96875Zm0,0"/></g></g></g><g id="e4IzujKiCYp55" opacity="0"><g transform="translate(436.817 363.171)"><g><path d="M17.527344,-8.945312c0,1.746093-.609375,3.292968-1.828125,4.554687-1.222657,1.300781-2.726563,1.949219-4.476563,1.949219-1.746094,0-3.25-.648438-4.472656-1.949219-1.21875-1.261719-1.828125-2.765625-1.828125-4.554687c0-1.75.609375-3.253907,1.828125-4.554688c1.222656-1.304688,2.726562-1.953125,4.472656-1.953125c1.75,0,3.253906.648437,4.476563,1.953125c1.21875,1.300781,1.828125,2.84375,1.828125,4.554688ZM4.839844,2.441406h-2.929688c.328125,1.910156,1.179688,3.578125,2.644532,5c1.789062,1.832032,3.984374,2.726563,6.546874,2.726563c2.523438,0,4.71875-.894531,6.546876-2.726563C19.4375,5.652344,20.375,3.457031,20.375,0.894531v-18.789062h-2.847656v3.011719c-.164063-.164063-.324219-.367188-.488282-.570313-1.789062-1.871094-3.863281-2.847656-6.222656-2.847656-2.519531,0-4.59375.976562-6.300781,2.847656-1.628906,1.871094-2.441406,4.027344-2.441406,6.507813c0,2.519531.8125,4.675781,2.441406,6.503906c1.707031,1.914062,3.78125,2.847656,6.300781,2.847656c2.441406,0,4.515625-.933594,6.222656-2.847656.164063-.160156.324219-.363282.488282-.527344v3.863281c0,1.789063-.648438,3.292969-1.910156,4.554688s-2.765626,1.871093-4.515626,1.871093c-1.789062,0-3.292968-.609374-4.554687-1.871093-.894531-.894531-1.464844-1.871094-1.707031-3.007813Zm0,0"/></g></g></g><g id="e4IzujKiCYp59" opacity="0"><g transform="translate(471.222 363.171)"><g><path d="M5.613281,-2.519531c-.691406-.488281-1.222656-1.304688-1.503906-2.484375h-3.011719c.609375,3.703125,2.96875,5.53125,7.117188,5.53125.976562,0,1.871094-.078125,2.726562-.324219.851563-.242187,1.585938-.570313,2.277344-1.015625c1.382812-.9375,2.074219-2.359375,2.074219-4.269531c0-1.953125-.898438-3.335938-2.765625-4.230469-.773438-.367188-1.628906-.652344-2.5625-.855469-.894532-.203125-1.75-.445312-2.523438-.691406-.8125-.242187-1.464844-.566406-1.992187-.933594s-.8125-.9375-.8125-1.75.324219-1.421875.976562-1.789062c.648438-.40625,1.421875-.609375,2.277344-.609375.894531,0,1.667969.203125,2.277344.527344.609375.328124,1.097656.976562,1.382812,1.953124h3.050781c-.367187-1.789062-1.140624-3.050781-2.277343-3.742187-1.179688-.730469-2.605469-1.097656-4.351563-1.097656-1.710937,0-3.214844.488281-4.476562,1.382812-1.21875.933594-1.871094,2.277344-1.871094,4.066407c0,.855468.246094,1.628906.691406,2.277343.488282.691407,1.179688,1.21875,2.074219,1.628907.816406.363281,1.667969.648437,2.5625.894531.894531.203125,1.75.445312,2.5625.691406c1.832031.609375,2.765625,1.503906,2.765625,2.640625c0,1.953125-1.300781,2.890625-3.902344,2.890625-1.097656,0-2.035156-.207031-2.765625-.691406Zm0,0"/></g></g></g><g id="e4IzujKiCYp63" opacity="0"><g transform="translate(487.57 363.171)"><g><path d="M17.691406,-9.027344c0,1.789063-.652344,3.292969-1.914062,4.554688-1.300782,1.300781-2.804688,1.910156-4.59375,1.910156s-3.335938-.609375-4.59375-1.910156c-1.304688-1.261719-1.914063-2.765625-1.914063-4.554688s.609375-3.296875,1.914063-4.597656c1.257812-1.257812,2.804687-1.910156,4.59375-1.910156s3.292968.652344,4.59375,1.910156c1.261718,1.300781,1.914062,2.808594,1.914062,4.597656Zm2.847656,0c0-2.5625-.9375-4.757812-2.765624-6.589844-1.832032-1.828124-4.027344-2.765624-6.589844-2.765624-2.601563,0-4.796875.9375-6.628906,2.765624-1.828126,1.832032-2.726563,4.027344-2.726563,6.589844c0,2.601563.898437,4.796875,2.726563,6.585938c1.832031,1.832031,4.066406,2.726562,6.628906,2.726562c2.519531,0,4.757812-.894531,6.589844-2.726562c1.828124-1.789063,2.765624-3.984375,2.765624-6.585938Zm0,0"/></g></g></g><g id="e4IzujKiCYp67" opacity="0"><g transform="translate(509.937 363.171)"><g><path d="M17.691406,-9.027344c0,1.789063-.652344,3.292969-1.914062,4.554688-1.300782,1.300781-2.804688,1.910156-4.59375,1.910156s-3.335938-.609375-4.59375-1.910156c-1.304688-1.261719-1.914063-2.765625-1.914063-4.554688s.609375-3.296875,1.914063-4.597656c1.257812-1.257812,2.804687-1.910156,4.59375-1.910156s3.292968.652344,4.59375,1.910156c1.261718,1.300781,1.914062,2.808594,1.914062,4.597656Zm2.847656,0c0-2.5625-.9375-4.757812-2.765624-6.589844-1.832032-1.828124-4.027344-2.765624-6.589844-2.765624-2.601563,0-4.796875.9375-6.628906,2.765624-1.828126,1.832032-2.726563,4.027344-2.726563,6.589844c0,2.601563.898437,4.796875,2.726563,6.585938c1.832031,1.832031,4.066406,2.726562,6.628906,2.726562c2.519531,0,4.757812-.894531,6.589844-2.726562c1.828124-1.789063,2.765624-3.984375,2.765624-6.585938Zm0,0"/></g></g></g><g id="e4IzujKiCYp71" opacity="0"><g transform="translate(532.304 363.171)"><g><path d="M15.414062,0h2.847657v-11.183594c0-2.074218-.570313-3.742187-1.628907-5.003906-.570312-.648438-1.21875-1.136719-1.992187-1.503906-.8125-.363282-1.832031-.570313-3.089844-.570313-1.300781,0-2.402343.367188-3.375,1.019531-.9375.609376-1.710937,1.421876-2.277343,2.4375v-3.089843h-2.847657v17.894531h2.847657v-7.484375c0-2.277344.40625-4.066406,1.257812-5.40625.488281-.734375,1.097656-1.34375,1.871094-1.832031.734375-.445313,1.75-.691406,2.96875-.691406c1.222656,0,2.074218.449218,2.605468,1.261718.527344.8125.8125,1.828125.8125,2.96875Zm0,0"/></g></g></g></svg>
