<svg id="eLUEZpgN4W71" xmlns="http://www.w3.org/2000/svg" xmlns:xlink="http://www.w3.org/1999/xlink" viewBox="0 90 100 590" shape-rendering="geometricPrecision" text-rendering="geometricPrecision"><g transform="translate(-633.068023 0)"><g><g transform="translate(147.153 541.573)"><g><path d="M549.46,118.83h-40.66v3.8h40.67v-3.8Z"/></g></g></g><g><g transform="translate(147.153 532.626)"><g><path d="M537.54,100.67c2.33,0,4.39.82,6.07,2.44c1.73,1.63,2.6,3.63,2.6,5.96c0,2.39-.86,4.39-2.6,6.02-1.68,1.63-3.74,2.39-6.07,2.39-2.28,0-4.34-.76-6.07-2.39-1.74-1.63-2.6-3.64-2.6-6.02c0-2.33.86-4.34,2.6-5.96c1.73-1.62,3.79-2.44,6.07-2.44Zm11.92-3.79h-23.86v3.79h4.12c-.32.22-.59.49-.86.71-2.49,2.28-3.8,5.04-3.8,8.3c0,3.31,1.3,6.07,3.8,8.35c2.49,2.17,5.37,3.26,8.68,3.26c3.36,0,6.23-1.09,8.67-3.26c2.55-2.28,3.8-5.04,3.8-8.35c0-3.26-1.24-6.02-3.8-8.3-.21-.22-.48-.49-.81-.71h4.07v-3.79Z"/></g></g></g><g><g transform="translate(147.153 509.446)"><g><path d="M549.46,95.44v-3.8h-14.91c-2.77,0-4.99.76-6.67,2.17-.86.76-1.52,1.63-2.01,2.66-.48,1.08-.76,2.44-.76,4.12c0,1.73.49,3.2,1.36,4.5.81,1.25,1.9,2.28,3.25,3.04h-4.12v3.8h23.86v-3.8h-9.98c-3.04,0-5.42-.54-7.21-1.68-.98-.65-1.79-1.46-2.44-2.49-.59-.98-.92-2.33-.92-3.96s.6-2.77,1.68-3.47s2.44-1.08,3.96-1.08h14.91Z"/></g></g></g><g><g transform="translate(147.153 488.746)"><g><path d="M537.54,86.04c2.33,0,4.39.82,6.07,2.44c1.73,1.63,2.6,3.63,2.6,5.96c0,2.39-.86,4.39-2.6,6.02-1.68,1.63-3.74,2.39-6.07,2.39-2.28,0-4.34-.76-6.07-2.39-1.74-1.63-2.6-3.64-2.6-6.02c0-2.33.86-4.34,2.6-5.96c1.73-1.62,3.79-2.44,6.07-2.44Zm11.92-3.79h-40.66v3.79h20.93c-.32.22-.59.49-.86.71-2.49,2.28-3.8,5.04-3.8,8.3c0,3.31,1.3,6.07,3.8,8.35c2.49,2.17,5.37,3.26,8.68,3.26c3.36,0,6.23-1.09,8.67-3.26c2.55-2.28,3.8-5.04,3.8-8.35c0-3.26-1.24-6.02-3.8-8.3-.21-.22-.48-.49-.81-.71h4.07v-3.79Z"/></g></g></g><g><g transform="translate(147.153 465.565)"><g><path d="M546.11,93.88c-.65.92-1.74,1.63-3.31,2.01v4.02c4.94-.81,7.38-3.96,7.38-9.49c0-1.3-.1-2.49-.43-3.64-.32-1.14-.76-2.11-1.35-3.04-1.25-1.84-3.15-2.77-5.69-2.77-2.6,0-4.45,1.2-5.64,3.69-.49,1.03-.87,2.17-1.14,3.42-.27,1.19-.59,2.33-.92,3.36-.32,1.08-.76,1.95-1.24,2.66s-1.25,1.08-2.33,1.08-1.9-.43-2.39-1.3c-.54-.86-.81-1.9-.81-3.04c0-1.19.27-2.22.7-3.04.44-.81,1.3-1.46,2.6-1.84v-4.07c-2.39.49-4.07,1.52-4.99,3.04-.97,1.57-1.46,3.47-1.46,5.8c0,2.28.65,4.29,1.84,5.97c1.24,1.63,3.04,2.49,5.42,2.49c1.14,0,2.17-.33,3.04-.92.92-.65,1.63-1.57,2.17-2.77.48-1.09.86-2.22,1.19-3.42.27-1.19.59-2.33.92-3.42.81-2.44,2.01-3.69,3.52-3.69c2.6,0,3.85,1.73,3.85,5.2-.01,1.48-.29,2.73-.93,3.71Z"/></g></g></g><g><g transform="translate(147.153 449.217)"><g><path d="M534.17,69.56c-2.66.76-4.82,2.22-6.51,4.34-1.68,2.22-2.55,4.66-2.55,7.38c0,3.42,1.25,6.34,3.69,8.68c2.44,2.39,5.37,3.53,8.73,3.53c3.41,0,6.29-1.14,8.78-3.53c1.14-1.08,2.06-2.33,2.71-3.85.65-1.46.97-2.98.97-4.5s-.16-2.88-.59-4.07c-1.36-3.8-3.91-6.4-7.76-7.76v4.28c1.35.76,2.44,1.74,3.2,3.04.81,1.3,1.19,2.66,1.19,4.18c0,2.33-.81,4.29-2.49,5.91s-3.69,2.39-6.02,2.39c-2.22,0-4.23-.76-5.91-2.39-.76-.76-1.41-1.63-1.84-2.66-.43-.98-.71-2.22-.71-3.64s.49-2.77,1.41-4.17c.98-1.36,2.17-2.39,3.69-3.04v-4.12Z"/></g></g></g><g><g transform="translate(147.153 428.029)"><g><path d="M537.54,65.8c2.33,0,4.39.82,6.07,2.44c1.73,1.63,2.6,3.63,2.6,5.96c0,2.39-.86,4.39-2.6,6.02-1.68,1.63-3.74,2.39-6.07,2.39-2.28,0-4.34-.76-6.07-2.39-1.74-1.63-2.6-3.64-2.6-6.02c0-2.33.86-4.34,2.6-5.96c1.73-1.62,3.79-2.44,6.07-2.44Zm11.92-3.79h-23.86v3.79h4.12c-.32.22-.59.49-.86.71-2.49,2.28-3.8,5.04-3.8,8.3c0,3.31,1.3,6.07,3.8,8.35c2.49,2.17,5.37,3.26,8.68,3.26c3.36,0,6.23-1.09,8.67-3.26c2.55-2.28,3.8-5.04,3.8-8.35c0-3.26-1.24-6.02-3.8-8.3-.21-.22-.48-.49-.81-.71h4.07v-3.79Z"/></g></g></g><g><g transform="translate(147.153 404.849)"><g><path d="M563.02,73.26h-17.62c.33-.16.6-.43.81-.65c2.55-2.28,3.8-5.04,3.8-8.35c0-3.25-1.24-6.02-3.8-8.3-2.44-2.17-5.31-3.31-8.67-3.31-3.31,0-6.18,1.14-8.68,3.31-2.49,2.28-3.8,5.05-3.8,8.3c0,3.31,1.3,6.07,3.8,8.35.27.22.54.49.86.65h-4.12v3.8h37.42v-3.8ZM537.54,56.45c2.33,0,4.39.81,6.07,2.44c1.73,1.63,2.6,3.63,2.6,5.96c0,2.39-.86,4.39-2.6,6.02-1.68,1.63-3.74,2.39-6.07,2.39-2.28,0-4.34-.76-6.07-2.39-1.74-1.63-2.6-3.63-2.6-6.02c0-2.33.86-4.34,2.6-5.96c1.73-1.63,3.79-2.44,6.07-2.44Z"/></g></g></g><g><g transform="translate(147.153 381.668)"><g><path d="M536.99,46.01c-3.25,0-6.07,1.3-8.51,3.8-2.33,2.44-3.53,5.37-3.53,8.68c0,3.47,1.25,6.4,3.69,8.84s5.37,3.64,8.79,3.64c3.47,0,6.4-1.2,8.78-3.64c1.14-1.14,2.01-2.44,2.66-3.96s.98-3.31.98-5.42-.65-4.18-1.95-6.23c-1.3-2.06-3.15-3.58-5.42-4.61v4.34c1.14.86,2.01,1.9,2.66,3.14.65,1.25.92,2.55.92,3.91c0,2.06-.65,3.91-2.01,5.53-1.3,1.63-2.98,2.66-5.04,2.98v-21h-2.02Zm-1.24,4.02v16.92c-.97-.22-1.9-.59-2.77-1.14-2.82-1.73-4.23-4.17-4.23-7.32c0-2.01.65-3.8,1.95-5.37c1.36-1.63,3.04-2.6,5.05-3.09Z"/></g></g></g><g><g transform="translate(147.153 359.504)"><g><path d="M546.11,58.52c-.65.92-1.74,1.63-3.31,2.01v4.02c4.94-.81,7.38-3.96,7.38-9.49c0-1.3-.1-2.49-.43-3.64-.32-1.14-.76-2.11-1.35-3.04-1.25-1.84-3.15-2.77-5.69-2.77-2.6,0-4.45,1.2-5.64,3.69-.49,1.03-.87,2.17-1.14,3.42-.27,1.19-.59,2.33-.92,3.36-.32,1.08-.76,1.95-1.24,2.66s-1.25,1.08-2.33,1.08-1.9-.43-2.39-1.3c-.54-.86-.81-1.9-.81-3.04c0-1.19.27-2.22.7-3.04.44-.81,1.3-1.46,2.6-1.84v-4.07c-2.39.49-4.07,1.52-4.99,3.04-.97,1.57-1.46,3.47-1.46,5.8c0,2.28.65,4.29,1.84,5.97c1.24,1.63,3.04,2.49,5.42,2.49c1.14,0,2.17-.33,3.04-.92.92-.65,1.63-1.57,2.17-2.77.48-1.09.86-2.22,1.19-3.42.27-1.19.59-2.33.92-3.42.81-2.44,2.01-3.69,3.52-3.69c2.6,0,3.85,1.73,3.85,5.2-.01,1.49-.29,2.74-.93,3.71Z"/></g></g></g><g><g transform="translate(147.153 332.175)"><g><path d="M530.76,42.64l10.36-8.08c.54.54,1.14,1.14,1.73,1.79c2.28,2.39,3.36,4.61,3.36,6.56c0,1.84-.7,3.47-2.17,4.77-1.41,1.3-3.04,1.95-4.88,1.95-1.52,0-3.15-.87-4.93-2.66-.82-.81-1.95-2.22-3.47-4.33Zm-6.02.32c-1.68,1.63-3.26,2.39-4.88,2.39-1.57,0-2.71-.43-3.47-1.35-.7-.86-1.03-1.9-.97-2.98.05-1.09.43-2.11,1.19-3.04.76-.87,1.84-1.36,3.15-1.36c1.35,0,2.6.6,3.74,1.73.54.55.98,1.09,1.41,1.68.43.6.81,1.14,1.19,1.68-.44.44-.93.82-1.36,1.25Zm10.35-18.33l-2.06,3.09l2.6,2.06c.87.7,1.73,1.41,2.6,2.11l-9.71,7.59c-.54-.65-1.08-1.41-1.73-2.17-2.33-2.82-4.72-4.23-7.1-4.23-2.22,0-4.06.76-5.53,2.28-1.41,1.46-2.11,3.31-2.11,5.58c0,2.39.76,4.34,2.28,5.75c1.52,1.46,3.42,2.17,5.69,2.17s4.93-1.3,7.92-3.9c.81,1.08,1.57,2.17,2.33,3.14c2.55,3.53,5.64,5.26,9.16,5.26c3.09,0,5.64-.97,7.7-3.04.98-.97,1.68-2.11,2.22-3.42.54-1.3.76-2.82.76-4.5c0-1.73-.65-3.63-2.06-5.85-.65-1.14-1.9-2.55-3.74-4.39l5.26-4.02-.11-4.99-8.3,6.34c-3.25-2.68-5.3-4.31-6.07-4.86Z"/></g></g></g><g><g transform="translate(147.153 293.175)"><g><path d="M537.54,20.53c2.33,0,4.39.81,6.07,2.44c1.73,1.63,2.6,3.64,2.6,5.97s-.86,4.33-2.6,5.96c-1.68,1.63-3.69,2.44-6.07,2.44-2.33,0-4.34-.81-6.07-2.44-1.74-1.63-2.6-3.64-2.6-5.96c0-2.33.86-4.34,2.6-5.97c1.73-1.63,3.79-2.44,6.07-2.44Zm15.18,16.92v3.91c2.55-.44,4.77-1.57,6.67-3.53c2.44-2.39,3.64-5.31,3.64-8.73c0-3.36-1.19-6.29-3.64-8.73-2.39-2.39-5.31-3.64-8.73-3.64h-25.05v3.8h4.02c-.22.22-.49.43-.76.65-2.49,2.39-3.8,5.15-3.8,8.3c0,3.36,1.3,6.13,3.8,8.4c2.49,2.17,5.37,3.26,8.68,3.26c3.36,0,6.23-1.08,8.67-3.26c2.55-2.28,3.8-5.04,3.8-8.4c0-3.26-1.24-6.02-3.8-8.3-.21-.22-.48-.43-.7-.65h5.15c2.39,0,4.39.86,6.07,2.55c1.68,1.68,2.49,3.69,2.49,6.02c0,2.39-.81,4.39-2.49,6.07-1.2,1.19-2.5,1.95-4.02,2.28Z"/></g></g></g><g><g transform="translate(147.153 269.751)"><g><path d="M537.54,13.04c2.33,0,4.39.82,6.07,2.44c1.73,1.62,2.6,3.63,2.6,5.96c0,2.39-.86,4.39-2.6,6.02-1.68,1.63-3.74,2.39-6.07,2.39-2.28,0-4.34-.76-6.07-2.39-1.74-1.63-2.6-3.64-2.6-6.02c0-2.33.86-4.34,2.6-5.96c1.73-1.62,3.79-2.44,6.07-2.44Zm11.92-3.79h-23.86v3.79h4.12c-.32.22-.59.49-.86.71-2.49,2.28-3.8,5.04-3.8,8.3c0,3.31,1.3,6.07,3.8,8.35c2.49,2.17,5.37,3.26,8.68,3.26c3.36,0,6.23-1.09,8.67-3.26c2.55-2.28,3.8-5.04,3.8-8.35c0-3.26-1.24-6.02-3.8-8.3-.21-.22-.48-.49-.81-.71h4.07v-3.79Z"/></g></g></g><g><g transform="translate(147.153 246.57)"><g><path d="M530.54,12.04h-4.94c-.32.76-.49,1.57-.49,2.39c0,2.71,1.52,4.67,4.45,5.91l.98.16h-4.94v3.8h23.86v-3.8h-11.93c-1.95,0-3.69-.43-5.26-1.35-.81-.43-1.52-1.03-2.06-1.73s-.86-1.57-.86-2.55c0-.99.43-1.91,1.19-2.83Z"/></g></g></g><g><g transform="translate(147.153 233.922)"><g><path d="M537.54,1.1c2.33,0,4.39.82,6.07,2.44c1.73,1.63,2.6,3.63,2.6,5.96c0,2.39-.86,4.39-2.6,6.02-1.68,1.63-3.74,2.39-6.07,2.39-2.28,0-4.34-.76-6.07-2.39-1.74-1.63-2.6-3.64-2.6-6.02c0-2.33.86-4.34,2.6-5.96c1.73-1.62,3.79-2.44,6.07-2.44Zm11.92-3.79h-40.66v3.79h20.93c-.32.22-.59.49-.86.71-2.49,2.28-3.8,5.04-3.8,8.3c0,3.31,1.3,6.07,3.8,8.35c2.49,2.17,5.37,3.26,8.68,3.26c3.36,0,6.23-1.09,8.67-3.26c2.55-2.28,3.8-5.04,3.8-8.35c0-3.26-1.24-6.02-3.8-8.3-.21-.22-.48-.49-.81-.71h4.07v-3.79Z"/></g></g></g><g><g transform="translate(147.153 210.742)"><g><path d="M536.99,-10.96c-3.25,0-6.07,1.3-8.51,3.8-2.33,2.44-3.53,5.37-3.53,8.68c0,3.47,1.25,6.4,3.69,8.84s5.37,3.64,8.79,3.64c3.47,0,6.4-1.2,8.78-3.64c1.14-1.14,2.01-2.44,2.66-3.96s.98-3.31.98-5.42-.65-4.18-1.95-6.23c-1.3-2.06-3.15-3.58-5.42-4.61v4.34c1.14.86,2.01,1.9,2.66,3.14.65,1.25.92,2.55.92,3.91c0,2.06-.65,3.91-2.01,5.53-1.3,1.62-2.98,2.66-5.04,2.98v-20.99h-2.02Zm-1.24,4.01v16.92c-.97-.22-1.9-.59-2.77-1.14-2.82-1.73-4.23-4.17-4.23-7.32c0-2.01.65-3.8,1.95-5.37c1.36-1.63,3.04-2.6,5.05-3.09Z"/></g></g></g><g><g transform="translate(147.153 188.578)"><g><path d="M549.46,-11.52v-3.8h-14.91c-2.77,0-4.99.76-6.67,2.17-.86.76-1.52,1.63-2.01,2.66-.48,1.08-.76,2.44-.76,4.12c0,1.73.49,3.2,1.36,4.5.81,1.25,1.9,2.28,3.25,3.04h-4.12v3.8h23.86v-3.8h-9.98c-3.04,0-5.42-.54-7.21-1.68-.98-.65-1.79-1.46-2.44-2.49-.59-.98-.92-2.33-.92-3.96s.6-2.77,1.68-3.47s2.44-1.08,3.96-1.08h14.91Z"/></g></g></g><g><g transform="translate(147.153 167.878)"><g><path d="M517.37,-5.78c-.44.49-.71,1.08-.71,1.73s.27,1.25.71,1.68c.48.49,1.08.7,1.73.7s1.24-.21,1.68-.7c.48-.43.7-1.03.7-1.68s-.22-1.24-.7-1.73c-.44-.43-1.03-.7-1.68-.7s-1.25.26-1.73.7ZM549.46,-6h-23.86v3.8h23.86v-3.8Z"/></g></g></g><g><g transform="translate(147.153 158.565)"><g><path d="M549.46,-21.52v-3.8h-14.91c-2.77,0-4.99.76-6.67,2.17-.86.76-1.52,1.63-2.01,2.66-.48,1.08-.76,2.44-.76,4.12c0,1.73.49,3.2,1.36,4.5.81,1.25,1.9,2.28,3.25,3.04h-4.12v3.8h23.86v-3.8h-9.98c-3.04,0-5.42-.54-7.21-1.68-.98-.65-1.79-1.46-2.44-2.49-.59-.98-.92-2.33-.92-3.96s.6-2.77,1.68-3.47s2.44-1.08,3.96-1.08h14.91Z"/></g></g></g><g><g transform="translate(147.153 137.865)"><g><path d="M537.54,-31.24c2.33,0,4.39.81,6.07,2.44c1.73,1.63,2.6,3.64,2.6,5.97s-.86,4.33-2.6,5.96c-1.68,1.63-3.69,2.44-6.07,2.44-2.33,0-4.34-.81-6.07-2.44-1.74-1.63-2.6-3.64-2.6-5.96c0-2.33.86-4.34,2.6-5.97c1.73-1.63,3.79-2.44,6.07-2.44Zm15.18,16.92v3.91c2.55-.44,4.77-1.57,6.67-3.53c2.44-2.39,3.64-5.31,3.64-8.73c0-3.36-1.19-6.29-3.64-8.73-2.39-2.39-5.31-3.64-8.73-3.64h-25.05v3.8h4.02c-.22.22-.49.43-.76.65-2.49,2.39-3.8,5.15-3.8,8.3c0,3.36,1.3,6.13,3.8,8.4c2.49,2.17,5.37,3.26,8.68,3.26c3.36,0,6.23-1.08,8.67-3.26c2.55-2.28,3.8-5.04,3.8-8.4c0-3.26-1.24-6.02-3.8-8.3-.21-.22-.48-.43-.7-.65h5.15c2.39,0,4.39.86,6.07,2.55c1.68,1.68,2.49,3.69,2.49,6.02c0,2.39-.81,4.39-2.49,6.07-1.2,1.19-2.5,1.95-4.02,2.28Z"/></g></g></g></g></svg>
