<svg id="eDQ89OqXj4k1" xmlns="http://www.w3.org/2000/svg" xmlns:xlink="http://www.w3.org/1999/xlink" viewBox="0 0 60 60" shape-rendering="geometricPrecision" text-rendering="geometricPrecision"><defs><rect id="eDQ89OqXj4k2" width="60" height="60" rx="0" ry="0"/></defs><g transform="translate(-652.549988-353.609985)"><path d="M682.55,376.96c-3.66,0-6.65,2.98-6.65,6.65c0,3.66,2.99,6.65,6.65,6.65s6.65-2.99,6.65-6.65c-.01-3.66-2.99-6.65-6.65-6.65Z"/><path d="M691.48,367.3h-17.87c-4.05,0-7.38,3.3-7.38,7.38v17.87c0,4.05,3.3,7.38,7.38,7.38h17.87c4.05,0,7.38-3.3,7.38-7.38v-17.87c-.03-4.08-3.33-7.38-7.38-7.38Zm-8.93,26.31c-5.53,0-10.03-4.49-10.03-10.03s4.49-10.03,10.03-10.03s10.03,4.49,10.03,10.03c-.03,5.54-4.53,10.03-10.03,10.03Zm10.72-18.36c-1.32,0-2.41-1.09-2.41-2.41c0-1.33,1.09-2.42,2.41-2.42c1.33,0,2.42,1.09,2.42,2.42c0,1.34-1.06,2.41-2.42,2.41Z"/><g><g clip-path="url(#eDQ89OqXj4k10)"><g><path d="M682.55,353.61c-16.57,0-30,13.43-30,30s13.43,30,30,30s30-13.43,30-30c-.03-16.57-13.46-30-30-30Zm19.66,38.94c0,5.92-4.83,10.75-10.76,10.75h-17.84c-5.92,0-10.75-4.83-10.75-10.75v-17.87c0-5.92,4.83-10.76,10.75-10.76h17.87c5.92,0,10.76,4.83,10.76,10.76v17.87h-.03Z"/></g><clipPath id="eDQ89OqXj4k10"><use width="60" height="60" xlink:href="#eDQ89OqXj4k2" transform="translate(652.55 353.61)"/></clipPath></g></g></g></svg>
