<svg id="eaXUYsm59Cv1" xmlns="http://www.w3.org/2000/svg" xmlns:xlink="http://www.w3.org/1999/xlink" viewBox="0 0 450 60" shape-rendering="geometricPrecision" text-rendering="geometricPrecision"><g transform="matrix(0 1-1 0 543.522232-110.980865)"><g><g transform="translate(147.153 541.573)"><g><path d="M0,-5.898438h-30.5v2.847657h30.5Zm0,0"/></g></g></g><g transform="translate(.000004 0)"><g transform="translate(147.153 532.626)"><g><path d="M-8.945312,-17.285156c1.746093,0,3.292968.613281,4.554687,1.832031c1.300781,1.21875,1.949219,2.722656,1.949219,4.472656c0,1.789063-.648438,3.292969-1.949219,4.515625-1.261719,1.21875-2.808594,1.789063-4.554687,1.789063-1.710938,0-3.253907-.570313-4.554688-1.789063-1.304688-1.222656-1.953125-2.726562-1.953125-4.515625c0-1.75.648437-3.253906,1.953125-4.472656c1.300781-1.21875,2.84375-1.832031,4.554688-1.832031ZM0,-20.128906h-17.894531v2.84375h3.089843c-.242187.164062-.445312.367187-.648437.53125-1.871094,1.707031-2.847656,3.78125-2.847656,6.222656c0,2.480469.976562,4.554688,2.847656,6.261719c1.871094,1.625,4.027344,2.441406,6.507813,2.441406c2.519531,0,4.675781-.816406,6.503906-2.441406c1.914062-1.707031,2.847656-3.78125,2.847656-6.261719c0-2.441406-.933594-4.515625-2.847656-6.222656-.160156-.164063-.363282-.367188-.609375-.53125h3.050781Zm0,0"/></g></g></g><g><g transform="translate(147.153 509.446)"><g><path d="M0,-15.414062v-2.847657h-11.183594c-2.074218,0-3.742187.570313-5.003906,1.628907-.648438.570312-1.136719,1.21875-1.503906,1.992187-.363282.8125-.570313,1.832031-.570313,3.089844c0,1.300781.367188,2.402343,1.019531,3.375.609376.9375,1.421876,1.710937,2.4375,2.277343h-3.089843v2.847657h17.894531v-2.847657h-7.484375c-2.277344,0-4.066406-.40625-5.40625-1.257812-.734375-.488281-1.34375-1.097656-1.832031-1.871094-.445313-.734375-.691406-1.75-.691406-2.96875c0-1.222656.449218-2.074218,1.261718-2.605468.8125-.527344,1.828125-.8125,2.96875-.8125Zm0,0"/></g></g></g><g transform="translate(0 0.000004)"><g transform="translate(147.153 488.746)"><g><path d="M-8.945312,-17.285156c1.746093,0,3.292968.613281,4.554687,1.832031c1.300781,1.21875,1.949219,2.722656,1.949219,4.472656c0,1.789063-.648438,3.292969-1.949219,4.515625-1.261719,1.21875-2.808594,1.789063-4.554687,1.789063-1.710938,0-3.253907-.570313-4.554688-1.789063-1.304688-1.222656-1.953125-2.726562-1.953125-4.515625c0-1.75.648437-3.253906,1.953125-4.472656c1.300781-1.21875,2.84375-1.832031,4.554688-1.832031ZM0,-20.128906h-30.5v2.84375h15.695312c-.242187.164062-.445312.367187-.648437.53125-1.871094,1.707031-2.847656,3.78125-2.847656,6.222656c0,2.480469.976562,4.554688,2.847656,6.261719c1.871094,1.625,4.027344,2.441406,6.507813,2.441406c2.519531,0,4.675781-.816406,6.503906-2.441406c1.914062-1.707031,2.847656-3.78125,2.847656-6.261719c0-2.441406-.933594-4.515625-2.847656-6.222656-.160156-.164063-.363282-.367188-.609375-.53125h3.050781Zm0,0"/></g></g></g><g transform="translate(.000004 0)"><g transform="translate(147.153 465.565)"><g transform="translate(0 0.000001)"><path d="M-2.519531,-5.613281c-.488281.691406-1.304688,1.222656-2.484375,1.503906v3.011719c3.703125-.609375,5.53125-2.96875,5.53125-7.117188c0-.976562-.078125-1.871094-.324219-2.726562-.242187-.851563-.570313-1.585938-1.015625-2.277344-.9375-1.382812-2.359375-2.074219-4.269531-2.074219-1.953125,0-3.335938.898438-4.230469,2.765625-.367188.773438-.652344,1.628906-.855469,2.5625-.203125.894532-.445312,1.75-.691406,2.523438-.242187.8125-.566406,1.464844-.933594,1.992187s-.9375.8125-1.75.8125-1.421875-.324219-1.789062-.976562c-.40625-.648438-.609375-1.421875-.609375-2.277344c0-.894531.203125-1.667969.527344-2.277344.328124-.609375.976562-1.097656,1.953124-1.382812v-3.050781c-1.789062.367187-3.050781,1.140624-3.742187,2.277343-.730469,1.179688-1.097656,2.605469-1.097656,4.351563c0,1.710937.488281,3.214844,1.382812,4.476562.933594,1.21875,2.277344,1.871094,4.066407,1.871094.855468,0,1.628906-.246094,2.277343-.691406.691407-.488282,1.21875-1.179688,1.628907-2.074219.363281-.816406.648437-1.667969.894531-2.5625.203125-.894531.445312-1.75.691406-2.5625.609375-1.832031,1.503906-2.765625,2.640625-2.765625c1.953125,0,2.890625,1.300781,2.890625,3.902344c0,1.097656-.207031,2.035156-.691406,2.765625Zm0,0" transform="translate(0 0.000001)"/></g></g></g><g><g transform="translate(147.153 449.217)"><g><path d="M-11.46875,-19.765625c-1.992188.570313-3.617188,1.667969-4.878906,3.253906-1.261719,1.667969-1.914063,3.496094-1.914063,5.53125c0,2.5625.9375,4.757813,2.765625,6.507813c1.832032,1.789062,4.027344,2.644531,6.550782,2.644531c2.558593,0,4.714843-.855469,6.585937-2.644531.855469-.8125,1.546875-1.75,2.035156-2.886719.488281-1.097656.730469-2.238281.730469-3.375c0-1.140625-.121094-2.15625-.445312-3.050781-1.019532-2.847656-2.929688-4.800782-5.816407-5.816406v3.210937c1.015625.570313,1.828125,1.304687,2.398438,2.277344.609375.976562.894531,1.996093.894531,3.132812c0,1.75-.609375,3.214844-1.871094,4.433594s-2.765625,1.789063-4.511718,1.789063c-1.667969,0-3.171876-.570313-4.433594-1.789063-.570313-.570313-1.058594-1.21875-1.382813-1.992187-.324219-.734376-.53125-1.667969-.53125-2.726563s.367188-2.074219,1.058594-3.128906c.734375-1.019531,1.628906-1.792969,2.765625-2.277344Zm0,0"/></g></g></g><g transform="translate(.000004 0.000004)"><g transform="translate(147.153 428.029)"><g><path d="M-8.945312,-17.285156c1.746093,0,3.292968.613281,4.554687,1.832031c1.300781,1.21875,1.949219,2.722656,1.949219,4.472656c0,1.789063-.648438,3.292969-1.949219,4.515625-1.261719,1.21875-2.808594,1.789063-4.554687,1.789063-1.710938,0-3.253907-.570313-4.554688-1.789063-1.304688-1.222656-1.953125-2.726562-1.953125-4.515625c0-1.75.648437-3.253906,1.953125-4.472656c1.300781-1.21875,2.84375-1.832031,4.554688-1.832031ZM0,-20.128906h-17.894531v2.84375h3.089843c-.242187.164062-.445312.367187-.648437.53125-1.871094,1.707031-2.847656,3.78125-2.847656,6.222656c0,2.480469.976562,4.554688,2.847656,6.261719c1.871094,1.625,4.027344,2.441406,6.507813,2.441406c2.519531,0,4.675781-.816406,6.503906-2.441406c1.914062-1.707031,2.847656-3.78125,2.847656-6.261719c0-2.441406-.933594-4.515625-2.847656-6.222656-.160156-.164063-.363282-.367188-.609375-.53125h3.050781Zm0,0"/></g></g></g><g transform="translate(0 0.000004)"><g transform="translate(147.153 404.849)"><g><path d="M10.167969,-5.898438h-13.21875c.246093-.121093.449219-.324218.609375-.488281c1.914062-1.707031,2.847656-3.78125,2.847656-6.261719c0-2.4375-.933594-4.511718-2.847656-6.222656-1.828125-1.625-3.984375-2.480468-6.503906-2.480468-2.480469,0-4.636719.855468-6.507813,2.480468-1.871094,1.710938-2.847656,3.785156-2.847656,6.222656c0,2.480469.976562,4.554688,2.847656,6.261719.203125.164063.40625.367188.648437.488281h-3.089843v2.847657h28.0625ZM-8.945312,-18.503906c1.746093,0,3.292968.609375,4.554687,1.832031c1.300781,1.21875,1.949219,2.722656,1.949219,4.472656c0,1.789063-.648438,3.292969-1.949219,4.511719-1.261719,1.222656-2.808594,1.789062-4.554687,1.789062-1.710938,0-3.253907-.566406-4.554688-1.789062-1.304688-1.21875-1.953125-2.722656-1.953125-4.511719c0-1.75.648437-3.253906,1.953125-4.472656c1.300781-1.222656,2.84375-1.832031,4.554688-1.832031Zm0,0"/></g></g></g><g transform="translate(.000004 0.000004)"><g transform="translate(147.153 381.668)"><g><path d="M-9.355469,-20.539062c-2.4375,0-4.554687.976562-6.382812,2.847656-1.75,1.832031-2.644531,4.027344-2.644531,6.507812c0,2.601563.9375,4.796875,2.765624,6.628906c1.832032,1.828126,4.027344,2.726563,6.589844,2.726563c2.601563,0,4.796875-.898437,6.585938-2.726563.855468-.855468,1.507812-1.832031,1.992187-2.96875.488282-1.140624.734375-2.480468.734375-4.066406s-.488281-3.132812-1.464844-4.675781c-.976562-1.546875-2.359374-2.6875-4.066406-3.457031v3.253906c.855469.648438,1.503906,1.421875,1.992188,2.355469.488281.9375.691406,1.914062.691406,2.929687c0,1.546875-.488281,2.929688-1.503906,4.148438-.976563,1.21875-2.238282,1.992187-3.78125,2.238281v-15.742187Zm-.933593,3.011718v12.6875c-.730469-.164062-1.421876-.445312-2.074219-.855468-2.113281-1.300782-3.171875-3.128907-3.171875-5.488282c0-1.503906.488281-2.847656,1.464844-4.027344c1.015624-1.21875,2.277343-1.949218,3.78125-2.316406Zm0,0"/></g></g></g><g transform="translate(.000004 0.000004)"><g transform="translate(147.153 359.504)"><g transform="translate(0 0.000001)"><path d="M-2.519531,-5.613281c-.488281.691406-1.304688,1.222656-2.484375,1.503906v3.011719c3.703125-.609375,5.53125-2.96875,5.53125-7.117188c0-.976562-.078125-1.871094-.324219-2.726562-.242187-.851563-.570313-1.585938-1.015625-2.277344-.9375-1.382812-2.359375-2.074219-4.269531-2.074219-1.953125,0-3.335938.898438-4.230469,2.765625-.367188.773438-.652344,1.628906-.855469,2.5625-.203125.894532-.445312,1.75-.691406,2.523438-.242187.8125-.566406,1.464844-.933594,1.992187s-.9375.8125-1.75.8125-1.421875-.324219-1.789062-.976562c-.40625-.648438-.609375-1.421875-.609375-2.277344c0-.894531.203125-1.667969.527344-2.277344.328124-.609375.976562-1.097656,1.953124-1.382812v-3.050781c-1.789062.367187-3.050781,1.140624-3.742187,2.277343-.730469,1.179688-1.097656,2.605469-1.097656,4.351563c0,1.710937.488281,3.214844,1.382812,4.476562.933594,1.21875,2.277344,1.871094,4.066407,1.871094.855468,0,1.628906-.246094,2.277343-.691406.691407-.488282,1.21875-1.179688,1.628907-2.074219.363281-.816406.648437-1.667969.894531-2.5625.203125-.894531.445312-1.75.691406-2.5625.609375-1.832031,1.503906-2.765625,2.640625-2.765625c1.953125,0,2.890625,1.300781,2.890625,3.902344c0,1.097656-.207031,2.035156-.691406,2.765625Zm0,0" transform="translate(0 0.000001)"/></g></g></g><g transform="translate(.000004 0)"><g transform="translate(147.153 332.175)"><g><path d="M-14.03125,-10.695312l7.769531-6.058594c.40625.40625.851563.851562,1.300781,1.339844c1.707032,1.789062,2.519532,3.457031,2.519532,4.921874c0,1.382813-.527344,2.601563-1.625,3.578126-1.058594.976562-2.277344,1.464843-3.660156,1.464843-1.140626,0-2.359376-.652343-3.699219-1.992187-.613281-.609375-1.464844-1.667969-2.605469-3.253906Zm-4.511719.242187c-1.261719,1.222656-2.441406,1.789063-3.660156,1.789063-1.179687,0-2.035156-.324219-2.605469-1.015626-.527344-.648437-.773437-1.421874-.730468-2.234374.039062-.816407.324218-1.585938.894531-2.277344.570312-.652344,1.382812-1.019532,2.359375-1.019532c1.015625,0,1.953125.449219,2.804687,1.300782.40625.410156.734375.816406,1.058594,1.261718.324219.449219.609375.855469.894531,1.261719-.324218.324219-.691406.609375-1.015625.933594Zm7.765625-13.746094l-1.546875,2.320313l1.953125,1.546875c.652344.527343,1.300782,1.054687,1.953125,1.585937l-7.28125,5.691406c-.40625-.488281-.8125-1.058593-1.300781-1.625-1.746094-2.117187-3.539062-3.171874-5.328125-3.171874-1.664063,0-3.046875.566406-4.148437,1.707031-1.054688,1.097656-1.585938,2.480469-1.585938,4.1875c0,1.789062.570312,3.253906,1.710938,4.3125c1.136718,1.097656,2.5625,1.625,4.269531,1.625s3.699219-.976563,5.9375-2.925781c.609375.8125,1.179687,1.625,1.75,2.355468c1.910156,2.644532,4.226562,3.945313,6.871093,3.945313c2.316407,0,4.230469-.730469,5.773438-2.277344.734375-.730469,1.261719-1.585937,1.667969-2.5625.40625-.972656.570312-2.113281.570312-3.375c0-1.300781-.488281-2.722656-1.546875-4.390625-.488281-.855469-1.421875-1.910156-2.804687-3.292969l3.945312-3.011719L0,-25.296875l-6.222656,4.757813c-2.441406-2.03125-3.984375-3.25-4.554688-3.660157Zm0,0"/></g></g></g><g><g transform="translate(147.153 293.175)"><g><path d="M-8.945312,-17.527344c1.746093,0,3.292968.609375,4.554687,1.828125c1.300781,1.222657,1.949219,2.726563,1.949219,4.476563c0,1.746094-.648438,3.25-1.949219,4.472656-1.261719,1.21875-2.765625,1.828125-4.554687,1.828125-1.75,0-3.253907-.609375-4.554688-1.828125-1.304688-1.222656-1.953125-2.726562-1.953125-4.472656c0-1.75.648437-3.253906,1.953125-4.476563c1.300781-1.21875,2.84375-1.828125,4.554688-1.828125Zm11.386718,12.6875v2.929688c1.910156-.328125,3.578125-1.179688,5-2.644532c1.832032-1.789062,2.726563-3.984374,2.726563-6.546874c0-2.523438-.894531-4.71875-2.726563-6.546876C5.652344,-19.4375,3.457031,-20.375,0.894531,-20.375h-18.789062v2.847656h3.011719c-.164063.164063-.367188.324219-.570313.488282-1.871094,1.789062-2.847656,3.863281-2.847656,6.222656c0,2.519531.976562,4.59375,2.847656,6.300781c1.871094,1.628906,4.027344,2.441406,6.507813,2.441406c2.519531,0,4.675781-.8125,6.503906-2.441406c1.914062-1.707031,2.847656-3.78125,2.847656-6.300781c0-2.441406-.933594-4.515625-2.847656-6.222656-.160156-.164063-.363282-.324219-.527344-.488282h3.863281c1.789063,0,3.292969.648438,4.554688,1.910156s1.871093,2.765626,1.871093,4.515626c0,1.789062-.609374,3.292968-1.871093,4.554687-.894531.894531-1.871094,1.464844-3.007813,1.707031Zm0,0"/></g></g></g><g transform="translate(.000004 0.000004)"><g transform="translate(147.153 269.751)"><g><path d="M-8.945312,-17.285156c1.746093,0,3.292968.613281,4.554687,1.832031c1.300781,1.21875,1.949219,2.722656,1.949219,4.472656c0,1.789063-.648438,3.292969-1.949219,4.515625-1.261719,1.21875-2.808594,1.789063-4.554687,1.789063-1.710938,0-3.253907-.570313-4.554688-1.789063-1.304688-1.222656-1.953125-2.726562-1.953125-4.515625c0-1.75.648437-3.253906,1.953125-4.472656c1.300781-1.21875,2.84375-1.832031,4.554688-1.832031ZM0,-20.128906h-17.894531v2.84375h3.089843c-.242187.164062-.445312.367187-.648437.53125-1.871094,1.707031-2.847656,3.78125-2.847656,6.222656c0,2.480469.976562,4.554688,2.847656,6.261719c1.871094,1.625,4.027344,2.441406,6.507813,2.441406c2.519531,0,4.675781-.816406,6.503906-2.441406c1.914062-1.707031,2.847656-3.78125,2.847656-6.261719c0-2.441406-.933594-4.515625-2.847656-6.222656-.160156-.164063-.363282-.367188-.609375-.53125h3.050781Zm0,0"/></g></g></g><g transform="translate(0 0.000004)"><g transform="translate(147.153 246.57)"><g><path d="M-14.191406,-12.242188h-3.703125c-.242188.570313-.367188,1.179688-.367188,1.789063c0,2.035156,1.140625,3.5,3.335938,4.433594l.734375.121093h-3.703125v2.847657h17.894531v-2.847657h-8.945312c-1.464844,0-2.765626-.324218-3.945313-1.015624-.609375-.324219-1.140625-.773438-1.546875-1.300782s-.648438-1.179687-.648438-1.910156c0-.734375.324219-1.425781.894532-2.117188Zm0,0"/></g></g></g><g><g transform="translate(147.153 233.922)"><g><path d="M-8.945312,-17.285156c1.746093,0,3.292968.613281,4.554687,1.832031c1.300781,1.21875,1.949219,2.722656,1.949219,4.472656c0,1.789063-.648438,3.292969-1.949219,4.515625-1.261719,1.21875-2.808594,1.789063-4.554687,1.789063-1.710938,0-3.253907-.570313-4.554688-1.789063-1.304688-1.222656-1.953125-2.726562-1.953125-4.515625c0-1.75.648437-3.253906,1.953125-4.472656c1.300781-1.21875,2.84375-1.832031,4.554688-1.832031ZM0,-20.128906h-30.5v2.84375h15.695312c-.242187.164062-.445312.367187-.648437.53125-1.871094,1.707031-2.847656,3.78125-2.847656,6.222656c0,2.480469.976562,4.554688,2.847656,6.261719c1.871094,1.625,4.027344,2.441406,6.507813,2.441406c2.519531,0,4.675781-.816406,6.503906-2.441406c1.914062-1.707031,2.847656-3.78125,2.847656-6.261719c0-2.441406-.933594-4.515625-2.847656-6.222656-.160156-.164063-.363282-.367188-.609375-.53125h3.050781Zm0,0"/></g></g></g><g transform="translate(.000004 0.000003)"><g transform="translate(147.153 210.742)"><g><path d="M-9.355469,-20.539062c-2.4375,0-4.554687.976562-6.382812,2.847656-1.75,1.832031-2.644531,4.027344-2.644531,6.507812c0,2.601563.9375,4.796875,2.765624,6.628906c1.832032,1.828126,4.027344,2.726563,6.589844,2.726563c2.601563,0,4.796875-.898437,6.585938-2.726563.855468-.855468,1.507812-1.832031,1.992187-2.96875.488282-1.140624.734375-2.480468.734375-4.066406s-.488281-3.132812-1.464844-4.675781c-.976562-1.546875-2.359374-2.6875-4.066406-3.457031v3.253906c.855469.648438,1.503906,1.421875,1.992188,2.355469.488281.9375.691406,1.914062.691406,2.929687c0,1.546875-.488281,2.929688-1.503906,4.148438-.976563,1.21875-2.238282,1.992187-3.78125,2.238281v-15.742187Zm-.933593,3.011718v12.6875c-.730469-.164062-1.421876-.445312-2.074219-.855468-2.113281-1.300782-3.171875-3.128907-3.171875-5.488282c0-1.503906.488281-2.847656,1.464844-4.027344c1.015624-1.21875,2.277343-1.949218,3.78125-2.316406Zm0,0"/></g></g></g><g><g transform="translate(147.153 188.578)"><g><path d="M0,-15.414062v-2.847657h-11.183594c-2.074218,0-3.742187.570313-5.003906,1.628907-.648438.570312-1.136719,1.21875-1.503906,1.992187-.363282.8125-.570313,1.832031-.570313,3.089844c0,1.300781.367188,2.402343,1.019531,3.375.609376.9375,1.421876,1.710937,2.4375,2.277343h-3.089843v2.847657h17.894531v-2.847657h-7.484375c-2.277344,0-4.066406-.40625-5.40625-1.257812-.734375-.488281-1.34375-1.097656-1.832031-1.871094-.445313-.734375-.691406-1.75-.691406-2.96875c0-1.222656.449218-2.074218,1.261718-2.605468.8125-.527344,1.828125-.8125,2.96875-.8125Zm0,0"/></g></g></g><g transform="translate(.000004 0)"><g transform="translate(147.153 167.878)"><g><path d="M-24.074219,-5.9375c-.328125.367188-.53125.8125-.53125,1.300781s.203125.9375.53125,1.261719c.363281.367188.8125.527344,1.300781.527344s.933594-.160156,1.261719-.527344c.363281-.324219.527344-.773438.527344-1.261719s-.164063-.933593-.527344-1.300781c-.328125-.324219-.773437-.527344-1.261719-.527344s-.9375.203125-1.300781.527344ZM0,-6.101562h-17.894531v2.847656h17.894531Zm0,0"/></g></g></g><g transform="translate(0 0.000004)"><g transform="translate(147.153 158.565)"><g><path d="M0,-15.414062v-2.847657h-11.183594c-2.074218,0-3.742187.570313-5.003906,1.628907-.648438.570312-1.136719,1.21875-1.503906,1.992187-.363282.8125-.570313,1.832031-.570313,3.089844c0,1.300781.367188,2.402343,1.019531,3.375.609376.9375,1.421876,1.710937,2.4375,2.277343h-3.089843v2.847657h17.894531v-2.847657h-7.484375c-2.277344,0-4.066406-.40625-5.40625-1.257812-.734375-.488281-1.34375-1.097656-1.832031-1.871094-.445313-.734375-.691406-1.75-.691406-2.96875c0-1.222656.449218-2.074218,1.261718-2.605468.8125-.527344,1.828125-.8125,2.96875-.8125Zm0,0"/></g></g></g><g><g transform="translate(147.153 137.865)"><g><path d="M-8.945312,-17.527344c1.746093,0,3.292968.609375,4.554687,1.828125c1.300781,1.222657,1.949219,2.726563,1.949219,4.476563c0,1.746094-.648438,3.25-1.949219,4.472656-1.261719,1.21875-2.765625,1.828125-4.554687,1.828125-1.75,0-3.253907-.609375-4.554688-1.828125-1.304688-1.222656-1.953125-2.726562-1.953125-4.472656c0-1.75.648437-3.253906,1.953125-4.476563c1.300781-1.21875,2.84375-1.828125,4.554688-1.828125Zm11.386718,12.6875v2.929688c1.910156-.328125,3.578125-1.179688,5-2.644532c1.832032-1.789062,2.726563-3.984374,2.726563-6.546874c0-2.523438-.894531-4.71875-2.726563-6.546876C5.652344,-19.4375,3.457031,-20.375,0.894531,-20.375h-18.789062v2.847656h3.011719c-.164063.164063-.367188.324219-.570313.488282-1.871094,1.789062-2.847656,3.863281-2.847656,6.222656c0,2.519531.976562,4.59375,2.847656,6.300781c1.871094,1.628906,4.027344,2.441406,6.507813,2.441406c2.519531,0,4.675781-.8125,6.503906-2.441406c1.914062-1.707031,2.847656-3.78125,2.847656-6.300781c0-2.441406-.933594-4.515625-2.847656-6.222656-.160156-.164063-.363282-.324219-.527344-.488282h3.863281c1.789063,0,3.292969.648438,4.554688,1.910156s1.871093,2.765626,1.871093,4.515626c0,1.789062-.609374,3.292968-1.871093,4.554687-.894531.894531-1.871094,1.464844-3.007813,1.707031Zm0,0"/></g></g></g></g></svg>
