<svg id="eUYauGpqocT1" xmlns="http://www.w3.org/2000/svg" xmlns:xlink="http://www.w3.org/1999/xlink" viewBox="0 0 57 57" shape-rendering="geometricPrecision" text-rendering="geometricPrecision"><defs><rect id="eUYauGpqocT2" width="57" height="57" rx="0" ry="0"/><rect id="eUYauGpqocT3" width="57" height="57" rx="0" ry="0"/><path id="eUYauGpqocT4" d="M683.07,355.04c-15.71,0-28.48,12.78-28.48,28.48c0,6.23,2.01,12.01,5.43,16.7l-3.55,10.58l10.95-3.5c4.51,2.98,9.88,4.7,15.67,4.7c15.71,0,28.48-12.78,28.48-28.48c0-15.71-12.78-28.48-28.48-28.48h-.02v0Z"/></defs><g transform="translate(-654.570007-355.029999)"><g><g clip-path="url(#eUYauGpqocT10)"><g><path d="M683.07,412c-2.79,0-5.52-.4-8.18-1.2-2.67-.8-5.17-1.97-7.49-3.5l-10.95,3.49L660,400.21c-1.77-2.43-3.11-5.06-4.04-7.92-.93-2.85-1.39-5.78-1.39-8.78c0-15.71,12.78-28.48,28.48-28.48s28.48,12.77,28.48,28.48-12.77,28.48-28.48,28.48h.02Z" fill="#fefefe"/></g><clipPath id="eUYauGpqocT10"><use width="57" height="57" xlink:href="#eUYauGpqocT2" transform="translate(654.57 355.02)"/></clipPath></g></g><g><g clip-path="url(#eUYauGpqocT21)"><g><g><g clip-path="url(#eUYauGpqocT19)"><g><path d="M654.58,355.04v56.96h56.98v-56.96h-56.98Z"/></g><clipPath id="eUYauGpqocT19"><use width="56.97998" height="56.960022" xlink:href="#eUYauGpqocT4"/></clipPath></g></g></g><clipPath id="eUYauGpqocT21"><use width="57" height="57" xlink:href="#eUYauGpqocT3" transform="translate(654.57 355.02)"/></clipPath></g></g><path d="M675.11,369.5c-.54-1.32-.97-1.37-1.81-1.42l-.96-.04c-1.08,0-2.22.32-2.91,1.02-.84.85-2.92,2.84-2.92,6.93c0,4.08,2.98,8.04,3.39,8.59.42.54,5.81,9.06,14.19,12.53c6.55,2.71,8.49,2.46,9.98,2.15c2.18-.47,4.91-2.08,5.59-4.02.69-1.94.69-3.6.48-3.95-.2-.35-.76-.54-1.59-.97-.83-.44-4.91-2.43-5.68-2.7-.75-.29-1.47-.18-2.04.62-.8,1.12-1.59,2.26-2.22,2.94-.51.54-1.33.61-2.01.32-.92-.39-3.5-1.29-6.68-4.12-2.46-2.19-4.14-4.92-4.62-5.74-.49-.83-.05-1.32.33-1.78.42-.52.82-.89,1.24-1.37s.66-.74.92-1.31c.29-.53.08-1.12-.12-1.54s-1.88-4.51-2.56-6.17v.03Z" fill="#fefefe"/></g></svg>
